<?xml version="1.0" standalone="no"?>
<!DOCTYPE svg PUBLIC "-//W3C//DTD SVG 20010904//EN"
 "http://www.w3.org/TR/2001/REC-SVG-20010904/DTD/svg10.dtd">
<svg version="1.0" xmlns="http://www.w3.org/2000/svg"
 width="376.000000pt" height="376.000000pt" viewBox="0 0 376.000000 376.000000"
 preserveAspectRatio="xMidYMid meet">
<metadata>
Created by potrace 1.16, written by Peter Selinger 2001-2019
</metadata>
<g transform="translate(0.000000,376.000000) scale(0.100000,-0.100000)"
fill="#000000" stroke="none">
<path d="M2437 2164 c-3 -3 -20 -7 -37 -9 -17 -1 -38 -11 -46 -21 -9 -10 -13
-13 -9 -6 3 6 5 12 3 12 -2 1 -38 3 -80 6 -69 5 -78 4 -78 -11 0 -13 -5 -15
-17 -10 -24 10 -83 19 -83 12 0 -3 17 -11 38 -17 53 -17 111 -57 122 -84 15
-41 46 -39 81 5 19 24 26 39 17 39 -20 1 23 30 44 30 10 0 18 -4 18 -10 0 -24
57 -7 97 28 l42 37 -53 3 c-29 1 -55 -1 -59 -4z"/>
<path d="M2373 2070 c-18 -29 -19 -35 -7 -47 16 -17 19 -27 4 -18 -6 3 -17 0
-25 -8 -12 -12 -12 -17 -2 -26 10 -7 25 -5 55 10 43 22 76 22 212 2 54 -8 55
-9 58 -44 2 -24 -4 -43 -18 -62 -22 -28 -87 -51 -114 -41 -11 4 -16 1 -16 -11
0 -15 7 -17 53 -11 28 4 69 12 90 18 32 10 40 9 54 -5 15 -15 15 -18 -1 -42
-31 -48 -126 -69 -187 -41 -14 6 -19 1 -47 -56 -2 -5 1 -8 7 -8 6 0 11 6 11
13 0 7 5 18 12 25 33 33 90 -60 94 -156 2 -34 -1 -60 -6 -57 -4 3 -24 -13 -44
-36 -45 -53 -61 -47 -76 28 -20 102 -31 125 -57 118 -12 -3 -24 -1 -28 5 -3 5
-26 -6 -51 -25 -39 -30 -53 -35 -100 -35 -37 0 -73 8 -107 24 -61 28 -82 49
-92 93 -6 30 -8 31 -36 21 -37 -13 -197 6 -240 28 -18 9 -29 11 -29 4 0 -6 -4
-9 -9 -5 -5 3 -13 -4 -16 -16 -6 -17 -9 -18 -16 -8 -6 11 -9 11 -14 -2 -7 -19
-105 -26 -105 -8 0 6 -7 8 -16 5 -10 -4 -13 -2 -8 6 5 7 -1 9 -19 4 -31 -7
-83 32 -103 79 -7 16 -13 23 -14 13 0 -9 -12 -25 -27 -36 l-27 -20 35 -7 c67
-13 70 -15 67 -43 -2 -16 -9 -27 -18 -27 -9 0 -16 -11 -18 -27 -4 -33 2 -35
30 -8 12 11 29 20 37 19 13 0 14 -2 1 -6 -25 -10 -52 -41 -45 -52 8 -15 -28
-14 -42 0 -8 8 -9 19 -2 37 5 13 8 25 7 26 -2 1 -12 8 -22 16 -11 8 -17 11
-14 5 3 -5 2 -20 -3 -33 -8 -20 -13 -23 -41 -16 -30 6 -31 5 -18 -10 8 -10 10
-20 4 -24 -5 -4 -14 -16 -20 -27 -12 -22 -44 -33 -44 -15 0 6 11 22 24 35 l24
24 -19 35 c-24 46 -24 67 2 100 16 20 26 25 47 20 26 -6 26 -5 -6 17 -18 13
-47 45 -65 70 l-32 46 3 -96 c2 -53 8 -101 14 -108 5 -7 6 -18 2 -24 -5 -8 -3
-9 6 -4 14 8 14 9 -10 -83 -9 -38 -8 -46 10 -69 11 -14 20 -31 20 -38 0 -7 8
-15 18 -19 9 -3 23 -9 29 -12 7 -3 18 6 25 20 11 25 16 26 70 24 32 -1 58 -5
58 -8 0 -3 17 -14 38 -23 51 -23 100 -70 107 -104 3 -15 11 -36 16 -46 6 -12
5 -26 -6 -47 -15 -29 -15 -30 7 -26 13 3 25 5 28 5 3 1 -1 5 -9 10 -17 11 -6
31 18 31 10 0 24 6 30 14 20 24 50 26 61 5 6 -10 20 -19 31 -19 11 0 28 -4 38
-10 10 -5 41 -7 69 -3 47 5 51 8 56 37 12 62 96 121 188 132 44 5 62 2 96 -15
70 -36 92 -104 45 -140 -32 -26 -24 -38 14 -19 17 8 27 20 25 30 -2 11 9 23
27 32 16 9 28 23 27 32 -1 20 45 49 92 58 30 5 34 3 46 -24 l12 -31 28 26 c22
21 31 23 42 14 16 -13 16 -13 31 14 9 17 11 16 38 -5 16 -12 36 -23 45 -23 21
0 15 -65 -11 -110 -17 -28 -29 -36 -74 -45 -73 -15 -121 -2 -117 31 2 19 -3
16 -21 -16 -20 -36 -28 -41 -92 -57 -39 -9 -89 -22 -111 -29 -36 -11 -48 -10
-87 5 -27 10 -49 26 -52 37 -5 16 -12 19 -39 13 -18 -3 -50 -1 -71 5 -32 9
-42 7 -63 -9 -13 -11 -34 -20 -45 -20 -30 0 -14 -11 45 -31 73 -24 262 -34
368 -19 143 19 432 80 476 100 39 18 52 32 90 98 15 25 15 26 -1 7 -9 -11 -19
-24 -23 -30 -4 -5 -18 -19 -32 -30 -18 -15 -21 -15 -11 -3 22 29 3 41 -29 18
-15 -11 -32 -20 -38 -20 -5 0 -15 -7 -22 -15 -16 -19 -26 -19 -33 0 -7 17 50
85 72 85 19 0 81 39 66 41 -29 5 -44 6 -81 8 -26 0 -55 11 -80 27 -21 15 -40
22 -42 16 -4 -12 -78 -6 -101 8 -12 8 -4 10 32 7 48 -4 56 0 36 20 -9 9 -7 10
10 6 11 -3 21 -10 21 -17 0 -6 4 -5 9 3 8 13 -3 46 -20 61 -11 10 -18 40 -9
40 6 0 9 3 8 8 -1 4 2 19 6 34 8 26 10 27 55 21 25 -3 57 -12 71 -21 l25 -16
-18 25 c-33 46 -47 78 -52 118 -4 34 -1 44 22 65 15 14 30 23 35 20 4 -3 8 -1
8 5 0 6 18 34 40 63 l40 53 -32 5 c-30 5 -34 9 -42 53 -7 42 -12 49 -38 54
-16 3 -27 11 -25 17 3 7 -6 12 -22 11 -24 0 -27 -3 -23 -25 5 -23 4 -24 -12
-7 -16 16 -20 16 -61 -7 -43 -24 -56 -23 -67 9 -1 6 -9 9 -15 9 -7 -1 -10 2
-7 7 3 5 1 9 -4 9 -5 0 -12 -9 -15 -21 -7 -26 -33 -19 -29 7 3 13 0 16 -6 9
-6 -5 -12 -21 -14 -34 l-3 -23 -25 24 c-14 13 -30 33 -36 43 -9 17 -12 15 -31
-15z m-571 -380 c14 0 19 -5 16 -17 -4 -16 2 -18 51 -15 58 2 111 -12 111 -32
1 -6 10 0 20 13 18 21 24 20 21 -1 0 -4 9 -10 20 -13 13 -4 18 -12 15 -22 -3
-8 -6 -18 -6 -23 0 -16 -67 -50 -96 -49 -25 0 -26 2 -9 9 20 9 20 9 0 9 -12 1
-27 -5 -34 -11 -11 -10 -13 -10 -7 0 7 11 -16 17 -51 13 -7 -1 -26 5 -42 14
-17 8 -36 14 -43 13 -7 -2 -12 3 -10 10 1 8 -2 11 -7 8 -19 -12 -32 20 -21 50
14 36 43 69 48 55 2 -6 13 -11 24 -11z m632 -121 c27 -21 36 -71 16 -84 -16
-10 -12 -38 5 -31 8 3 15 1 15 -4 0 -14 -134 -54 -161 -47 -33 9 -79 54 -79
78 0 16 5 18 28 13 15 -4 35 -16 45 -28 10 -11 16 -15 12 -8 -14 26 -13 82 1
82 8 0 14 5 14 10 0 40 63 52 104 19z m-596 -55 c59 -9 138 -100 117 -135 -4
-5 -13 -3 -21 6 -9 8 -21 15 -28 15 -7 0 -27 11 -46 25 -18 13 -37 22 -42 19
-12 -8 -39 16 -32 27 3 5 9 7 14 4 4 -3 10 2 14 10 8 23 -126 21 -149 -1 -20
-21 -33 -10 -14 12 26 32 69 36 187 18z"/>
<path d="M2295 1880 c-4 -12 -9 -19 -12 -16 -4 3 -11 -1 -17 -8 -12 -15 -74
-25 -91 -14 -13 8 -105 -76 -105 -95 0 -20 168 -87 218 -87 12 0 23 -4 26 -9
8 -12 63 -19 77 -11 6 4 -5 10 -25 14 -40 8 -86 63 -86 103 0 13 -4 23 -10 23
-5 0 -10 -7 -10 -16 0 -8 -7 -22 -15 -30 -13 -14 -17 -10 -14 12 2 14 -26 22
-44 12 -10 -5 -21 -7 -25 -4 -3 3 0 6 7 6 7 0 9 5 6 10 -3 6 -1 10 5 10 6 0 9
4 6 9 -7 11 49 35 62 27 19 -11 41 6 53 41 6 19 9 37 6 39 -3 3 -8 -4 -12 -16z"/>
<path d="M946 1344 c-8 -32 -41 -61 -78 -69 -27 -6 -36 -19 -20 -28 4 -2 0 -2
-8 0 -8 3 -23 6 -34 8 -10 3 -24 9 -31 15 -11 9 -16 3 -24 -26 -6 -21 -9 -39
-8 -40 1 -1 17 -9 36 -19 26 -13 46 -15 92 -10 49 6 60 4 65 -9 3 -9 12 -16
20 -16 17 0 19 17 3 22 -17 6 -21 96 -8 146 7 23 9 45 7 48 -3 3 -9 -7 -12
-22z"/>
<path d="M1323 1264 c-11 -19 -52 -36 -94 -39 -9 0 -24 -6 -32 -13 -11 -10
-25 -11 -50 -4 -19 5 -46 7 -60 5 -16 -3 -32 1 -42 11 -20 20 -29 20 -45 1 -7
-8 -19 -15 -26 -15 -17 0 -17 -10 0 -33 11 -14 22 -16 54 -11 57 9 92 -1 92
-27 0 -19 1 -19 22 -5 40 28 88 15 88 -24 0 -9 -13 -29 -30 -45 -16 -16 -30
-25 -30 -19 0 5 -4 3 -9 -5 -8 -12 -12 -12 -25 -2 -12 10 -21 9 -46 -4 -18 -9
-29 -12 -26 -6 9 14 -136 10 -146 -4 -4 -5 -10 4 -14 22 -6 29 -9 32 -36 26
-34 -7 -111 24 -101 41 3 6 3 8 -2 4 -4 -4 -22 4 -40 17 -17 14 -38 25 -46 25
-8 0 -27 7 -42 15 -19 10 -27 11 -25 3 3 -7 27 -24 54 -38 27 -15 78 -42 114
-61 36 -20 78 -39 93 -43 31 -7 35 -21 10 -35 -13 -7 17 -10 96 -10 97 -1 124
3 183 24 70 25 132 32 142 16 6 -8 -16 -33 -25 -28 -2 1 -2 -1 1 -4 3 -4 22
-9 43 -12 38 -6 38 -6 16 12 -13 10 -19 23 -15 29 8 14 96 16 96 3 0 -5 22
-11 49 -15 40 -5 58 -2 95 16 25 12 42 26 39 31 -4 6 3 8 15 5 23 -6 32 15 12
27 -5 3 -10 20 -10 38 0 30 -1 29 -25 -19 -28 -56 -49 -69 -113 -73 -49 -2
-72 11 -72 41 0 17 -3 18 -15 8 -8 -7 -15 -18 -15 -25 0 -16 -61 -26 -77 -13
-7 6 -13 18 -13 28 0 14 11 19 48 24 72 11 80 15 84 45 4 27 3 28 -26 21 -17
-4 -44 -13 -60 -19 -29 -11 -29 -11 -22 21 3 17 11 35 17 39 6 3 9 21 7 40 -3
32 -4 33 -15 13z"/>
</g>
</svg>
