<?xml version="1.0" standalone="no"?>
<!DOCTYPE svg PUBLIC "-//W3C//DTD SVG 20010904//EN"
 "http://www.w3.org/TR/2001/REC-SVG-20010904/DTD/svg10.dtd">
<svg version="1.0" xmlns="http://www.w3.org/2000/svg"
 width="917.000000pt" height="632.000000pt" viewBox="0 0 917.000000 632.000000"
 preserveAspectRatio="xMidYMid meet">
<metadata>
Created by potrace 1.16, written by Peter Selinger 2001-2019
</metadata>
<g transform="translate(0.000000,632.000000) scale(0.100000,-0.100000)"
fill="#000000" stroke="none">
<path d="M0 3160 l0 -3160 4585 0 4585 0 0 239 0 240 -22 7 c-28 8 -97 54 -82
54 5 0 14 -4 20 -9 16 -17 84 -42 84 -31 0 5 -7 10 -16 10 -8 0 -12 5 -9 10 4
6 11 8 16 5 5 -4 9 -1 9 4 0 6 -7 11 -16 11 -8 0 -12 5 -9 10 3 6 2 10 -4 10
-6 0 -8 7 -5 15 4 9 0 15 -10 15 -9 0 -13 6 -10 15 4 8 -1 17 -10 21 -9 3 -13
10 -10 15 3 5 -22 34 -56 65 -58 55 -149 188 -137 201 4 3 9 -2 13 -11 3 -9
10 -14 14 -11 13 8 -9 99 -27 112 -14 11 -14 13 -1 18 13 5 12 10 -8 30 -26
26 -31 45 -12 45 6 0 8 -3 5 -7 -9 -8 22 -43 37 -43 6 0 4 6 -5 13 -9 7 -15
22 -14 34 1 12 -3 21 -9 20 -5 -1 -11 19 -12 46 -1 26 0 47 3 47 2 0 10 -15
18 -32 l14 -33 -2 37 c-1 20 -6 36 -12 35 -10 -2 -29 173 -19 182 3 3 10 -2
16 -12 7 -14 13 -16 24 -6 7 6 11 16 8 21 -4 6 -10 5 -16 -3 -6 -10 -7 -6 -3
10 6 21 5 23 -11 17 -15 -6 -16 -5 -7 5 9 9 16 9 26 1 10 -9 16 -9 25 0 18 18
15 33 -3 18 -14 -11 -14 -10 -6 14 9 21 8 26 -4 26 -8 0 -15 -6 -15 -13 0 -7
-9 -18 -20 -25 -25 -15 -25 -15 0 39 22 49 45 81 55 79 4 -1 10 2 13 6 4 4 2
4 -5 0 -7 -3 -14 2 -18 14 -7 23 2 43 16 35 5 -3 6 1 3 9 -3 9 -1 16 5 16 6 0
11 5 11 12 0 6 -11 1 -24 -11 -20 -19 -24 -20 -30 -6 -3 9 -2 14 3 11 5 -3 14
1 21 9 9 11 7 14 -12 12 -13 -1 -29 -8 -36 -17 -10 -13 -11 -12 -6 5 5 18 3
17 -15 -4 -36 -41 -23 -5 17 46 60 75 135 125 230 154 l42 12 0 869 c-1 555
-4 867 -10 863 -6 -3 -10 -2 -10 4 0 5 5 13 10 16 7 4 10 467 10 1356 l0 1349
-4585 0 -4585 0 0 -3160z m1707 2922 c8 -5 12 -50 14 -142 l1 -135 -47 -7
c-66 -9 -68 -18 -5 -18 77 0 88 -13 83 -103 -7 -152 -15 -237 -21 -237 -4 0
-7 -18 -7 -40 -1 -39 8 -53 18 -27 3 6 6 7 6 1 1 -5 -5 -19 -13 -30 -13 -18
-28 -19 -188 -19 -174 0 -227 7 -198 25 11 7 11 10 2 10 -9 0 -11 13 -6 50 4
30 2 61 -5 78 -8 20 -9 41 -3 70 5 22 7 42 3 44 -4 2 -5 36 -3 76 l4 72 32 1
c30 2 30 2 4 6 -49 7 -30 23 27 23 30 0 55 5 55 10 0 6 -24 10 -52 11 -44 0
-115 16 -83 18 6 1 9 32 7 81 -5 106 17 177 56 183 50 7 307 7 319 -1z m1479
-427 c1 -69 3 -77 14 -70 6 3 10 1 10 -4 0 -7 -52 -11 -152 -11 -118 0 -149 3
-140 12 7 7 12 32 12 58 0 28 -3 40 -9 32 -7 -11 -9 -11 -14 2 -9 24 51 34
193 32 l85 -1 1 -50z m-26 -225 c-13 -9 -13 -10 0 -10 22 0 50 -36 38 -48 -14
-14 -19 -92 -5 -92 6 0 8 -2 5 -5 -3 -3 -17 0 -32 6 -19 9 -32 9 -50 1 -23
-10 -25 -9 -28 16 -2 21 -8 26 -23 24 -27 -5 -28 -7 -15 -31 12 -24 11 -25
-25 -11 -35 13 -65 -3 -65 -35 0 -14 -4 -25 -9 -25 -5 0 -8 29 -8 65 0 49 -4
70 -18 85 -18 20 -17 20 14 20 19 0 30 4 26 10 -3 6 -18 10 -33 10 -29 0 -20
15 13 23 40 10 231 7 215 -3z m-1492 -136 l60 -7 12 -101 c7 -55 12 -103 11
-105 -2 -2 3 -8 11 -12 9 -6 5 -9 -14 -9 -15 0 -30 -5 -34 -11 -4 -7 -21 -9
-45 -5 -24 4 -39 2 -39 -4 0 -5 -8 -11 -17 -12 -10 -1 14 -4 52 -8 51 -5 26
-7 -90 -7 -92 0 -145 3 -125 7 l35 7 -35 2 c-24 1 -31 4 -21 10 8 5 -9 10 -48
13 -33 2 -62 6 -64 9 -2 2 0 48 3 103 5 67 12 101 21 107 12 7 12 9 -1 11 -27
3 103 15 186 16 45 1 108 -1 142 -4z m25 -311 c-104 -4 -127 -22 -30 -24 76
-2 138 -7 143 -12 2 -2 -96 -2 -219 0 -122 2 -247 4 -277 4 -30 0 -49 3 -42 6
6 2 12 11 12 19 0 12 40 14 253 12 138 -1 210 -4 160 -5z m4370 -6 c4 3 7
-252 7 -568 1 -316 5 -593 9 -616 5 -24 5 -43 1 -43 -13 0 -31 83 -38 174 -4
65 -8 83 -13 61 -10 -47 -10 -194 1 -215 8 -16 4 -19 -33 -24 -66 -10 -279 -8
-312 3 -29 9 -29 10 -7 16 12 4 22 12 22 17 0 6 -6 8 -12 5 -10 -3 -12 118
-10 592 l3 596 22 0 22 0 3 -496 2 -496 145 -1 145 0 0 345 c0 191 3 343 6
340 4 -3 6 -48 6 -99 l0 -93 10 69 c10 74 3 160 -13 151 -10 -7 -13 278 -2
288 3 4 11 2 18 -3 7 -5 15 -7 18 -3z m-4418 -47 c44 -5 110 -12 147 -16 l67
-5 73 -76 c40 -41 111 -114 158 -162 129 -130 183 -262 197 -476 2 -44 7 -87
11 -95 9 -23 10 -50 2 -50 -4 0 -10 6 -13 14 -4 11 -26 13 -94 11 l-88 -2 -3
-37 c-3 -30 0 -36 17 -36 18 0 20 -8 23 -137 4 -149 2 -163 -17 -163 -6 0 -20
-9 -30 -20 -10 -11 -22 -17 -26 -14 -5 3 -6 -1 -3 -9 3 -8 -2 -20 -11 -27 -26
-22 -17 -25 56 -25 66 0 73 2 86 25 l15 25 -20 -22 c-11 -13 -23 -23 -26 -23
-12 0 -6 28 9 40 8 7 12 16 9 21 -8 13 10 11 26 -3 12 -11 13 -11 3 1 -6 7 -9
20 -6 27 3 8 1 14 -4 14 -15 0 -40 -31 -55 -70 -8 -19 -17 -30 -20 -25 -9 15
51 135 67 135 12 0 15 22 15 125 0 121 1 125 21 125 19 0 21 4 16 30 -4 17 -2
30 3 30 6 0 10 -9 10 -21 0 -12 8 -23 20 -26 12 -3 19 -14 19 -27 -2 -171 2
-246 11 -246 7 0 9 -8 4 -22 -4 -13 -8 -30 -9 -38 -1 -8 -6 -23 -10 -32 -4
-10 -5 -23 -2 -30 3 -7 6 -3 6 10 1 13 5 20 11 17 6 -4 7 -13 2 -23 -5 -9 -9
-166 -8 -349 1 -199 -3 -329 -8 -325 -6 3 -6 -3 -1 -14 14 -33 18 -84 6 -84
-6 0 -11 -7 -11 -16 0 -8 5 -12 10 -9 6 3 10 1 10 -4 0 -6 -6 -11 -12 -11 -7
0 -5 -5 5 -11 9 -5 17 -15 17 -22 0 -8 -3 -7 -9 2 -10 16 -31 6 -31 -16 0 -8
-11 -29 -25 -45 -14 -17 -24 -36 -22 -42 4 -11 13 -13 70 -15 15 -1 27 -5 27
-10 0 -5 -8 -7 -17 -5 -16 4 -18 -1 -14 -47 2 -35 0 -49 -8 -45 -14 9 -51 -11
-51 -27 0 -8 4 -7 11 3 8 12 9 10 4 -9 -5 -16 -4 -21 4 -17 6 4 11 2 11 -3 0
-6 6 -11 14 -11 11 0 14 -11 10 -47 -2 -27 -5 -81 -7 -120 -1 -40 -5 -73 -9
-73 -4 0 -5 -7 -1 -16 5 -13 8 -13 15 -2 6 8 6 4 1 -12 -4 -14 -7 -56 -6 -93
1 -68 1 -68 -28 -74 -32 -6 -65 -45 -54 -63 10 -16 25 -2 18 16 -5 14 -3 15
15 5 12 -7 22 -17 22 -24 0 -8 -4 -7 -11 3 -9 13 -10 13 -6 0 2 -9 13 -14 26
-12 20 3 21 -1 19 -44 -2 -38 -7 -48 -22 -50 -10 -1 -23 -9 -27 -16 -7 -10 -9
-10 -9 0 0 6 -7 12 -15 12 -16 0 -35 -38 -35 -68 0 -15 2 -15 10 -2 6 9 13 11
18 5 4 -5 18 -10 32 -10 14 0 28 5 32 10 5 6 8 5 8 -3 0 -7 5 -10 12 -6 7 4 8
3 4 -5 -4 -6 -12 -8 -18 -5 -6 4 -8 -1 -3 -16 5 -16 4 -20 -5 -15 -9 6 -9 2 0
-16 10 -17 11 -70 6 -213 -4 -105 -9 -213 -12 -241 -4 -45 19 -196 34 -219 3
-5 9 -1 13 10 14 34 10 -63 -7 -213 -11 -89 -21 -141 -28 -140 -6 1 -12 -8
-14 -21 -2 -12 -8 -20 -13 -17 -5 4 -9 -1 -9 -9 0 -12 -12 -16 -52 -18 -29 0
-60 -1 -68 0 -54 3 -138 2 -220 -4 -94 -6 -215 7 -253 27 -32 17 -246 14 -299
-5 -30 -11 -69 -15 -107 -13 -52 3 -60 1 -65 -16 -6 -26 -30 -22 -229 36 -41
11 -53 29 -59 88 -3 21 -10 34 -19 34 -8 0 -15 10 -17 21 -2 12 -11 24 -21 27
-28 7 -33 61 -26 258 14 383 14 643 2 651 -8 5 -6 8 6 8 17 0 17 1 3 16 -21
20 -20 35 1 27 13 -5 15 -2 10 17 -4 17 -3 20 5 12 9 -9 16 -8 27 1 11 8 10 5
-2 -9 -17 -21 -17 -22 7 -26 18 -4 27 1 34 16 11 21 11 21 11 1 1 -28 66 -35
67 -8 1 10 3 25 5 33 3 10 -4 14 -23 15 -34 1 -45 12 -30 27 17 17 15 33 -2
18 -8 -6 -20 -27 -26 -46 -7 -20 -14 -33 -17 -31 -2 3 3 22 12 42 18 45 13 57
-10 22 -19 -30 -51 -46 -41 -22 3 9 2 13 -3 10 -18 -11 -22 15 -6 39 9 13 18
39 20 57 5 40 11 46 20 20 4 -13 14 -21 28 -20 17 1 18 2 5 6 -10 2 -18 12
-18 21 0 26 25 67 38 64 7 -1 12 2 12 8 0 5 -9 10 -20 10 -11 0 -20 5 -20 12
0 21 -35 -26 -53 -70 -9 -23 -16 -46 -15 -50 1 -4 -6 -23 -14 -42 l-16 -35 -3
40 c-1 22 -2 50 -1 63 0 12 -4 22 -10 22 -7 0 -5 7 4 18 11 12 14 34 11 75 -2
39 0 56 7 52 5 -3 10 -1 10 4 0 6 -5 11 -11 11 -6 0 -8 11 -5 28 11 49 14 222
4 222 -5 0 -2 7 6 16 9 8 16 20 16 25 0 5 6 9 13 9 6 0 19 20 28 45 18 50 15
55 -12 23 -11 -11 -19 -17 -19 -12 -1 5 -7 -4 -14 -21 l-13 -30 0 28 c0 18 7
31 21 39 22 11 36 27 36 41 0 4 -16 -5 -37 -20 -21 -17 -34 -22 -31 -13 3 8 1
24 -4 35 -9 20 -9 20 6 1 18 -22 21 -14 7 13 -13 24 2 45 28 38 16 -4 25 2 36
21 l15 27 -6 -26 c-4 -19 -1 -26 10 -26 9 0 16 4 16 9 0 5 7 16 15 24 22 22
18 40 -4 20 -17 -16 -19 -16 -23 2 -3 11 -1 27 4 36 6 10 7 20 4 23 -3 3 -10
-6 -15 -20 -5 -14 -16 -28 -23 -32 -10 -6 -11 -5 0 6 14 15 16 29 3 29 -5 0
-16 -18 -25 -40 -9 -22 -19 -40 -22 -40 -6 0 -3 13 12 75 4 18 4 18 -6 3 -16
-26 -33 -23 -20 3 9 15 8 24 -1 35 -9 11 -8 14 3 14 12 0 13 9 8 43 -3 23 -9
48 -13 54 -4 6 2 13 13 16 11 3 20 10 20 16 0 6 -6 8 -12 6 -14 -5 -16 41 -23
459 -2 144 -6 190 -16 197 -7 4 -10 12 -5 16 5 4 11 2 13 -4 6 -16 55 -17 71
-1 8 8 15 8 25 -1 12 -9 21 -4 46 28 17 21 31 42 31 46 0 14 -32 -19 -41 -42
-10 -27 -31 -32 -22 -5 3 9 15 27 26 39 11 13 18 25 15 28 -5 5 -39 -24 -60
-52 -41 -55 -72 -51 -76 11 -2 27 2 38 20 47 12 6 30 19 40 28 10 10 31 16 48
15 26 -2 30 2 30 22 0 32 37 34 42 2 3 -22 6 -23 116 -23 68 0 112 -4 112 -10
-1 -14 -81 -138 -86 -132 -2 2 3 20 11 40 18 44 18 47 2 47 -17 0 -41 -80 -28
-93 7 -7 15 -6 26 3 12 10 18 10 30 0 18 -15 35 -4 66 46 11 19 25 34 31 34 6
0 3 -10 -6 -22 -25 -35 -29 -49 -19 -59 15 -15 39 -1 69 42 33 48 43 45 14 -4
-12 -20 -17 -38 -11 -41 12 -8 54 63 47 80 -9 23 -23 16 -62 -31 -40 -49 -61
-53 -26 -5 24 32 28 50 11 50 -6 0 -8 9 -3 22 6 20 5 21 -10 9 -9 -7 -16 -19
-16 -25 0 -6 -18 -31 -40 -56 -34 -38 -40 -41 -35 -20 4 14 15 36 24 50 19 26
36 70 33 82 -1 3 5 12 13 18 24 20 19 95 -7 119 -20 19 -20 22 -5 39 9 10 17
35 17 55 0 50 -29 75 -94 81 -107 10 -96 26 -96 -151 0 -86 -2 -154 -4 -152
-3 2 -16 68 -30 147 -14 79 -28 147 -31 152 -4 6 -21 10 -40 10 -39 0 -38 4
-61 -143 -14 -84 -22 -110 -36 -118 -10 -6 -32 -28 -48 -51 -17 -23 -30 -36
-30 -30 0 19 4 27 13 24 5 -1 6 2 2 7 -3 6 1 25 10 43 l16 33 -21 -24 c-19
-22 -20 -22 -20 -3 0 11 8 23 18 27 15 6 15 8 2 18 -8 7 -16 23 -18 37 -1 16
1 21 6 12 5 -7 9 41 10 110 6 358 59 489 292 730 36 36 81 87 100 112 29 37
42 46 75 50 219 28 260 30 370 16z m4270 -65 c21 -20 25 -34 25 -79 0 -65 -16
-86 -65 -86 -46 0 -65 29 -65 97 0 86 54 120 105 68z m-2760 -56 c4 -6 1 -10
-6 -8 -8 1 -22 1 -33 0 -15 -1 -16 -4 -6 -16 11 -13 7 -15 -26 -16 l-39 -1 50
-12 c36 -9 45 -14 30 -18 -11 -3 12 -6 51 -7 l72 -1 6 -42 c4 -24 8 -73 10
-109 l4 -66 -39 -13 c-29 -10 -79 -11 -191 -7 -83 4 -153 9 -156 11 -2 2 4 20
13 40 9 19 16 52 15 73 -6 97 -2 111 36 129 19 9 31 20 26 23 -12 8 -22 38
-15 45 11 11 191 7 198 -5z m1478 -83 c28 2 42 -2 57 -18 17 -19 20 -19 20 -5
0 18 15 23 24 8 8 -13 -5 -71 -15 -71 -5 0 -9 9 -9 21 0 11 -5 17 -10 14 -6
-4 -10 -21 -10 -38 1 -18 0 -41 -2 -52 -2 -15 3 -21 21 -23 13 -2 28 2 33 10
5 8 6 3 2 -14 -6 -27 8 -39 21 -18 10 16 19 12 32 -16 19 -42 9 -47 -86 -39
-47 4 -139 7 -203 7 -68 -1 -118 3 -118 9 0 5 9 9 19 9 47 0 49 6 44 109 -4
93 -3 98 18 107 12 6 45 7 73 4 28 -4 68 -6 89 -4z m1297 -195 c5 -11 10 -44
10 -73 l0 -53 -65 -1 -65 -1 0 64 c0 50 4 65 16 70 11 4 22 -1 30 -12 12 -16
14 -16 14 -3 0 30 45 37 60 9z m-2667 -78 c-23 -4 -33 -23 -12 -23 5 0 7 -4 4
-10 -3 -5 1 -10 9 -10 24 0 21 -52 -4 -68 -11 -7 -20 -19 -20 -27 0 -9 -10
-19 -22 -24 -19 -7 -13 -10 37 -20 85 -17 90 -22 15 -16 -169 14 -471 5 -527
-16 -22 -8 -103 -152 -103 -182 0 -15 221 -26 554 -28 162 -1 278 -16 146 -18
-64 -2 -64 -2 -37 -17 15 -8 27 -21 27 -29 0 -8 5 -15 12 -15 16 0 98 -81 98
-96 0 -7 -5 -15 -10 -17 -6 -3 -5 -4 2 -3 7 1 18 -7 24 -18 6 -12 16 -20 23
-18 6 1 14 -6 18 -15 4 -10 11 -21 17 -25 7 -5 7 -8 -2 -8 -7 0 -10 -5 -7 -10
4 -6 10 -8 15 -5 4 3 6 -3 3 -13 -3 -12 4 -22 21 -30 28 -12 28 -14 30 -125 0
-37 6 -71 12 -75 5 -4 18 -44 29 -89 22 -101 17 -283 -9 -309 -18 -17 -21 -54
-5 -54 5 0 15 14 20 30 13 35 44 41 52 10 4 -14 0 -20 -11 -20 -10 0 -13 -3
-7 -8 12 -8 13 -72 3 -88 -9 -13 -57 -24 -62 -15 -7 11 -66 12 -66 2 0 -5 6
-12 13 -14 6 -3 -28 -6 -76 -6 -64 -1 -86 2 -81 11 4 6 3 8 -3 5 -6 -4 -23 -3
-39 2 -16 4 -38 5 -50 1 -13 -5 -36 -1 -63 12 -25 11 -56 18 -74 15 -16 -2
-48 2 -70 10 -47 16 -79 11 -107 -17 -17 -17 -20 -18 -20 -4 0 14 -8 16 -47
10 -52 -6 -98 -47 -87 -76 4 -11 2 -12 -6 -4 -9 9 -9 17 -1 33 12 21 4 28 -24
21 -5 -2 -19 -2 -30 -2 -24 1 -52 -23 -73 -63 -9 -18 -17 -25 -20 -17 -2 7 2
21 10 30 25 29 33 46 17 37 -16 -10 -161 -7 -169 3 -3 4 -21 8 -40 10 -19 2
-38 7 -42 10 -8 9 -14 123 -8 137 3 6 3 70 0 143 -3 74 -1 141 4 149 4 8 12
61 16 117 8 115 34 209 85 310 38 75 93 146 113 146 7 0 12 6 12 13 0 7 19 20
43 29 l42 17 -32 2 c-18 1 -37 3 -43 4 -5 1 -21 3 -35 4 -14 0 -25 7 -25 15 0
21 89 189 107 203 8 6 34 14 56 18 72 11 72 11 75 62 1 27 4 62 6 78 1 17 -1
36 -7 43 -7 9 36 12 209 11 121 -1 209 -4 197 -6z m-43 -219 c84 -11 104 -25
124 -86 3 -10 -1 -18 -12 -21 -12 -3 -10 -5 6 -6 15 -1 26 -9 29 -21 3 -11 12
-20 19 -20 20 0 17 -15 -3 -18 -56 -8 -420 -13 -541 -7 -127 6 -143 9 -138 24
5 12 2 11 -9 -3 -8 -11 -15 -17 -15 -13 0 14 44 102 54 109 6 4 7 10 4 14 -15
15 26 36 94 48 72 13 293 13 388 0z m3912 -311 c-7 -82 -17 -166 -22 -188 -5
-22 -10 -64 -10 -94 0 -44 -3 -52 -16 -47 -8 3 -12 2 -9 -4 3 -6 12 -10 20
-10 27 0 26 -21 -1 -43 -16 -12 -32 -21 -36 -20 -4 2 -5 -4 -2 -12 4 -8 2 -15
-4 -15 -5 0 -13 8 -16 17 -5 12 -10 13 -17 6 -14 -14 -2 -36 13 -27 8 5 9 1 3
-12 -51 -123 -53 -175 -10 -248 19 -33 40 -53 71 -67 48 -23 76 -49 53 -49 -8
0 -27 7 -43 15 -35 18 -65 19 -70 3 -7 -24 -37 -273 -41 -338 -2 -36 -7 -141
-11 -235 -4 -105 -11 -173 -18 -177 -6 -4 156 -8 359 -8 l370 -1 24 -50 c14
-27 46 -76 72 -108 26 -33 44 -62 41 -66 -4 -4 0 -5 8 -3 8 1 14 -3 12 -10 -1
-6 1 -11 6 -10 10 4 152 -113 152 -125 0 -4 -4 -5 -10 -2 -6 4 -7 -1 -3 -10 3
-10 0 -21 -8 -26 -10 -6 -11 -11 -3 -16 8 -5 9 -22 5 -48 l-8 -40 -10 35 -11
35 -1 -38 c-1 -21 -8 -45 -16 -53 -10 -11 -15 -36 -15 -85 0 -45 -4 -69 -11
-69 -8 0 -10 -19 -5 -62 6 -60 -16 -324 -28 -335 -3 -4 -1 -12 5 -19 8 -9 5
-11 -10 -7 -12 3 -21 1 -21 -6 0 -7 -20 -11 -49 -11 -51 0 -81 -7 -81 -19 0
-4 24 -4 53 0 28 4 63 7 77 7 l25 0 -25 -8 c-14 -4 -19 -8 -12 -9 28 -2 0 -19
-43 -25 -61 -10 -57 -23 5 -20 48 2 50 1 49 -25 l-1 -26 -7 25 c-6 21 -9 15
-15 -30 -6 -40 -10 -50 -15 -35 -7 17 -9 16 -16 -10 l-8 -30 -7 25 c-6 17 -8
19 -9 7 -1 -10 -5 -15 -11 -12 -5 3 -10 -1 -10 -9 0 -9 9 -16 21 -16 11 0 17
-4 14 -10 -3 -5 -15 -10 -26 -10 -10 0 -19 -5 -19 -11 0 -5 5 -7 12 -3 7 5 9
2 5 -9 -3 -9 -1 -18 6 -21 7 -4 0 -4 -15 -2 -16 2 -28 -1 -28 -5 0 -5 26 -10
58 -10 l57 -2 -70 -9 c-93 -11 -791 -15 -980 -5 -148 8 -278 28 -259 39 5 3
30 3 57 -2 26 -4 47 -3 47 2 0 4 -9 8 -21 8 -15 0 -19 5 -15 15 3 8 0 15 -6
15 -6 0 -8 3 -5 7 4 3 2 12 -4 20 -9 10 -8 13 2 13 10 1 8 4 -3 11 -10 5 -18
18 -19 27 0 9 -5 4 -10 -13 -5 -19 -5 -31 1 -33 6 -2 8 -7 5 -12 -3 -5 2 -16
11 -25 18 -18 13 -30 -10 -22 -8 3 -18 26 -21 51 -5 29 -12 46 -21 46 -8 0
-14 7 -14 16 0 8 5 12 10 9 6 -3 10 0 10 8 0 11 13 13 57 11 l56 -3 -41 21
c-23 11 -42 24 -42 29 0 5 19 10 43 10 23 1 33 4 22 6 -27 7 -65 33 -65 45 0
6 11 7 26 4 19 -5 25 -3 21 6 -2 7 -12 12 -21 12 -11 -1 -16 7 -17 30 l-1 31
-12 -35 c-12 -32 -13 -25 -14 80 -3 305 -8 470 -14 470 -5 0 -8 -7 -8 -15 0
-8 -5 -15 -11 -15 -5 0 -7 4 -4 10 3 5 6 33 7 61 0 34 3 47 9 38 7 -12 9 -11
9 2 0 8 -5 20 -10 25 -6 6 -12 41 -14 79 -3 47 -1 64 6 54 7 -10 8 -7 2 11 -9
34 -10 81 0 105 7 17 6 17 -4 5 -9 -12 -10 -4 -6 35 3 28 8 61 12 75 5 20 4
22 -6 10 -9 -12 -10 -10 -8 10 2 16 9 24 18 22 11 -2 11 1 -2 11 -10 8 -18 18
-18 24 0 5 77 8 193 7 105 -1 168 0 140 3 -29 2 -53 8 -53 14 0 5 5 9 10 9 19
0 10 17 -15 28 -14 6 -25 18 -25 27 0 8 -7 15 -16 15 -12 0 -15 6 -10 23 4 12
9 36 12 52 4 23 3 27 -5 15 -9 -13 -11 -12 -11 5 0 11 3 30 6 43 5 18 9 20 20
11 11 -9 14 -6 13 17 0 23 -2 25 -8 11 -9 -23 -23 -24 -31 -2 -6 18 -13 -64
-13 -155 0 -48 -1 -52 -10 -26 -19 56 18 341 73 561 36 142 46 169 61 159 8
-5 9 -2 2 11 -14 24 6 77 26 70 11 -4 11 -3 2 9 -9 11 -8 23 5 53 9 21 16 48
15 60 0 12 4 25 9 28 6 3 10 21 11 38 0 30 1 31 10 9 5 -15 5 -30 -1 -42 -6
-10 -10 -25 -9 -32 0 -7 5 -1 11 15 5 15 13 25 18 22 4 -2 6 21 5 53 -2 40 -1
49 5 32 8 -24 8 -24 9 6 1 17 8 37 16 44 12 10 13 16 4 27 -9 11 -9 12 3 8 12
-5 14 0 11 19 -3 16 2 35 16 52 22 28 28 54 12 54 -5 0 -11 -10 -13 -22 -2
-12 -10 -24 -18 -26 -12 -4 -13 -3 -2 10 7 9 14 29 15 46 1 16 5 28 8 26 3 -2
15 4 25 12 10 9 13 13 7 9 -9 -4 -13 2 -13 17 0 17 3 19 9 9 7 -10 12 -8 24 9
l15 22 4 -23 c3 -17 7 -10 12 24 8 46 19 59 30 35 3 -7 4 19 2 57 -3 49 -2 61
4 40 6 -22 8 -11 7 42 -1 46 1 69 7 63 6 -6 5 -64 -2 -157z m-2620 -46 c83 -2
151 0 157 6 5 5 16 5 25 0 9 -5 49 -5 96 1 44 5 83 6 87 3 11 -12 -28 -45 -47
-40 -18 5 -28 -1 -72 -40 -18 -17 -36 -18 -186 -16 -145 3 -275 14 -205 18 16
1 21 6 16 17 -3 8 -11 13 -19 10 -7 -3 -26 0 -42 6 -25 10 -28 14 -19 29 7 12
20 16 36 13 15 -2 92 -5 173 -7z m1395 -178 c42 -20 56 -39 30 -39 -7 0 -18
-9 -24 -19 -7 -11 -25 -21 -40 -23 -26 -3 -28 -6 -31 -57 -2 -36 1 -58 11 -70
8 -9 18 -27 22 -41 4 -14 13 -29 19 -33 6 -5 0 -5 -13 -2 -16 5 -21 4 -17 -4
4 -6 -2 -24 -14 -40 -12 -18 -16 -32 -10 -36 5 -3 10 1 10 9 0 9 6 13 14 10
11 -4 13 0 9 15 -4 17 -2 20 11 15 9 -3 16 -10 16 -16 0 -5 15 -6 34 -3 34 7
51 -9 40 -38 -2 -7 7 -26 21 -43 l26 -29 -1 40 c-1 22 -1 45 0 50 1 6 2 14 1
18 -1 5 4 7 11 5 7 -3 14 -22 14 -44 2 -61 3 -64 19 -64 23 0 18 -17 -7 -24
-35 -9 -43 -7 -65 14 -19 17 -22 17 -27 3 -4 -9 -3 -19 1 -22 4 -3 9 -38 9
-78 1 -65 0 -71 -16 -63 -12 6 -15 18 -12 40 2 18 -2 43 -9 57 -11 21 -11 27
-1 30 6 3 12 16 12 29 0 13 -6 24 -12 25 -10 0 -10 2 0 6 15 6 16 52 1 73 -8
11 -9 7 -5 -17 5 -31 -7 -53 -18 -34 -4 5 -1 11 5 13 7 2 5 9 -5 17 -14 12
-16 9 -16 -22 0 -27 5 -37 20 -42 11 -3 20 -9 20 -13 -1 -14 -29 -56 -30 -44
0 7 -4 11 -8 8 -11 -7 -2 -76 10 -76 5 0 8 6 6 14 -2 8 2 15 7 15 6 1 10 -12
10 -29 0 -17 -5 -30 -12 -30 -7 0 -13 -5 -13 -11 0 -5 4 -8 9 -5 5 3 12 -1 15
-10 5 -13 2 -15 -14 -11 -24 6 -25 1 -5 -37 9 -16 13 -31 10 -34 -3 -3 -5 0
-5 6 0 7 -8 12 -17 12 -11 0 -14 -3 -8 -8 6 -4 11 -38 10 -75 0 -65 -1 -68
-22 -64 -28 5 -31 -13 -3 -20 18 -5 20 -14 21 -77 1 -39 2 -86 4 -103 2 -23
-2 -33 -12 -33 -8 0 -11 -5 -8 -10 4 -7 13 -7 26 0 14 8 19 7 19 -1 0 -7 3
-10 6 -6 3 3 2 12 -2 19 -11 16 -13 78 -3 78 14 0 19 -18 7 -23 -7 -2 2 -4 19
-3 18 1 41 10 50 20 10 10 12 15 4 11 -8 -4 -17 -2 -23 6 -7 10 -7 7 -3 -8 8
-28 1 -29 -29 -5 -18 14 -21 21 -12 35 8 12 8 22 0 34 -14 23 -7 43 14 43 13
0 13 2 -3 13 -19 15 -13 37 11 37 11 0 14 -15 14 -61 0 -54 2 -59 15 -45 16
15 21 31 8 23 -5 -3 -9 9 -10 26 0 18 1 25 4 17 10 -25 43 -41 43 -20 0 6 -6
10 -13 10 -8 0 -19 11 -25 25 -15 32 -15 35 -1 35 5 0 7 -4 4 -10 -7 -11 8
-14 18 -3 9 8 -13 34 -23 28 -11 -7 -6 58 6 76 5 8 10 25 12 38 2 19 0 22 -15
17 -12 -5 -15 -4 -8 3 6 6 21 8 34 4 19 -5 22 -11 18 -36 -3 -23 2 -36 17 -50
12 -10 15 -16 9 -12 -8 3 -13 0 -13 -9 0 -8 -6 -16 -12 -19 -7 -2 -10 -8 -6
-12 4 -4 15 -2 24 6 16 13 16 12 5 -8 -6 -13 -15 -23 -20 -23 -5 0 -5 -18 -1
-40 4 -22 5 -42 1 -44 -12 -8 -4 -71 9 -68 6 1 8 -2 5 -8 -4 -6 1 -20 10 -30
10 -11 12 -20 6 -24 -5 -4 -13 3 -16 15 -4 11 -9 18 -12 15 -4 -3 -13 0 -22 6
-11 9 -10 5 2 -9 11 -12 16 -27 11 -34 -4 -7 -3 -10 2 -6 5 3 9 -16 9 -43 0
-30 -4 -46 -10 -42 -5 3 -4 -1 2 -10 7 -8 10 -18 6 -22 -4 -4 -6 -23 -4 -42 3
-41 -7 -43 -45 -8 -33 31 -42 19 -20 -25 23 -44 20 -53 -9 -27 -14 13 -25 31
-25 41 0 11 -5 15 -14 12 -10 -4 -13 -1 -9 9 3 7 10 14 15 14 6 0 5 7 -2 15
-7 9 -10 18 -7 22 8 8 -11 43 -23 43 -6 0 -10 -9 -10 -20 0 -11 5 -20 11 -20
5 0 8 -4 4 -10 -3 -5 -13 -7 -23 -4 -16 5 -16 5 0 -6 10 -6 15 -17 11 -27 -4
-9 1 -21 12 -29 17 -13 17 -14 2 -14 -9 0 -17 -4 -17 -10 0 -5 9 -10 20 -10
13 0 18 -5 14 -15 -4 -8 -10 -12 -15 -9 -12 7 -49 -5 -49 -15 0 -5 13 -7 29
-5 24 3 31 -1 39 -24 10 -25 10 -24 11 16 1 49 24 55 29 9 2 -15 8 -27 13 -27
5 0 9 -4 9 -10 0 -5 -6 -10 -14 -10 -10 0 -12 -14 -8 -65 3 -45 1 -65 -7 -65
-6 0 -14 7 -17 15 -4 8 -12 15 -20 15 -8 0 -14 7 -14 16 0 10 6 14 15 10 24
-9 19 36 -6 58 -16 13 -18 20 -9 26 8 5 9 10 2 14 -14 8 -24 -8 -16 -28 3 -9
1 -16 -6 -16 -6 0 -8 -5 -5 -10 4 -6 14 -9 22 -8 9 2 18 -3 20 -9 3 -8 -4 -13
-16 -13 -16 0 -20 -6 -19 -25 1 -13 4 -22 6 -20 8 8 32 -24 32 -42 0 -14 2
-15 9 -4 21 33 31 -3 28 -110 -1 -69 2 -108 8 -106 6 2 9 33 8 70 -1 51 2 67
12 67 26 0 26 21 1 51 -30 35 -35 60 -8 37 9 -8 25 -18 34 -21 14 -5 16 -19
14 -88 -1 -56 2 -86 11 -95 10 -10 10 -14 0 -18 -9 -5 -9 -7 1 -12 6 -3 9 -11
5 -17 -4 -6 -9 -27 -12 -46 -4 -19 -12 -36 -19 -39 -9 -3 -13 3 -10 18 2 13
-2 25 -8 27 -6 2 -10 -16 -9 -47 1 -27 -3 -50 -8 -50 -5 0 -6 12 -2 27 6 24 5
25 -11 12 -13 -11 -18 -11 -21 -1 -7 18 -23 15 -23 -5 0 -9 -3 -13 -7 -10 -10
11 -33 -14 -33 -35 0 -15 -4 -18 -22 -12 -13 3 -24 11 -26 15 -2 5 -10 9 -18
9 -17 0 -19 16 -2 26 6 4 8 3 5 -2 -3 -6 3 -11 14 -11 17 -2 18 0 4 13 -24 25
-17 27 13 5 28 -20 29 -20 45 -1 9 11 14 27 11 35 -5 11 -2 13 10 9 20 -8 21
3 2 22 -23 23 -36 16 -34 -17 3 -37 -10 -45 -37 -24 -16 12 -17 16 -6 24 9 6
10 11 2 15 -6 4 -11 2 -11 -4 0 -6 -5 -8 -12 -4 -18 11 21 34 59 34 18 0 33 5
33 10 0 6 -13 10 -30 10 -29 0 -30 2 -30 43 -1 37 -17 77 -33 77 -2 0 0 -19 6
-41 7 -31 7 -47 -1 -60 -16 -25 -15 -34 2 -20 9 8 16 8 20 2 8 -12 -4 -19 -28
-15 -16 2 -18 -2 -13 -32 3 -20 0 -45 -9 -63 -15 -30 -16 -91 -2 -91 4 0 8 5
8 12 0 6 3 9 6 5 11 -10 -30 -54 -46 -49 -12 4 -11 1 3 -15 24 -28 22 -46 -5
-38 l-23 6 23 -20 c26 -23 32 -52 5 -30 -15 13 -15 12 0 -18 11 -21 13 -34 6
-38 -7 -5 -6 -12 2 -22 10 -12 10 -16 -1 -23 -10 -6 -11 -12 -3 -22 6 -7 11
-32 10 -55 0 -49 -15 -56 -46 -22 -24 26 -17 52 13 44 20 -6 20 -6 2 9 -10 8
-24 17 -30 19 -6 2 -8 8 -4 12 4 4 14 2 23 -5 22 -18 19 4 -3 23 -10 10 -22
14 -27 10 -4 -5 -5 -2 -1 5 4 6 14 12 22 12 18 0 18 9 -3 32 -12 13 -13 22 -6
29 7 7 8 24 3 46 -8 34 -8 35 18 30 l27 -5 -23 18 c-26 21 -28 36 -7 44 8 3
15 1 15 -4 0 -6 7 -10 16 -10 9 0 14 3 12 8 -2 4 -12 24 -21 45 -21 45 -31 48
-25 7 4 -24 1 -30 -9 -25 -8 3 -19 5 -24 5 -4 0 -6 7 -3 15 4 9 0 15 -7 16 -8
0 -4 4 8 9 16 7 21 14 16 27 -6 17 -49 76 -84 115 -25 29 -45 96 -31 110 17
17 40 2 70 -46 15 -25 32 -44 37 -42 6 2 19 -1 30 -6 12 -6 9 0 -9 15 -16 14
-26 30 -22 35 4 6 -4 16 -16 23 -13 6 -31 19 -41 27 -29 26 2 34 40 11 18 -12
33 -17 33 -12 0 4 -21 21 -46 37 -29 18 -42 32 -36 38 6 6 17 6 30 -1 18 -9
22 -7 30 17 6 15 11 20 11 12 0 -8 -4 -22 -9 -30 -11 -17 14 -50 38 -50 13 0
13 2 0 18 -10 10 -16 37 -17 67 0 39 -5 54 -22 68 -12 10 -19 20 -16 23 3 4
13 -1 22 -10 9 -9 26 -21 38 -27 22 -12 22 -12 0 13 -13 13 -23 33 -23 44 0
16 2 17 11 4 9 -12 10 -11 6 8 -3 13 0 22 6 22 7 0 -3 8 -21 17 -19 9 -36 22
-39 30 -7 18 15 43 33 36 29 -11 12 15 -30 45 -55 40 -73 41 -27 2 33 -28 33
-29 16 -52 -11 -14 -15 -16 -12 -6 4 10 0 21 -7 25 -40 23 -86 133 -56 133 14
0 12 28 -2 33 -10 3 -10 7 -1 18 7 9 12 54 13 114 2 152 2 149 -14 136 -12
-10 -13 -9 -9 8 6 24 31 17 43 -13 8 -20 9 -20 9 -1 1 11 -8 26 -20 33 -12 7
-18 16 -15 19 3 3 12 0 21 -7 8 -7 15 -8 15 -2 0 5 -11 17 -25 26 -30 20 -33
40 -5 31 15 -5 18 -3 14 9 -3 9 -10 13 -15 10 -5 -3 -9 5 -9 18 0 19 2 20 11
8 8 -11 8 -9 2 10 -9 29 -10 87 -2 182 3 37 2 72 -2 80 -4 7 -3 18 3 25 5 7 7
21 4 30 -7 17 -6 17 11 0 15 -15 16 -19 3 -27 -8 -5 -12 -12 -8 -15 3 -3 13 1
22 10 15 15 18 15 39 -2 26 -21 29 -77 5 -96 -9 -7 -19 -23 -22 -37 -6 -23 -5
-22 10 4 l16 29 14 -31 c18 -43 23 -40 19 8 -4 42 2 48 25 28 7 -7 2 2 -12 19
-15 18 -24 40 -22 50 3 13 -9 27 -40 48 -50 33 -63 53 -42 61 17 6 50 -9 86
-40 14 -11 19 -14 13 -6 -18 20 -16 37 4 44 11 5 22 1 30 -10 14 -19 17 -15 7
10 -7 19 -27 20 -53 4 -15 -9 -22 -8 -36 5 -15 15 -15 18 -1 23 23 9 20 27 -4
21 -11 -3 -23 -1 -26 4 -3 5 0 8 7 7 18 -4 20 15 4 36 -11 15 -21 17 -49 12
-20 -4 -36 -11 -36 -16 0 -4 -9 -6 -20 -3 -14 4 -20 0 -20 -11 0 -9 -6 -16
-13 -16 -8 0 -19 -10 -26 -22 -11 -21 -11 -21 -7 9 3 18 1 46 -5 62 -9 27 -7
37 17 78 42 73 83 106 155 125 122 33 169 35 226 7z m2036 4 c-32 -3 -41 -8
-36 -19 3 -8 -1 -14 -11 -14 -8 0 -17 -10 -20 -22 -33 -181 -51 -268 -55 -268
-9 0 -29 50 -37 88 -6 30 27 161 47 188 5 6 5 14 1 18 -17 17 34 36 92 34 49
-1 53 -2 19 -5z m-3065 -48 c17 -17 -43 -20 -331 -18 -360 2 -649 14 -557 23
65 7 881 2 888 -5z m-265 -296 c44 -20 60 -63 54 -145 -3 -44 -13 -86 -24
-104 -17 -30 -30 -36 -83 -42 l-25 -3 -2 105 c-2 58 -4 126 -6 153 l-4 47 33
0 c18 0 44 -5 57 -11z m158 -93 c5 -17 9 -62 10 -102 2 -72 13 -114 23 -84 14
48 36 154 36 180 0 16 3 30 8 30 21 -1 33 -22 40 -76 4 -32 11 -58 16 -57 6 1
15 23 21 48 13 50 19 60 33 51 5 -3 -3 -43 -19 -93 -16 -48 -29 -96 -29 -106
0 -12 -6 -17 -17 -15 -14 2 -21 19 -28 68 -12 73 -19 70 -30 -8 -5 -41 -10
-52 -22 -48 -8 3 -27 6 -43 6 -25 0 -29 4 -32 32 -4 45 -36 51 -44 9 -4 -17
-13 -31 -20 -31 -18 0 -19 -5 17 108 17 53 33 103 35 110 7 23 37 8 45 -22z
m-346 -33 c-24 -49 -24 -68 1 -59 8 3 23 -15 41 -52 15 -31 29 -60 31 -64 2
-5 -10 -8 -26 -8 -27 0 -32 5 -48 50 -10 28 -22 50 -26 50 -11 0 -10 -12 7
-60 8 -23 15 -44 15 -45 0 -8 -51 -11 -56 -3 -3 4 -14 -2 -24 -14 -15 -19 -21
-21 -43 -11 -37 17 -79 85 -84 137 -4 35 -1 48 16 65 23 23 56 28 66 10 11
-17 -3 -23 -21 -9 -26 22 -34 -6 -17 -59 33 -105 45 -131 60 -131 12 0 14 8
10 38 l-6 37 20 -24 c24 -29 33 -23 19 14 -10 26 -26 89 -36 143 -2 12 0 22 5
22 5 0 16 3 25 6 12 5 16 -1 16 -24 0 -17 4 -33 9 -36 9 -6 31 36 31 59 0 13
20 25 31 19 4 -2 -4 -25 -16 -51z m606 -4 c14 -7 17 -14 11 -22 -16 -21 -67
-176 -60 -183 13 -12 26 7 64 95 42 97 46 100 102 65 23 -15 30 -34 12 -34 -5
0 -10 4 -10 9 0 5 -6 11 -14 14 -8 3 -20 -8 -30 -30 -17 -35 -17 -35 4 -30 18
4 20 2 14 -16 -9 -30 -24 -45 -24 -24 0 30 -19 18 -40 -24 -20 -43 -18 -64 6
-55 8 3 14 -1 14 -9 0 -20 -8 -19 -61 7 -24 12 -50 23 -57 24 -39 7 -43 12
-29 41 8 16 25 63 38 105 13 43 28 78 32 78 5 0 17 -5 28 -11z m-930 -211 c10
-21 19 -49 19 -63 0 -30 -41 -75 -68 -75 -32 0 -72 38 -72 70 0 34 20 53 40
39 11 -8 12 -12 3 -16 -20 -7 -15 -38 8 -59 15 -14 24 -16 37 -8 29 18 25 43
-15 105 -21 33 -52 82 -69 109 l-32 49 21 14 c20 13 24 10 65 -57 24 -39 53
-88 63 -108z m90 85 c34 -43 67 -81 73 -85 6 -4 8 -8 6 -10 -21 -14 -52 -29
-53 -26 -27 55 -52 59 -52 8 0 -35 -16 -58 -20 -30 -2 8 -14 58 -28 110 -14
52 -23 98 -21 102 13 21 39 2 95 -69z m1032 43 c18 -14 22 -32 9 -38 -15 -6
-92 -150 -86 -160 3 -5 15 -8 25 -5 11 3 19 0 19 -6 0 -18 31 -46 46 -40 10 4
14 24 14 74 0 102 35 145 82 102 19 -17 25 -53 8 -53 -5 0 -10 9 -10 19 0 25
-20 38 -31 20 -5 -8 -9 -42 -9 -75 0 -92 -44 -140 -88 -96 -9 9 -38 30 -64 45
l-47 27 50 84 c27 46 49 91 49 100 0 19 9 20 33 2z m2932 -227 c3 -3 8 -45 14
-111 1 -5 8 -8 16 -8 8 0 15 -4 15 -10 0 -5 -9 -10 -20 -10 -23 0 -23 1 -20
-155 2 -127 -5 -144 -66 -152 -94 -12 -138 62 -132 222 l3 80 -40 12 c-36 12
-37 12 -7 8 27 -4 35 -1 39 14 3 12 11 17 19 14 11 -4 14 6 14 45 0 48 1 50
25 47 14 -1 28 1 30 5 4 7 103 6 110 -1z m-3676 -18 c10 -6 4 -12 -21 -20 -20
-6 -57 -32 -84 -56 -52 -48 -68 -53 -98 -30 -11 8 -30 15 -43 15 -32 0 -31
-43 2 -76 28 -28 33 -46 10 -38 -8 4 -15 2 -15 -4 0 -16 40 -62 55 -62 7 0 19
-7 26 -16 12 -15 11 -16 -11 -9 l-25 7 23 -24 c16 -17 30 -24 46 -21 13 3 27
0 30 -6 4 -6 0 -11 -9 -11 -9 0 -15 -6 -12 -12 3 -8 19 -12 46 -10 38 2 56
-11 29 -21 -9 -3 -7 -10 7 -21 11 -8 15 -16 9 -16 -5 0 -19 8 -30 18 -10 9
-32 22 -49 28 -19 6 -29 16 -29 27 1 9 -2 15 -6 12 -10 -6 -60 33 -60 47 0 6
-14 26 -31 45 -21 25 -27 39 -20 46 7 7 4 21 -10 44 -42 67 1 110 77 78 38
-16 64 -14 64 4 0 5 -9 13 -20 16 -11 3 -20 13 -20 21 0 11 4 12 19 4 29 -15
61 -12 61 5 0 8 -5 15 -11 15 -5 0 -7 4 -4 10 4 6 14 5 27 -3 17 -10 22 -9 32
6 12 19 24 21 45 8z m242 -9 c122 -34 186 -87 203 -168 14 -65 -47 -148 -138
-190 -68 -31 -188 -35 -269 -8 -127 41 -199 155 -153 242 29 56 87 95 186 126
62 19 95 19 171 -2z m-1076 -20 c-13 -5 -20 -16 -21 -34 -1 -16 2 -28 6 -28 3
0 1 -33 -6 -73 -8 -47 -10 -94 -5 -131 6 -45 5 -59 -6 -63 -7 -3 -13 -9 -13
-14 0 -4 6 -6 14 -3 8 3 17 1 21 -5 3 -6 -1 -11 -10 -11 -8 0 -18 -7 -21 -15
-4 -8 -12 -15 -20 -15 -8 0 -14 -3 -14 -7 -1 -5 -3 -38 -6 -75 -3 -40 -1 -69
6 -73 5 -3 10 -11 10 -16 0 -6 -4 -7 -10 -4 -5 3 -10 2 -10 -4 0 -5 16 -8 38
-5 34 4 35 4 12 -7 -15 -7 -20 -13 -12 -16 22 -8 13 -25 -10 -18 -22 7 -22 6
-4 -7 15 -12 17 -23 13 -63 -4 -26 -8 -50 -11 -52 -3 -3 -1 -15 4 -28 6 -16 2
-36 -15 -74 -14 -28 -24 -54 -24 -56 -1 -3 -7 -18 -16 -35 -21 -40 -19 -60 6
-60 12 0 19 -5 16 -12 -2 -7 -14 -12 -26 -11 -14 2 -20 -1 -15 -8 4 -8 41 -9
118 -5 284 15 691 4 779 -22 31 -9 57 -23 57 -29 0 -7 -6 -12 -12 -10 -17 3
-21 -119 -5 -152 9 -19 9 -25 0 -28 -10 -4 -13 -45 -13 -162 0 -178 9 -161
-91 -161 -30 0 -71 -5 -90 -11 -47 -14 -229 -39 -244 -32 -16 6 -28 33 -15 33
5 0 3 19 -5 41 -19 52 -19 52 5 44 15 -5 18 -3 14 9 -3 9 -1 16 5 16 6 0 11
-4 11 -9 0 -16 54 -31 150 -41 52 -5 101 -10 109 -10 11 0 9 -4 -5 -15 -17
-14 -12 -15 59 -14 l77 2 0 63 c0 57 -2 64 -20 64 -22 0 -25 8 -10 30 9 13 11
13 20 0 7 -10 9 24 8 110 l-3 125 -32 -3 c-29 -2 -33 1 -33 23 0 18 5 25 19
25 11 0 23 -4 26 -10 12 -20 25 -9 25 21 0 24 -3 30 -16 25 -9 -3 -100 -6
-203 -6 l-188 0 -16 -60 c-21 -75 -22 -94 -2 -86 17 6 20 -9 4 -20 -11 -6 -8
-93 6 -169 3 -16 -3 -6 -14 24 -23 65 -29 190 -12 249 6 23 9 46 7 51 -7 11
-171 9 -182 -2 -4 -4 2 -16 14 -28 40 -37 51 -63 56 -143 6 -75 -2 -106 -25
-106 -11 0 -23 40 -21 70 1 22 0 21 -14 -9 -19 -41 -15 -65 11 -69 11 -2 35
-18 54 -35 32 -31 34 -31 28 -8 -12 48 14 4 29 -50 9 -30 18 -62 21 -71 4 -13
0 -18 -15 -18 -12 0 -37 -9 -57 -21 -33 -20 -48 -21 -233 -20 -108 1 -233 7
-276 14 -74 12 -77 13 -52 25 25 11 26 13 13 44 -8 18 -12 38 -10 45 2 7 -1
22 -7 33 -11 20 -13 20 -29 6 -13 -12 -20 -13 -29 -4 -7 7 -12 17 -12 23 0 6
-9 11 -19 12 -17 1 -18 -2 -9 -30 5 -18 12 -39 14 -47 2 -8 0 -21 -5 -29 -8
-12 -11 -12 -23 0 -18 18 -29 57 -17 64 4 3 6 12 3 19 -3 8 4 20 15 28 14 10
17 18 10 28 -7 13 -9 12 -9 -2 0 -10 -4 -18 -9 -18 -18 0 -22 19 -9 42 7 13
13 28 13 33 1 6 6 9 13 7 12 -2 37 46 28 55 -7 7 -46 -17 -46 -28 0 -6 -4 -8
-9 -5 -5 3 -9 43 -9 89 0 46 -2 90 -4 98 -2 11 13 15 67 20 57 4 62 6 25 8
-55 3 -92 16 -70 25 8 3 35 7 60 9 29 2 17 4 -31 5 -72 2 -77 1 -83 -20 -3
-13 -1 -27 4 -32 6 -6 10 -28 10 -49 0 -33 -3 -38 -17 -33 -17 6 -17 5 -1 -8
15 -11 18 -33 21 -126 3 -94 1 -109 -10 -94 -7 10 -16 15 -19 11 -4 -3 -15 -2
-26 4 -14 7 -23 7 -34 -2 -8 -6 -14 -8 -14 -4 0 4 -6 3 -12 -2 -7 -5 -29 -10
-50 -12 -33 -1 -37 1 -43 27 -3 16 -23 45 -43 65 -69 67 -250 100 -319 57 -18
-11 -33 -24 -33 -28 0 -5 -11 -15 -25 -22 -22 -12 -27 -11 -39 5 -7 10 -12 31
-10 47 2 15 0 28 -5 28 -4 0 -8 7 -8 15 0 8 4 12 9 9 16 -10 8 9 -18 39 -16
19 -24 40 -22 56 1 14 -1 32 -6 39 -4 7 -10 39 -12 70 -2 31 -6 95 -9 142 -10
143 -11 180 -4 192 4 6 3 24 -2 41 -10 35 -3 49 12 27 8 -12 10 -10 6 8 -6 26
-4 27 17 6 18 -17 40 -13 72 15 20 16 22 29 25 149 l4 132 -35 10 c-51 14 -56
13 -85 -22 -27 -32 -28 -73 -2 -90 25 -16 53 3 42 28 -5 13 -9 15 -12 7 -8
-22 -20 -14 -20 12 0 25 11 30 41 19 13 -5 16 -25 16 -117 0 -86 -3 -108 -12
-99 -16 16 -50 15 -67 0 -11 -11 -11 -9 -2 10 7 12 9 27 6 32 -3 6 -3 16 2 23
4 6 8 17 9 22 1 6 4 17 6 25 3 8 3 12 1 8 -3 -5 -9 -8 -14 -8 -6 0 -7 4 -4 10
3 5 -1 20 -9 32 -20 28 -20 58 0 86 8 12 12 22 8 22 -3 0 -1 7 6 15 10 12 9
15 -6 16 -14 0 -11 4 11 14 17 8 23 14 14 15 -23 0 -26 105 -4 131 10 11 17
36 18 63 l1 45 35 -2 c29 -2 36 -7 43 -32 5 -16 6 -38 4 -47 -2 -10 0 -18 5
-18 5 0 9 -7 9 -15 0 -8 5 -15 11 -15 5 0 8 -4 5 -8 -6 -11 28 -29 71 -37 36
-7 98 19 87 37 -4 7 -3 8 4 4 7 -4 12 -3 12 3 0 5 -5 13 -10 16 -14 9 -3 25
17 25 11 0 13 -3 5 -13 -7 -8 -6 -18 4 -31 8 -11 14 -15 14 -10 0 6 6 11 13
12 46 5 71 12 77 22 4 7 15 8 32 1 18 -7 35 -4 67 10 24 10 48 16 54 12 6 -4
32 -8 57 -10 128 -8 160 -12 181 -24 38 -20 80 -12 119 24 l35 32 -32 -35 -33
-36 33 -16 c44 -24 87 -33 87 -19 0 6 6 11 14 11 8 0 28 11 44 25 16 13 31 23
33 21 2 -3 4 18 4 45 0 27 -3 49 -6 49 -4 0 -9 6 -12 13 -3 9 13 12 62 14 36
0 57 -2 46 -5z m4746 -1031 c-10 -6 -10 -13 -3 -28 6 -11 9 -64 7 -123 -2 -58
-3 -354 -3 -658 -1 -342 -4 -552 -10 -552 -6 0 -9 109 -8 283 1 381 -5 745
-16 900 -10 135 -1 187 32 187 12 0 12 -2 1 -9z m-2447 -163 c-8 -12 14 -10
39 4 19 10 21 9 9 -4 -7 -9 -12 -33 -11 -55 1 -21 -2 -47 -6 -57 -5 -12 -5
-17 1 -13 6 3 9 -15 6 -48 -3 -46 -1 -55 17 -65 24 -12 45 -5 34 13 -4 6 -8
41 -10 77 -1 35 -7 66 -13 68 -5 2 -10 10 -10 18 0 9 5 12 10 9 6 -4 18 -1 26
6 8 6 17 9 21 5 3 -3 2 -6 -4 -6 -5 0 -8 -12 -6 -27 1 -16 4 -61 6 -100 2 -60
0 -73 -13 -74 -8 0 -3 -5 13 -11 28 -10 37 -28 13 -28 -19 0 -26 -21 -20 -59
5 -28 3 -30 -17 -22 -13 4 -25 13 -27 19 -2 8 3 10 14 5 14 -5 15 -3 6 12 -6
12 -7 28 -1 43 5 14 8 26 7 27 -11 10 -47 14 -52 6 -8 -12 -43 -2 -50 15 -3 7
-1 16 4 19 6 4 10 1 10 -4 0 -6 5 -11 10 -11 6 0 6 7 -1 19 -9 14 -9 26 0 51
9 26 8 35 -1 41 -7 4 -15 6 -18 4 -3 -2 -5 10 -6 27 -1 16 2 24 6 18 4 -7 10
-8 13 -4 7 13 -18 106 -26 98 -4 -4 -7 -3 -7 3 0 5 3 13 7 16 8 8 33 -25 27
-35z m-214 -254 c17 -15 40 -44 51 -66 11 -22 23 -38 26 -35 2 3 0 14 -6 25
-13 25 -14 32 -2 32 5 0 14 -13 21 -29 10 -26 9 -33 -12 -61 -17 -23 -29 -30
-45 -27 -33 6 -28 -2 7 -14 17 -6 30 -16 30 -21 0 -10 -16 -8 -55 8 -14 6 -9
-4 17 -36 28 -32 37 -51 36 -74 -1 -17 1 -40 5 -51 7 -23 -8 -54 -20 -41 -4 5
-3 11 4 13 19 7 -6 53 -29 53 -33 0 -77 29 -84 56 -14 56 30 53 80 -7 22 -25
26 -27 26 -11 0 26 -77 112 -100 112 -20 0 -50 25 -50 41 0 15 20 10 51 -12
36 -25 38 -11 3 22 -39 36 -61 70 -69 107 -9 44 10 41 25 -4 17 -49 90 -124
121 -123 l24 0 -25 10 c-14 6 -26 10 -28 9 -1 0 -14 13 -28 29 -29 35 -57 98
-49 111 11 18 43 10 75 -16z m-2572 -45 c-10 -6 -10 -9 0 -9 6 0 12 -9 12 -21
0 -11 -4 -18 -9 -14 -5 3 -12 1 -15 -4 -3 -5 1 -12 10 -15 8 -3 12 -10 9 -16
-11 -17 -24 -11 -31 15 -8 33 -23 32 -20 -2 2 -16 11 -29 24 -34 19 -7 21 -17
24 -151 3 -133 2 -144 -17 -162 l-20 -19 21 7 c20 6 21 3 27 -160 8 -197 7
-329 -2 -294 -6 26 -35 38 -46 20 -4 -7 2 -14 14 -17 33 -8 25 -20 -11 -16
-25 3 -30 2 -18 -6 8 -6 23 -11 33 -11 9 0 17 -5 17 -11 0 -13 -395 -4 -431
10 l-24 10 24 0 c29 1 17 19 -17 26 -36 7 -39 12 -46 78 -9 77 -12 82 -67 110
-49 25 -56 43 -59 152 -3 83 -4 81 37 80 23 -1 43 5 55 17 23 23 28 23 28 1 0
-14 2 -15 9 -5 4 8 11 13 15 13 23 -3 30 0 16 9 -13 8 -12 10 3 10 33 0 17 20
-23 26 -22 4 -40 10 -40 15 0 4 -10 9 -22 11 -12 2 -23 8 -25 14 -2 7 6 10 22
7 14 -3 25 -1 25 5 0 6 -10 8 -22 5 -19 -4 -20 -3 -8 6 18 13 9 14 -23 2 -20
-8 -23 -6 -22 12 2 29 17 31 59 7 47 -26 57 -25 163 5 126 36 156 64 174 160
5 22 14 64 21 93 l12 52 83 0 c72 0 83 2 84 18 1 15 2 15 6 -2 3 -10 -1 -22
-9 -27z m662 -159 c77 -1 92 -3 79 -13 -9 -7 -21 -22 -28 -34 -6 -13 -20 -23
-29 -23 -10 0 -31 -13 -46 -29 -15 -16 -45 -37 -66 -46 -22 -10 -37 -21 -35
-25 5 -8 -89 -110 -102 -110 -4 0 -29 -15 -56 -34 -39 -28 -45 -36 -33 -45 11
-9 17 -8 28 6 19 27 108 86 116 78 4 -4 -2 -13 -12 -21 -11 -7 -16 -17 -13
-21 11 -10 58 39 52 55 -2 7 0 10 5 7 6 -3 10 1 10 9 0 19 -11 20 -30 4 -12
-11 -12 -10 -1 5 7 9 20 17 27 17 8 0 19 9 26 20 7 11 17 20 22 20 4 0 3 -7
-4 -15 -26 -32 15 -15 59 24 39 34 148 100 137 82 -6 -9 77 -6 92 3 7 4 22 -2
34 -13 l22 -21 -22 0 c-12 0 -22 5 -22 10 0 6 -7 10 -16 10 -10 0 -14 -6 -11
-15 4 -8 3 -17 -2 -19 -4 -3 -6 -19 -3 -36 4 -31 -9 -39 -37 -21 -15 10 -91
-16 -91 -32 0 -5 7 -7 15 -3 8 3 18 -2 23 -11 8 -13 14 -14 47 -2 20 8 51 30
68 49 18 21 32 30 35 22 2 -6 12 -12 22 -12 10 0 22 -4 25 -10 3 -5 19 -10 35
-10 16 0 33 -7 38 -16 5 -8 20 -21 33 -27 13 -7 25 -23 27 -35 4 -25 6 -26 34
-11 17 9 19 8 16 -8 -2 -10 -9 -17 -15 -16 -6 1 -13 -7 -16 -17 -3 -11 -1 -20
4 -20 16 0 -2 -28 -22 -33 -13 -3 -19 -14 -19 -31 0 -14 -5 -26 -11 -26 -5 0
-8 -4 -5 -9 3 -5 -13 -26 -36 -46 l-41 -38 44 6 c32 4 39 3 26 -4 -9 -6 -15
-15 -11 -20 11 -18 -25 -61 -46 -54 -24 8 -36 -11 -12 -20 16 -6 16 -7 -1 -20
-10 -7 -14 -16 -9 -19 13 -8 2 -59 -17 -74 -14 -12 -14 -13 4 -7 11 4 26 9 33
12 8 3 12 -4 12 -22 0 -14 4 -24 9 -21 5 3 11 0 14 -8 9 -24 -115 -34 -453
-38 -102 -1 -143 -4 -92 -5 53 -2 92 -8 92 -14 0 -7 72 -8 213 -5 116 3 228 1
247 -4 26 -6 29 -8 11 -9 -16 -1 -21 -5 -17 -16 3 -8 1 -15 -5 -15 -6 0 -7 -4
-4 -10 3 -5 0 -10 -7 -10 -8 -1 -6 -6 6 -15 19 -14 19 -15 1 -15 -18 0 -18 0
0 -14 17 -12 12 -15 -51 -24 -38 -6 -123 -18 -189 -25 -116 -14 -117 -14 -50
-16 39 -1 81 -8 95 -16 25 -14 24 -14 -20 -16 -25 0 -56 -5 -70 -10 -29 -9
299 -1 400 10 99 12 118 1 84 -48 -14 -19 -22 -22 -53 -16 -20 3 -61 9 -91 12
-30 3 -60 9 -67 15 -8 6 -44 6 -105 -1 -240 -26 -595 -21 -663 10 -28 13 -24
14 75 19 58 4 92 7 75 9 -30 3 -30 3 -5 11 14 4 54 9 90 11 37 1 -3 5 -91 9
-86 5 -165 13 -175 19 -17 9 -17 10 6 11 14 1 19 4 13 7 -7 2 -13 18 -13 33 0
16 -4 32 -10 35 -13 8 -13 95 1 95 5 0 31 -5 56 -11 32 -8 47 -9 52 -1 3 6 22
12 41 14 32 3 29 5 -30 20 -51 12 -58 16 -35 18 l30 3 -35 7 c-31 7 -28 8 25
10 33 1 102 1 153 1 72 -1 93 2 90 11 -3 9 -33 13 -99 14 -52 1 -112 6 -134
12 -22 6 -67 14 -100 18 -33 4 -54 9 -47 11 18 7 15 21 -8 28 -18 6 -45 69
-35 85 2 4 7 54 10 111 11 198 12 258 1 264 -16 7 95 -1 124 -9 20 -6 22 -5 9
3 -9 6 -20 23 -23 38 -10 40 -30 83 -38 83 -5 0 -8 7 -8 15 0 8 -6 15 -14 15
-31 0 -8 35 27 43 21 5 37 13 37 17 0 5 73 6 163 4 89 -2 205 -4 257 -4z
m1105 -423 c11 -3 28 -6 38 -6 13 -1 17 -11 18 -43 l2 -43 7 35 7 35 10 -26
c6 -14 15 -48 19 -74 l7 -49 -25 27 -26 28 -26 -32 c-44 -52 -30 -62 22 -16
30 28 28 6 -3 -23 -14 -13 -25 -29 -25 -36 0 -8 -6 -11 -14 -8 -11 4 -17 -4
-21 -30 -4 -19 -4 -39 -1 -44 7 -11 -19 -24 -28 -15 -3 4 -6 27 -6 51 0 52 -8
53 -13 1 -2 -18 -13 -65 -24 -104 -20 -65 -36 -144 -34 -162 1 -5 13 -11 26
-15 20 -5 25 -3 25 13 0 10 6 19 14 19 8 0 16 6 19 13 2 6 8 9 12 5 4 -4 -2
-17 -14 -29 -28 -30 -27 -59 2 -60 22 0 22 0 -2 -12 -19 -9 -25 -9 -29 1 -2 6
-8 12 -13 12 -4 0 -6 -7 -3 -15 4 -8 1 -15 -5 -15 -6 0 -11 5 -11 11 0 5 -5 7
-11 3 -8 -4 -7 -9 2 -15 10 -6 11 -9 2 -9 -7 0 -13 -5 -13 -12 0 -9 3 -9 12 0
14 14 42 16 33 2 -3 -5 -2 -10 4 -10 5 0 14 6 18 14 4 7 25 16 47 20 33 6 38
5 33 -8 -4 -9 -4 -16 -1 -16 16 0 104 33 104 40 0 10 215 20 278 12 29 -4 53
-11 53 -17 0 -5 -31 -19 -70 -30 -68 -19 -92 -35 -53 -35 10 0 27 -7 38 -15
18 -14 18 -14 -5 -15 -13 0 -21 -3 -17 -7 30 -30 -294 -56 -377 -30 -40 13
-48 13 -43 2 9 -24 -74 -28 -273 -16 -229 15 -282 21 -255 31 11 4 45 7 77 6
31 -1 57 2 57 6 0 4 -11 8 -23 8 -25 0 -51 38 -38 58 11 18 60 25 77 11 10 -8
18 -9 22 -2 4 5 14 13 22 16 8 3 -11 6 -42 6 -32 1 -58 5 -58 10 0 6 8 10 18
10 9 0 45 0 79 1 34 0 65 5 68 11 5 7 12 6 21 -2 27 -22 28 2 1 27 -25 23 -27
23 -27 5 0 -30 -13 -33 -82 -20 -84 15 -91 20 -102 63 -7 32 -5 41 14 61 19
20 21 31 17 77 -5 61 -27 128 -42 128 -6 0 -16 9 -23 21 -11 17 -11 20 4 17
10 -2 20 6 25 20 9 24 3 26 -50 16 -17 -4 -31 -13 -31 -20 0 -7 6 -12 13 -10
6 1 9 1 5 -1 -5 -3 -8 -13 -8 -23 0 -37 -18 -29 -25 10 -5 31 -2 48 16 80 12
22 26 40 31 40 4 0 8 9 8 19 0 11 12 29 27 40 l26 21 22 -20 c29 -27 85 -38
85 -16 0 9 -8 16 -19 16 -10 0 -24 6 -30 14 -10 11 -8 15 6 19 23 7 421 1 448
-6z m1040 -237 c-26 -6 -27 -8 -11 -15 11 -5 33 -3 53 4 19 7 37 10 40 7 4 -3
-2 -6 -13 -6 -18 -1 -18 -1 1 -16 16 -12 17 -17 7 -23 -9 -5 2 -8 28 -8 42 0
70 -20 48 -34 -6 -4 -1 -10 13 -14 23 -7 39 -22 39 -37 0 -13 -28 -9 -73 10
-89 39 -192 66 -209 56 -7 -4 -49 -8 -94 -9 -52 -1 -88 -6 -98 -15 -9 -7 -19
-10 -22 -7 -3 3 5 11 17 18 33 17 46 32 41 47 -2 8 8 12 30 12 38 0 77 19 43
21 -49 3 31 14 108 15 52 1 71 -1 52 -6z m-75 -139 c0 -5 18 -12 40 -16 22 -4
38 -11 34 -16 -3 -5 -1 -9 5 -9 6 0 13 -15 17 -34 4 -26 10 -33 22 -30 13 4
12 3 -2 -6 -28 -19 -166 -27 -217 -14 l-44 12 35 1 c29 1 36 5 37 22 2 17 -1
19 -10 10 -18 -18 -25 -13 -23 21 1 22 7 34 19 36 9 2 17 7 17 12 0 8 22 15
58 19 6 0 12 -3 12 -8z"/>
<path d="M1450 4911 c-8 -6 -18 -7 -22 -5 -5 3 -38 -4 -73 -16 -53 -18 -68
-28 -81 -53 -9 -18 -22 -39 -29 -47 -9 -10 -11 -26 -6 -50 6 -31 8 -32 13 -12
3 12 11 22 17 22 9 0 9 -5 1 -20 -8 -16 -8 -28 2 -50 14 -34 16 -34 54 -20 21
8 31 8 42 -4 17 -16 8 -36 -16 -36 -15 -1 -15 -2 1 -11 14 -8 21 -7 30 5 10
14 16 15 40 4 17 -9 25 -18 21 -28 -3 -8 -6 -17 -7 -20 -1 -3 2 -7 7 -10 5 -3
10 3 12 13 3 26 4 26 59 30 41 4 53 1 66 -16 10 -12 23 -18 33 -14 20 8 21 23
2 30 -10 4 -13 1 -9 -9 3 -7 1 -14 -5 -14 -8 0 -22 22 -22 35 0 13 35 10 65
-6 l38 -20 33 32 c36 35 44 52 19 43 -8 -3 -13 -9 -12 -14 1 -4 -9 -17 -22
-29 -21 -18 -26 -19 -40 -7 -9 7 -23 16 -31 19 -13 5 -13 6 0 6 8 1 26 17 39
36 18 26 31 35 52 35 16 0 29 -5 29 -11 0 -6 -9 -9 -20 -6 -21 5 -48 -17 -31
-27 5 -4 12 -2 16 4 3 5 14 10 25 10 14 0 30 18 30 35 0 9 -59 22 -71 15 -11
-6 -15 -3 -16 11 -2 17 1 18 13 9 9 -8 14 -9 14 -2 0 6 -5 14 -10 17 -6 4 -8
11 -5 16 9 13 45 11 45 -2 0 -6 -7 -9 -15 -5 -13 5 -14 2 -4 -16 9 -16 13 -18
20 -7 7 11 9 10 9 -3 0 -10 5 -18 11 -18 20 0 -1 54 -32 83 -20 19 -25 27 -13
27 8 0 29 -13 46 -30 16 -16 31 -30 32 -30 7 0 -8 56 -18 69 -21 26 -97 51
-159 52 -46 1 -56 3 -37 9 18 6 5 8 -45 9 -38 0 -77 -3 -85 -8z"/>
<path d="M1316 4058 c-24 -22 -30 -43 -27 -97 1 -15 19 -41 47 -68 29 -27 44
-49 40 -58 -7 -19 -36 -19 -64 1 -22 15 -22 15 -22 -30 0 -44 1 -46 39 -57 82
-24 149 31 138 115 -4 32 -15 49 -46 77 -23 20 -41 41 -41 47 0 18 17 23 43
13 23 -9 25 -7 29 26 4 30 1 36 -20 44 -42 16 -89 10 -116 -13z"/>
<path d="M1550 4073 c-40 -16 -70 -80 -70 -150 1 -143 61 -206 159 -167 57 23
75 59 76 154 0 88 -17 135 -56 155 -28 15 -81 19 -109 8z"/>
<path d="M2024 4066 c-2 -6 -5 -63 -6 -126 -3 -94 -6 -115 -18 -115 -12 0 -15
22 -18 123 l-3 122 -40 0 -41 0 4 -141 c3 -134 4 -142 27 -160 33 -27 111 -26
137 2 16 18 19 40 22 159 l3 138 -31 4 c-18 3 -34 0 -36 -6z"/>
<path d="M1740 3910 l0 -159 61 -3 61 -3 -19 -22 c-11 -12 -28 -21 -39 -19
-10 2 -13 1 -6 -1 17 -6 15 -16 -6 -34 -9 -8 -27 -28 -40 -44 -20 -25 -26 -28
-43 -17 -18 11 -18 11 -7 -7 9 -16 9 -23 -3 -37 -8 -10 -10 -19 -4 -21 6 -2 9
-59 7 -153 l-3 -150 45 0 c51 0 50 -1 46 85 -2 52 13 37 33 -30 l14 -50 87 -3
86 -3 0 26 c0 20 5 25 25 25 20 0 25 -5 25 -25 0 -23 4 -25 35 -23 44 3 45 -9
-2 241 l-16 88 -40 -3 c-40 -3 -41 -3 -53 -58 -7 -30 -20 -98 -29 -150 -9 -52
-20 -99 -24 -103 -4 -4 -20 30 -36 77 l-28 84 24 58 c12 33 27 63 31 68 17 21
6 27 -38 24 l-47 -3 -16 -52 c-23 -74 -31 -75 -31 -6 0 54 3 63 25 77 14 10
31 29 38 44 12 28 35 51 51 52 4 0 1 -12 -8 -26 -10 -14 -16 -33 -14 -42 3
-11 11 -1 25 28 22 49 15 74 -15 47 -10 -9 -21 -17 -24 -17 -11 0 3 64 18 81
12 14 14 24 7 46 -5 15 -15 29 -21 29 -7 1 -19 2 -27 3 -12 1 -15 22 -15 121
l0 120 -45 0 -45 0 0 -160z"/>
<path d="M1662 3742 c-44 -46 -72 -82 -72 -92 0 -6 -9 -29 -20 -50 -20 -39
-21 -40 -65 -33 l-45 6 0 -167 0 -166 69 0 c76 0 109 17 136 70 31 60 11 211
-30 226 -23 9 -19 66 5 84 11 8 20 19 20 24 0 6 -5 5 -12 -2 -18 -18 -28 -15
-28 8 0 11 12 27 28 37 32 20 61 53 62 71 0 20 -20 14 -48 -16z"/>
<path d="M1375 3653 c-16 -27 -29 -52 -29 -58 -1 -5 -17 -14 -36 -20 -84 -25
-100 -53 -100 -172 0 -93 20 -140 67 -159 41 -18 79 -10 116 24 66 62 61 235
-8 285 l-25 19 30 56 c16 30 30 59 30 64 0 20 -17 4 -45 -39z"/>
<path d="M1006 3503 c13 -80 42 -220 50 -245 4 -14 16 -18 48 -18 l43 0 12 58
c26 129 51 257 51 265 0 4 -18 7 -39 7 -44 0 -46 -2 -57 -114 -8 -75 -18 -70
-28 14 -12 97 -14 100 -55 100 l-37 0 12 -67z"/>
<path d="M1150 1245 c0 -82 -6 -76 67 -79 10 -1 20 9 24 24 l7 25 1 -27 c1
-21 6 -28 21 -28 16 0 20 7 21 33 l1 32 7 -30 c4 -21 13 -31 28 -33 22 -3 22
-1 17 45 -12 109 -13 113 -39 113 -17 0 -25 -7 -28 -22 l-4 -23 -8 23 c-5 14
-15 22 -30 22 -19 0 -23 -7 -32 -67 l-10 -68 -1 68 c-2 60 -4 67 -22 67 -18 0
-20 -7 -20 -75z"/>
<path d="M1496 1308 c-10 -5 -21 -19 -26 -31 -8 -22 -8 -22 -16 -2 -11 28 -23
35 -66 35 l-36 0 4 -67 c3 -38 7 -74 9 -80 7 -21 35 -2 35 23 0 17 6 24 20 24
10 0 24 8 29 18 10 16 10 16 11 -1 0 -10 7 -31 14 -46 26 -50 90 -29 102 34
11 61 -37 117 -80 93z"/>
<path d="M1723 1312 c-23 -2 -33 -8 -33 -20 -1 -16 -1 -16 -11 1 -7 12 -23 17
-52 17 l-42 0 2 -72 c1 -66 4 -73 22 -76 16 -3 21 2 22 20 l0 23 9 -22 c6 -16
18 -23 35 -23 25 0 25 1 9 25 -14 21 -14 29 -3 55 20 44 29 37 29 -24 0 -40 4
-55 16 -60 26 -10 32 1 32 56 1 28 7 57 14 64 11 11 13 2 13 -49 l0 -62 38 -3
c32 -3 37 0 37 17 0 12 -7 21 -15 21 -20 0 -19 10 3 26 16 13 16 15 0 28 -22
16 -23 26 -4 26 8 0 17 6 19 13 3 6 6 -21 6 -62 l1 -73 32 6 c43 8 57 24 65
69 4 25 0 44 -11 62 -16 24 -20 25 -109 22 -50 -1 -107 -3 -124 -5z"/>
<path d="M4511 2861 c-153 -58 -194 -165 -96 -256 58 -54 127 -78 229 -78 94
0 159 23 215 76 65 62 71 118 19 181 -49 60 -117 88 -223 93 -72 3 -101 0
-144 -16z"/>
<path d="M3023 2528 c-70 -45 -80 -69 -70 -156 4 -39 12 -53 47 -84 24 -21 51
-38 62 -38 21 0 74 32 97 59 10 12 15 13 18 4 6 -17 29 -17 36 0 2 7 5 45 5
84 0 51 -4 76 -14 84 -25 21 -31 2 -33 -93 -2 -80 -21 -54 -21 27 0 74 -7 88
-33 64 -14 -14 -10 -148 5 -166 12 -15 -10 -27 -39 -21 -16 3 -19 17 -23 116
-4 97 -3 112 11 112 8 0 20 -5 27 -12 10 -10 17 -7 34 10 18 18 19 22 6 22 -8
0 -21 7 -28 15 -17 20 -16 20 -87 -27z"/>
<path d="M3355 2483 c-14 -36 -8 -152 9 -168 14 -14 17 -14 36 5 23 23 29 50
6 31 -11 -9 -14 -2 -15 44 0 31 3 55 9 55 6 0 10 -6 10 -12 0 -8 7 -5 15 6 14
18 15 14 15 -43 0 -62 12 -101 31 -101 5 0 26 12 45 28 32 25 34 30 34 88 0
39 -5 66 -13 73 -24 19 -37 -9 -37 -83 0 -86 -6 -83 -12 7 -6 76 -11 86 -38
69 -13 -8 -21 -8 -25 -1 -4 5 -15 7 -26 4 -11 -4 -19 -2 -19 4 0 17 -17 13
-25 -6z"/>
<path d="M2588 2477 c-27 -10 -28 -14 -28 -82 0 -57 4 -75 18 -88 20 -18 42
-22 42 -9 0 5 11 14 25 20 23 11 25 17 25 81 0 59 -3 72 -19 81 -23 12 -27 12
-63 -3z"/>
<path d="M2678 2233 c-24 -6 -23 -19 3 -26 20 -5 21 -11 17 -107 -3 -96 -2
-101 17 -96 10 3 39 0 63 -6 33 -8 49 -8 68 2 29 16 32 34 4 25 -11 -3 -36 -1
-55 6 -30 11 -35 17 -35 46 0 25 4 31 15 27 9 -4 15 0 15 10 0 9 -7 16 -15 16
-11 0 -15 11 -15 40 0 38 1 40 21 30 16 -9 28 -9 50 1 16 6 27 14 23 18 -3 3
-9 5 -12 5 -4 -1 -17 2 -29 7 -13 5 -35 4 -53 -3 -23 -8 -35 -7 -43 1 -6 6
-13 10 -16 10 -4 -1 -14 -3 -23 -6z"/>
<path d="M3646 825 c-21 -19 -42 -33 -47 -30 -5 4 -6 0 -4 -7 3 -8 -6 -24 -20
-36 l-25 -22 -48 24 c-26 13 -56 32 -67 41 -20 16 -20 16 1 10 13 -3 26 1 34
10 8 10 9 15 1 15 -6 0 -11 -4 -11 -10 0 -5 -5 -10 -11 -10 -6 0 -8 7 -5 17 6
16 6 16 -12 0 -10 -9 -23 -17 -29 -17 -16 0 -24 -29 -13 -49 5 -10 24 -29 42
-44 18 -14 48 -39 66 -56 24 -22 43 -31 68 -31 19 0 34 -5 34 -11 0 -6 7 -8
17 -5 9 4 19 2 23 -4 4 -6 13 -5 26 4 10 8 16 18 12 22 -4 4 -14 1 -23 -6 -9
-8 -15 -8 -15 -2 0 6 10 18 22 26 22 15 21 16 -18 32 -65 27 -67 32 -29 72 57
63 75 85 75 94 0 13 -5 10 -44 -27z"/>
</g>
</svg>
