<?xml version="1.0" standalone="no"?>
<!DOCTYPE svg PUBLIC "-//W3C//DTD SVG 20010904//EN"
 "http://www.w3.org/TR/2001/REC-SVG-20010904/DTD/svg10.dtd">
<svg version="1.0" xmlns="http://www.w3.org/2000/svg"
 width="1588.000000pt" height="1055.000000pt" viewBox="0 0 1588.000000 1055.000000"
 preserveAspectRatio="xMidYMid meet">
<metadata>
Created by potrace 1.16, written by Peter Selinger 2001-2019
</metadata>
<g transform="translate(0.000000,1055.000000) scale(0.100000,-0.100000)"
fill="#000000" stroke="none">
<path d="M2135 9164 c-58 -19 -89 -36 -112 -61 -35 -37 -42 -60 -18 -60 8 0
15 7 15 15 0 8 6 12 14 9 9 -4 12 0 9 12 -3 14 5 22 35 34 175 70 516 57 625
-24 39 -28 45 -18 10 20 -33 37 -76 46 -278 61 -71 5 -150 12 -175 15 -33 4
-66 -2 -125 -21z"/>
<path d="M13660 8940 c-185 -5 -185 -5 -182 -27 4 -29 -5 -29 -34 -2 -22 20
-84 33 -84 17 0 -4 14 -23 30 -41 48 -56 35 -66 -20 -17 -38 34 -63 35 -68 4
-2 -13 10 -32 33 -53 28 -25 34 -36 25 -45 -9 -8 -22 1 -55 37 -34 37 -43 53
-39 74 3 15 7 30 10 35 10 16 -66 8 -121 -13 -30 -11 -78 -38 -105 -60 -45
-36 -50 -43 -50 -80 0 -27 4 -38 11 -33 8 5 10 -4 7 -29 l-4 -35 41 1 c38 2
40 1 43 -30 2 -25 -1 -33 -12 -33 -11 0 -16 9 -16 27 l0 27 -16 -22 c-14 -21
-14 -25 0 -47 17 -25 26 -29 59 -25 14 1 17 -3 13 -17 -4 -14 5 -22 47 -40 29
-12 66 -24 82 -28 24 -6 341 -7 615 -2 67 1 545 -17 755 -29 55 -3 126 -2 158
1 56 7 93 27 82 46 -3 4 8 21 26 37 25 23 32 37 34 77 2 28 2 40 -1 28 -6 -25
-19 -30 -30 -11 -4 7 -3 8 4 4 15 -9 15 -7 -5 64 -9 33 -21 60 -26 60 -5 0 -4
7 3 15 9 10 9 15 1 15 -6 0 -11 6 -11 13 -1 27 -71 89 -134 117 l-66 30 -407
-2 c-225 -1 -491 -5 -593 -8z m857 -139 c23 -11 44 -17 46 -14 3 3 15 2 27 -2
33 -10 18 -30 -21 -27 -33 3 -33 3 19 -28 56 -33 65 -32 99 10 7 8 13 10 13 4
0 -5 -8 -19 -18 -30 -10 -10 -16 -27 -14 -36 5 -23 -4 -23 -60 6 -53 27 -56
10 -2 -19 l35 -19 -37 -22 c-21 -13 -40 -21 -43 -19 -4 2 -74 6 -156 10 -83 4
-153 9 -157 11 -3 2 -62 4 -129 5 -79 0 -118 4 -109 10 10 6 11 9 3 9 -7 0
-13 7 -13 15 0 13 7 15 34 10 19 -4 63 -8 98 -10 81 -3 151 -15 159 -27 3 -5
26 -8 50 -5 37 3 40 5 21 12 -15 5 -21 13 -17 22 3 11 1 13 -10 9 -9 -3 -15 0
-15 9 0 9 -9 15 -21 15 -12 0 -19 5 -16 13 2 7 20 12 43 12 26 0 38 -4 37 -12
-3 -15 -1 -15 22 -7 14 6 14 8 -1 25 -9 11 -23 19 -30 19 -8 0 -19 9 -26 20
-8 12 -24 20 -40 20 -15 0 -30 5 -33 10 -4 6 8 10 28 10 22 0 37 -6 41 -15 8
-21 42 -19 66 5 25 25 72 25 127 1z m-1253 -18 c36 -27 50 -53 36 -67 -8 -8
-20 -1 -46 27 -19 20 -41 37 -48 37 -22 0 -38 -27 -31 -51 6 -17 9 -19 16 -8
5 8 9 9 9 3 0 -7 7 -15 16 -18 8 -3 12 -2 9 4 -10 16 18 11 48 -8 l27 -19 -39
-13 c-49 -16 -102 -1 -126 37 -12 18 -20 22 -28 14 -14 -14 -37 -14 -37 -1 0
6 14 13 31 17 17 3 33 13 36 22 3 9 13 24 22 34 19 23 68 18 105 -10z m442
-27 c30 -10 40 -19 42 -38 2 -20 -4 -28 -30 -41 l-33 -17 33 0 c19 0 40 -8 53
-21 12 -12 27 -18 37 -14 12 4 14 3 6 -5 -6 -6 -68 -12 -150 -14 -94 -3 -124
-2 -94 4 25 5 78 9 118 9 41 1 72 5 72 11 0 6 -21 10 -48 10 -26 0 -77 6 -113
14 -37 7 -78 11 -93 9 -17 -4 -26 -1 -26 8 0 7 -7 20 -15 29 -55 60 115 100
241 56z"/>
<path d="M1780 8932 c0 -5 12 -23 28 -39 28 -31 128 -69 247 -95 69 -15 492
-18 595 -4 99 13 242 73 262 109 5 11 6 17 1 15 -174 -86 -181 -88 -413 -108
-182 -16 -428 6 -562 49 -54 18 -111 43 -128 57 -16 14 -30 21 -30 16z"/>
<path d="M366 8616 c3 -8 0 -17 -5 -21 -6 -3 -9 -11 -6 -16 4 -5 0 -15 -7 -23
-25 -26 -98 -143 -98 -156 0 -6 -6 -10 -12 -10 -16 0 -78 -138 -78 -171 0 -24
14 -74 44 -156 15 -41 19 -126 41 -918 20 -728 36 -1221 55 -1715 18 -471 22
-550 29 -550 3 0 14 12 25 26 15 22 16 28 5 36 -10 7 -8 8 7 3 15 -4 26 2 40
20 10 14 22 25 26 25 4 0 31 23 59 50 29 28 54 48 57 45 3 -3 -29 -40 -71 -82
-46 -45 -77 -85 -77 -97 0 -15 -3 -17 -8 -8 -7 10 -13 7 -27 -12 -10 -14 -22
-23 -26 -20 -4 2 -9 -2 -11 -9 -6 -15 20 -673 28 -706 l5 -24 23 24 c13 13 21
28 18 33 -3 5 2 7 11 3 8 -3 39 3 69 15 45 17 70 19 158 16 153 -7 227 -34
306 -112 100 -100 122 -212 64 -330 -38 -77 -47 -89 -87 -109 -44 -23 -66 -21
-92 7 -50 53 -45 160 10 209 28 26 37 29 75 23 43 -6 44 -5 44 24 0 20 -12 42
-38 70 l-39 40 -79 0 c-91 -1 -165 -26 -236 -81 -64 -50 -120 -111 -114 -125
3 -8 0 -11 -9 -8 -22 9 -49 -44 -55 -108 -3 -32 -3 -62 1 -66 4 -4 9 -36 11
-72 2 -36 7 -71 11 -77 4 -6 4 -19 0 -29 -5 -14 -3 -16 10 -11 14 5 16 3 8
-11 -11 -22 -3 -173 11 -190 8 -10 18 0 42 43 85 152 230 255 362 255 64 0
152 -49 191 -107 34 -51 54 -119 48 -168 -10 -83 -19 -122 -41 -181 l-24 -64
38 0 c56 1 136 38 257 122 61 41 133 87 162 101 61 31 69 42 52 65 -12 15 -12
15 7 -1 26 -21 48 -22 40 -1 -4 10 -2 13 7 7 20 -12 38 -12 43 1 3 7 19 10 43
8 30 -3 44 1 60 17 12 12 28 21 35 21 8 0 21 12 28 28 19 40 55 39 101 -1 20
-18 37 -39 37 -46 0 -8 -21 5 -46 29 -43 40 -46 41 -64 25 -24 -22 -16 -38 41
-85 86 -72 108 -99 115 -145 12 -86 -20 -169 -100 -253 -66 -69 -129 -75 -176
-15 -27 35 -22 80 15 129 36 47 67 66 120 72 42 4 45 7 45 33 0 18 -7 32 -19
39 -25 13 -101 13 -101 0 0 -5 -9 -10 -21 -10 -28 0 -61 -19 -53 -31 3 -5 0
-16 -6 -24 -7 -8 -9 -15 -5 -15 4 0 2 -7 -6 -16 -10 -12 -23 -14 -53 -10 -40
6 -43 4 -109 -58 -37 -35 -67 -68 -67 -73 0 -5 9 -19 20 -31 12 -12 16 -22 9
-22 -6 0 -20 9 -29 20 l-18 21 -16 -23 c-18 -25 -21 -48 -6 -48 6 0 10 -8 10
-17 -1 -16 -2 -16 -16 2 -15 20 -15 20 -34 -5 -22 -29 -24 -42 -9 -57 7 -7 4
-10 -12 -9 -12 0 -26 -7 -30 -16 -5 -10 -13 -26 -19 -35 -90 -161 -91 -290 -1
-350 116 -78 314 47 636 402 252 278 456 444 615 500 111 40 180 37 241 -8
l29 -20 23 25 c20 22 35 26 113 32 49 4 106 11 127 15 20 5 39 5 42 1 8 -12
-44 -102 -208 -365 -31 -49 -73 -117 -94 -150 -46 -75 -129 -205 -198 -310
-101 -155 -111 -179 -80 -191 45 -18 214 126 365 310 64 78 90 96 136 96 30 0
30 -1 0 -48 -75 -120 -290 -361 -405 -455 -110 -89 -132 -103 -213 -136 -67
-26 -79 -28 -128 -19 -83 15 -108 45 -112 133 -1 49 -1 49 -63 -1 -116 -93
-263 -128 -358 -86 -82 37 -108 109 -83 232 9 40 15 75 13 76 -1 2 -20 -13
-42 -32 -134 -118 -359 -203 -462 -175 -105 28 -194 127 -227 251 -21 77 -21
76 -3 165 22 104 40 156 86 239 23 41 41 77 41 79 0 2 -24 5 -54 6 -53 1 -55
0 -77 -36 -13 -21 -25 -40 -28 -43 -4 -3 -27 -36 -53 -75 -82 -122 -184 -213
-279 -249 -43 -17 -46 -20 -47 -58 -1 -22 -5 -44 -8 -50 -7 -11 27 -88 39 -88
4 0 7 -7 7 -16 0 -11 -6 -14 -20 -9 -18 6 -20 2 -20 -54 0 -33 5 -63 11 -67 7
-4 9 -21 6 -40 -6 -37 -2 -41 27 -19 31 23 42 18 18 -8 -23 -24 -30 -43 -12
-32 5 3 7 0 4 -9 -4 -11 10 -20 59 -35 124 -38 193 -47 729 -96 152 -14 316
-32 365 -41 48 -8 101 -17 116 -19 104 -14 365 -103 482 -163 208 -108 482
-288 465 -305 -3 -3 -43 10 -90 29 -230 94 -600 148 -747 111 -76 -20 -131
-47 -176 -87 l-34 -29 -38 50 c-86 113 -221 208 -400 282 -114 47 -314 100
-567 151 -97 20 -181 36 -186 36 -12 0 -10 -153 7 -440 11 -195 15 -437 11
-707 -1 -83 2 -123 9 -123 6 0 3 -9 -6 -19 -9 -11 -20 -18 -25 -15 -4 3 -8 1
-8 -5 0 -41 55 -4 187 126 41 40 77 73 79 73 6 0 -11 -20 -76 -87 -107 -111
-140 -156 -134 -177 4 -17 3 -18 -5 -6 -8 12 -13 12 -22 3 -10 -10 -9 -14 4
-19 13 -5 15 -16 10 -57 -3 -29 -9 -56 -14 -61 -12 -14 -11 -76 1 -76 6 0 10
-33 10 -80 0 -45 4 -80 10 -80 12 0 10 -151 -2 -167 -6 -7 -7 -24 -4 -38 l6
-25 224 0 224 0 7 32 c9 44 52 117 89 151 38 36 90 63 174 89 118 36 255 4
341 -81 47 -45 101 -138 101 -173 0 -17 13 -18 165 -18 l165 0 1 28 1 27 7
-25 7 -25 1197 -3 c658 -1 1197 2 1197 6 0 5 -11 19 -25 32 -28 27 -32 61 -10
80 21 17 29 7 15 -19 -9 -18 -6 -27 22 -61 18 -22 38 -40 43 -40 6 0 11 21 12
48 2 47 -10 74 -49 116 -23 25 -23 36 1 36 44 0 53 66 16 114 -14 18 -25 37
-25 42 0 4 7 -2 16 -14 8 -12 23 -22 32 -22 12 0 13 3 4 12 -15 15 -16 54 -2
63 19 12 10 26 -12 19 -20 -6 -21 -5 -9 10 7 9 19 16 26 16 15 0 20 154 17
563 -2 253 -5 302 -18 323 -10 15 -12 24 -5 24 6 0 11 -5 11 -12 0 -6 3 -9 6
-5 8 7 5 222 -3 243 -3 7 -9 11 -15 8 -5 -3 -3 8 6 24 14 27 16 76 15 339 -1
169 -4 407 -8 527 -5 199 -7 218 -22 204 -8 -9 -27 -74 -42 -145 -61 -294
-185 -581 -272 -629 -70 -37 -115 10 -115 121 0 111 29 249 116 551 16 57 16
62 1 85 l-17 23 -1 -24 c0 -22 -1 -23 -8 -6 -6 15 -12 4 -25 -45 -110 -406
-274 -705 -483 -884 -267 -228 -547 -202 -637 60 -38 109 -29 296 21 460 46
154 189 464 277 604 15 23 39 64 53 89 28 52 137 229 188 307 18 28 54 85 81
128 27 43 68 105 92 138 23 33 40 65 36 71 -4 6 -3 8 3 5 6 -4 34 31 64 76 29
45 56 84 59 87 3 3 22 30 43 60 20 30 49 73 65 95 15 22 75 110 132 195 58 85
110 161 117 168 7 7 13 17 13 22 0 4 17 30 39 57 21 27 46 63 55 81 9 17 40
57 69 89 86 94 87 97 87 226 0 178 14 208 21 47 3 -74 5 142 3 480 -3 623 -13
816 -44 883 -12 25 -11 30 17 60 40 42 52 77 25 77 -19 0 -72 45 -72 61 0 4
11 -3 25 -16 27 -28 33 -29 55 -15 12 8 11 10 -7 10 -48 0 -47 61 0 80 21 8
21 9 -3 9 -15 1 -31 -4 -38 -11 -7 -7 -12 -8 -12 -2 0 18 23 34 48 34 l24 0
-4 428 c-2 363 -5 432 -18 447 -11 14 -11 17 -1 11 11 -7 12 20 5 165 -5 96
-8 186 -8 202 1 22 -2 25 -13 16 -7 -7 -12 -17 -11 -23 1 -6 -4 -29 -11 -50
l-14 -39 -18 24 c-12 15 -17 33 -14 49 4 20 3 22 -5 8 -14 -22 -2 -95 17 -102
9 -4 11 -2 7 5 -4 7 -1 10 7 7 8 -3 23 -1 34 5 18 9 19 9 6 -9 -8 -10 -24 -29
-35 -40 -38 -40 -54 -62 -49 -68 4 -3 1 -6 -5 -6 -7 0 -12 -6 -12 -12 0 -7
-21 -23 -46 -35 -34 -16 -44 -18 -40 -7 3 8 -1 14 -9 14 -8 0 -26 11 -41 25
-14 13 -36 23 -48 22 -23 -2 -25 7 -13 81 5 25 4 41 -2 38 -5 -3 -11 7 -14 23
-3 16 -13 36 -22 45 -9 9 -12 16 -6 16 5 0 13 -4 16 -10 3 -5 10 -10 14 -10
11 0 31 62 31 97 0 44 11 93 21 93 5 0 9 -10 10 -22 1 -44 18 13 18 64 1 41 5
50 34 72 34 26 49 32 45 19 -1 -5 2 -23 6 -41 6 -25 11 -30 20 -23 7 6 16 8
19 4 4 -3 7 2 7 13 0 15 2 16 9 5 13 -20 25 8 41 89 6 36 19 78 28 95 14 28
14 29 -1 16 -10 -7 -21 -28 -26 -45 -7 -23 -9 -25 -10 -10 -1 12 6 38 14 57
19 46 19 94 0 131 -8 15 -15 33 -15 39 0 6 -11 21 -23 32 -13 11 -30 37 -36
58 -12 37 -56 89 -97 116 -26 16 -31 71 -7 71 27 0 10 7 -34 14 -28 4 -46 2
-55 -7 -7 -7 -26 -22 -41 -32 -21 -13 -25 -20 -15 -26 10 -7 8 -12 -10 -24
-12 -9 -20 -21 -17 -26 4 -5 -3 -9 -14 -9 -27 0 -27 16 -1 30 11 6 20 15 20
19 0 5 -24 -4 -52 -19 -29 -16 -87 -43 -128 -60 -41 -17 -84 -35 -95 -40 -99
-46 -289 -106 -454 -145 -604 -141 -1311 -160 -1971 -54 -132 22 -415 87 -489
113 -24 9 -61 16 -81 16 -25 0 -48 8 -67 23 -15 13 -64 38 -108 57 -130 56
-213 102 -305 173 -54 41 -62 44 -54 23z m3859 -786 c10 -44 -1 -65 -45 -86
l-40 -19 0 -140 c0 -77 -3 -150 -6 -163 -4 -12 -19 -29 -35 -38 l-29 -15 0
154 c0 85 -3 156 -6 160 -3 3 -25 -3 -49 -13 -24 -10 -46 -16 -49 -13 -3 4 -6
25 -6 49 l0 42 78 31 c42 18 97 43 122 56 57 31 57 31 65 -5z m-2532 -63 c29
1 37 -3 37 -16 0 -10 3 -21 8 -25 4 -4 7 -11 8 -14 0 -4 6 -20 13 -37 10 -25
10 -31 -5 -42 -10 -7 -29 -13 -43 -13 -14 -1 -54 -2 -87 -3 -51 -3 -63 0 -73
16 -11 17 -10 18 8 12 12 -4 21 -2 21 4 0 6 -5 11 -12 11 -6 0 -2 10 10 23 28
30 29 67 2 67 -20 0 -26 11 -13 23 3 4 25 3 47 -1 23 -4 58 -6 79 -5z m-933
-38 c48 -29 94 -81 122 -137 18 -37 23 -64 23 -128 0 -91 -14 -128 -57 -150
-54 -28 -113 -16 -172 37 -98 85 -136 290 -69 369 21 25 32 30 71 30 30 0 60
-8 82 -21z m514 -171 c63 -51 71 -182 14 -222 l-21 -15 28 -53 c15 -29 36 -64
46 -77 10 -13 16 -27 13 -32 -14 -23 -96 2 -112 34 -34 66 -81 141 -93 147 -8
4 -26 10 -41 14 l-28 6 0 -75 c0 -41 -4 -75 -9 -75 -4 0 -22 5 -38 10 -30 11
-30 12 -37 102 -7 106 -8 312 -1 319 2 3 59 -9 125 -25 85 -22 130 -39 154
-58z m2274 -109 l2 -157 91 24 c49 14 95 25 102 27 7 1 13 -14 15 -40 3 -40 1
-43 -30 -56 -39 -16 -258 -71 -263 -66 -3 4 -9 377 -6 406 1 14 26 22 61 20
l25 -2 3 -156z m-2020 85 c2 -1 6 -95 9 -208 l6 -206 -35 0 c-65 0 -67 6 -68
195 -2 262 -7 234 43 228 23 -3 44 -7 45 -9z m1714 -37 c34 -66 138 -305 138
-317 0 -11 -25 -25 -63 -34 -25 -6 -28 -3 -44 35 l-16 41 -61 -7 c-112 -12
-116 -14 -139 -64 -20 -42 -26 -46 -65 -52 -24 -3 -45 -2 -48 2 -4 7 43 133
134 364 26 64 31 70 63 76 70 13 73 12 101 -44z m-1257 -18 c69 -26 80 -44 53
-87 -11 -18 -21 -32 -21 -32 -1 0 -24 11 -51 25 -123 62 -246 -7 -215 -119 20
-72 140 -128 213 -100 21 8 22 64 1 65 -8 1 -19 3 -25 4 -5 1 -26 3 -46 4 -35
1 -35 1 -32 44 l3 42 90 -3 c134 -5 125 4 125 -117 l0 -103 -47 -16 c-99 -34
-218 -16 -304 45 -75 53 -108 170 -73 259 15 37 68 85 114 103 38 14 161 6
215 -14z m865 -183 c0 -225 3 -216 -65 -216 -28 0 -40 8 -77 52 -23 29 -50 60
-58 69 -8 9 -35 42 -60 74 l-45 58 -3 -136 -3 -136 -47 2 -47 2 -3 208 -2 207
52 0 53 -1 100 -124 100 -124 3 122 c1 67 4 128 7 135 3 7 23 12 50 12 l45 0
0 -204z m-548 -7 c3 -104 3 -199 1 -210 -5 -17 -13 -20 -52 -17 l-46 3 -3 208
-2 207 48 0 49 0 5 -191z m-808 -1014 c22 -4 61 -16 87 -28 39 -17 46 -23 37
-34 -10 -12 -6 -13 18 -7 27 7 28 6 15 -10 -13 -15 -13 -19 0 -27 8 -5 19 -7
26 -4 7 2 15 0 18 -5 8 -13 -16 -13 -52 0 -25 9 -26 8 -10 -4 9 -7 17 -18 17
-25 0 -14 17 -15 25 -1 12 20 32 9 54 -30 12 -22 18 -40 13 -40 -6 0 -13 8
-16 17 -6 15 -8 15 -16 3 -5 -9 -5 -19 2 -27 5 -7 8 -17 6 -22 -1 -6 -19 11
-38 38 -62 86 -175 137 -283 129 -61 -5 -167 -48 -167 -68 0 -4 -11 -19 -24
-33 -13 -14 -30 -43 -36 -63 -14 -41 -21 -174 -9 -174 4 0 10 -12 13 -26 11
-43 65 -100 115 -121 40 -17 141 -19 171 -3 11 6 31 8 43 5 17 -5 19 -4 7 4
-13 9 -8 15 11 13 3 0 15 18 26 41 49 98 48 92 27 153 -29 87 -94 126 -174
104 -49 -13 -76 -41 -85 -87 -7 -38 9 -92 31 -106 7 -4 12 -13 10 -20 -1 -6
-1 -9 1 -4 3 4 14 7 26 7 37 0 51 16 49 55 -2 24 2 37 13 41 23 9 45 -15 45
-50 0 -38 -41 -74 -95 -83 -36 -6 -115 30 -115 53 0 6 -6 17 -14 23 -16 13
-29 54 -15 45 5 -3 4 6 -2 19 -9 19 -7 34 10 73 38 88 140 135 229 108 48 -14
102 -53 102 -73 0 -6 4 -11 9 -11 17 0 53 -88 46 -111 -5 -15 -4 -19 4 -15 7
5 11 -2 11 -19 0 -17 -4 -24 -11 -19 -9 5 -10 -1 -5 -22 5 -22 4 -25 -4 -14
-9 13 -10 12 -8 -5 7 -62 -86 -153 -188 -185 -61 -19 -70 -19 -134 -6 -79 17
-103 28 -154 73 -64 57 -99 141 -97 232 0 31 6 58 11 59 6 2 10 8 10 13 0 6
-4 7 -10 4 -16 -10 -11 16 10 63 28 63 60 104 76 98 8 -3 11 0 8 8 -8 21 97
83 119 69 5 -3 7 -2 4 4 -8 12 56 33 82 26 11 -3 28 0 38 6 10 5 25 9 33 6 8
-2 33 -6 54 -10z m2057 -2862 c0 -5 -26 -60 -58 -125 -42 -85 -65 -119 -84
-128 -14 -6 -71 -19 -127 -29 -79 -14 -102 -16 -102 -6 0 7 31 66 68 131 l69
118 93 17 c51 10 95 21 98 24 8 8 42 6 43 -2z"/>
<path d="M667 7632 c-21 -23 -22 -100 -3 -145 31 -76 118 -112 150 -62 62 94
-75 287 -147 207z"/>
<path d="M11657 8370 c-9 -26 -14 -56 -11 -67 4 -13 3 -14 -4 -5 -6 9 -15 -4
-32 -49 -20 -56 -21 -67 -10 -118 7 -31 14 -81 16 -111 3 -30 7 -66 11 -80 13
-50 15 -104 18 -570 2 -261 8 -639 14 -840 6 -201 11 -461 11 -577 0 -125 4
-213 9 -213 5 0 17 7 25 16 9 8 16 10 16 4 0 -6 -6 -13 -14 -16 -8 -3 -17 -17
-21 -32 -7 -26 -6 -253 1 -337 3 -32 12 -450 14 -628 0 -24 7 -43 20 -54 11
-10 20 -24 20 -33 -1 -12 -3 -12 -14 3 -7 9 -16 17 -19 17 -3 0 -4 -91 -2
-203 3 -111 5 -202 5 -202 0 0 3 -144 6 -320 2 -176 7 -340 10 -365 5 -39 15
-54 75 -113 38 -38 66 -73 63 -79 -4 -6 0 -14 7 -19 12 -8 12 -10 0 -18 -9 -6
-14 -33 -15 -92 -1 -67 -4 -84 -16 -84 -8 0 -17 -11 -18 -24 -4 -29 17 -101
30 -101 4 0 8 -6 8 -14 0 -23 41 -66 63 -66 12 0 36 15 53 33 28 29 59 72 39
55 -11 -11 -83 29 -89 49 -7 25 -10 162 -4 169 3 3 -4 16 -17 30 -15 16 -21
32 -17 49 2 14 5 25 7 25 1 0 54 -26 117 -57 123 -62 190 -93 202 -93 3 0 23
-7 44 -15 29 -13 34 -18 22 -25 -9 -6 -10 -10 -3 -10 6 0 15 5 18 10 3 6 11
10 16 10 6 0 8 -4 5 -9 -4 -5 2 -7 12 -4 10 2 70 -9 133 -26 63 -17 117 -31
120 -31 3 0 4 24 1 53 -4 47 -1 55 24 80 l28 28 -31 25 c-17 13 -34 38 -38 54
-13 57 16 91 46 54 7 -8 34 -26 59 -39 82 -41 88 -106 16 -156 -54 -37 -57
-64 -10 -90 22 -11 31 -10 90 19 41 21 79 32 107 32 27 0 56 9 82 25 22 13 55
25 73 25 18 0 45 9 60 20 15 10 49 24 76 30 26 6 61 17 78 26 17 9 48 14 73
13 38 -3 48 2 90 39 100 88 236 134 382 130 50 -1 93 -1 96 2 2 3 14 55 26
115 13 61 33 151 45 200 l21 90 3 -121 3 -120 62 7 c34 5 87 11 117 14 81 9
248 33 301 43 86 16 171 90 212 181 25 56 34 165 18 214 -14 40 -62 95 -104
116 -15 8 -26 17 -24 20 42 74 52 111 52 186 0 73 -3 84 -30 122 -16 23 -45
50 -62 60 -30 16 -40 36 -33 68 1 5 2 45 3 90 0 56 -3 79 -11 78 -6 -2 -9 3
-6 10 2 7 -16 32 -41 55 -25 22 -45 37 -45 33 0 -4 5 -12 11 -18 8 -8 8 -13 0
-17 -7 -5 -11 -48 -11 -116 0 -87 3 -109 15 -114 23 -8 18 -43 -7 -51 -26 -8
-251 -33 -257 -29 -7 6 109 555 119 564 3 3 6 16 7 30 1 14 8 50 14 80 9 49
14 56 36 58 l25 2 -27 -35 c-26 -36 -25 -51 7 -75 3 -3 9 -42 12 -87 3 -45 9
-88 12 -97 10 -26 23 -8 15 22 -4 15 -4 41 0 57 6 29 7 29 8 -7 0 -21 4 -38 9
-38 4 0 5 35 1 78 -4 42 -4 81 -2 85 3 4 0 14 -7 22 -7 8 -9 27 -4 49 3 20 2
36 -2 36 -5 0 -7 38 -6 84 2 47 -1 92 -7 103 -7 15 -5 49 9 129 27 153 68 333
70 309 3 -26 9 -155 12 -282 1 -57 6 -103 10 -103 5 0 8 -5 8 -11 0 -5 -3 -8
-7 -6 -5 3 -6 -15 -4 -39 2 -29 8 -44 17 -44 15 0 64 68 83 115 14 37 24 849
11 942 -4 32 -5 60 -1 63 6 5 10 46 11 98 0 12 5 22 11 22 5 0 8 4 4 9 -6 10
63 398 116 651 17 80 37 179 44 220 l13 75 1 -55 c1 -37 4 -50 10 -41 5 8 7
29 4 48 -4 24 -1 39 12 53 10 12 13 20 7 20 -7 0 -12 5 -12 10 0 6 11 10 24
10 23 0 44 16 34 25 -2 2 -18 6 -35 10 -30 5 -32 3 -36 -27 -2 -18 -5 45 -5
140 -2 162 -1 173 19 193 11 11 19 22 17 23 -1 2 -37 -3 -78 -11 -473 -86
-655 -106 -1065 -118 -376 -12 -904 35 -1201 106 -304 72 -556 170 -705 274
l-75 53 -17 -48z m2723 -3900 c28 -15 42 -66 30 -111 -13 -49 -47 -75 -109
-83 l-50 -7 2 -79 2 -80 71 6 c58 5 76 3 98 -11 15 -10 25 -24 22 -31 -6 -16
23 -34 43 -26 9 3 11 0 6 -8 -5 -7 -10 -29 -12 -49 -5 -45 -25 -76 -62 -95
-27 -14 -208 -43 -215 -35 -2 2 -5 139 -7 304 l-4 300 40 6 c65 10 125 10 145
-1z"/>
<path d="M2980 8333 c0 -5 -24 -8 -52 -8 -29 -1 -120 -6 -203 -13 -82 -6 -218
-12 -301 -12 -138 0 -152 -2 -169 -20 -18 -20 -17 -20 18 -20 19 0 44 -3 54
-6 15 -5 15 -4 3 5 -12 9 -9 11 17 11 17 0 34 -6 37 -12 4 -8 8 -9 11 -3 3 6
53 10 122 9 65 -1 125 2 133 6 8 5 55 11 103 14 48 4 109 10 135 15 26 5 54 9
62 10 8 0 42 7 75 15 l60 14 -52 1 c-29 1 -53 -2 -53 -6z"/>
<path d="M7740 7603 c-14 -3 -29 -8 -35 -13 -5 -4 -26 -11 -45 -15 -36 -7
-134 -64 -126 -72 3 -3 17 4 33 15 56 39 122 54 265 60 135 4 194 -1 184 -17
-7 -11 115 -51 156 -51 17 0 39 7 49 16 16 14 16 17 -7 39 -13 13 -31 22 -41
21 -9 -2 -44 3 -77 9 -61 12 -308 17 -356 8z"/>
<path d="M6840 7465 c0 -8 5 -15 11 -15 5 0 8 -4 5 -8 -11 -18 152 -86 191
-81 10 1 29 -3 43 -8 25 -11 217 -72 355 -113 39 -12 93 -29 120 -40 68 -25
82 -29 140 -34 28 -3 72 -10 100 -15 63 -12 111 -8 260 19 262 47 374 94 418
175 7 14 -1 10 -25 -11 -49 -43 -175 -84 -413 -134 -86 -18 -119 -20 -230 -14
-137 7 -148 9 -340 68 -66 21 -164 51 -218 67 -53 16 -113 39 -132 50 -19 11
-60 29 -92 39 -32 9 -88 29 -125 43 -54 21 -68 23 -68 12z"/>
<path d="M9830 7043 c-72 -72 -188 -152 -297 -207 -40 -20 -73 -34 -73 -32 0
6 128 86 139 86 4 0 15 8 22 18 13 15 12 16 -3 3 -37 -28 -16 3 37 56 30 30
52 59 49 64 -3 5 -1 9 4 9 5 0 12 8 15 19 4 15 -5 13 -57 -16 -100 -57 -286
-149 -361 -178 -74 -29 -112 -54 -85 -56 8 -1 18 -1 22 -1 3 1 11 -5 18 -13 6
-7 18 -11 26 -8 10 4 12 0 8 -11 -5 -12 0 -16 22 -17 17 0 22 -3 14 -6 -8 -3
-43 -19 -77 -34 -35 -16 -93 -38 -130 -50 -38 -11 -79 -25 -93 -29 -87 -31
-379 -88 -555 -109 -385 -45 -898 -43 -1175 5 -47 9 -112 19 -145 24 -112 17
-278 59 -317 81 -10 5 -27 9 -38 9 -11 0 -20 5 -20 10 0 6 8 10 18 10 10 0 4
7 -15 16 -18 9 -30 20 -27 25 3 5 -5 9 -18 10 -13 0 -17 3 -10 6 7 2 17 14 23
25 10 18 9 18 -10 8 -12 -6 -27 -20 -34 -30 -6 -11 -16 -20 -21 -20 -5 0 -19
-8 -30 -17 l-21 -18 20 25 c11 14 30 37 43 51 l23 26 -58 23 c-118 47 -396
180 -481 231 -29 17 -55 29 -58 27 -16 -17 120 -174 177 -203 26 -14 40 -35
23 -35 -4 0 -46 23 -93 52 -89 53 -153 101 -231 175 -43 41 -61 44 -42 6 10
-20 5 -43 -9 -43 -5 0 -9 7 -9 15 0 8 -5 15 -10 15 -7 0 -7 -6 -2 -17 12 -22
-2 -61 -23 -69 -10 -4 -15 -20 -15 -50 0 -33 -4 -44 -15 -44 -12 0 -13 4 -5
19 5 11 10 30 9 43 -1 20 -2 19 -10 -6 -4 -17 -15 -33 -23 -38 -8 -4 -12 -16
-9 -27 3 -12 -4 -28 -18 -42 -19 -19 -20 -24 -7 -33 8 -6 13 -17 11 -23 -6
-18 -23 -16 -23 2 0 8 -7 15 -15 15 -17 0 -20 -25 -5 -35 14 -8 -12 -46 -27
-40 -16 6 -17 -27 -2 -42 9 -9 8 -18 -3 -35 -9 -14 -12 -31 -8 -43 9 -25 -17
-56 -30 -35 -5 8 -3 24 5 39 15 30 17 81 3 81 -6 0 -8 -10 -4 -23 3 -12 -1
-36 -10 -52 -8 -16 -12 -35 -9 -43 3 -8 1 -20 -3 -26 -9 -10 -19 -62 -26 -126
-3 -31 -25 -72 -34 -66 -5 3 -14 1 -22 -5 -11 -6 -11 -9 -2 -9 10 0 10 -5 2
-20 -6 -12 -8 -29 -5 -40 3 -10 0 -22 -6 -26 -8 -4 -9 -3 -5 4 8 14 -1 14 -29
2 -17 -7 -17 -9 -2 -9 9 -1 17 -5 17 -11 0 -5 -8 -14 -17 -20 -27 -17 16 -4
122 35 106 40 196 68 201 63 2 -2 -22 -17 -53 -34 -31 -16 -61 -34 -67 -39 -6
-6 -42 -29 -81 -52 -77 -46 -150 -99 -122 -90 14 5 17 0 17 -37 0 -26 5 -46
12 -48 8 -3 12 -21 12 -46 -1 -23 2 -39 6 -37 11 7 31 -55 23 -68 -3 -5 -1 -7
4 -4 12 8 23 -24 23 -70 0 -32 12 -43 25 -23 11 18 23 11 18 -10 -3 -11 -9
-17 -13 -15 -5 3 -8 -8 -8 -23 1 -16 -3 -35 -7 -42 -5 -9 -4 -11 3 -6 7 4 12
1 12 -8 0 -9 4 -16 9 -16 5 0 11 -9 14 -19 3 -14 1 -18 -9 -14 -28 10 -16 -80
21 -168 19 -46 35 -87 35 -91 0 -5 12 -32 26 -61 19 -40 27 -74 31 -144 3 -51
10 -93 14 -93 5 0 9 5 9 12 0 6 3 8 7 5 3 -4 -2 -16 -12 -27 -11 -12 -19 -36
-19 -55 0 -39 -3 -38 -69 29 -21 21 -40 36 -42 34 -9 -9 85 -266 108 -296 5
-7 7 -16 3 -19 -4 -4 -11 -1 -16 7 -21 34 -22 -6 -1 -66 12 -36 20 -68 17 -72
-3 -3 -6 1 -6 9 0 8 -14 32 -30 53 -17 22 -30 45 -30 51 0 7 -9 20 -20 30 -19
17 -20 17 -20 1 0 -10 9 -29 20 -43 22 -29 19 -43 -5 -23 -20 16 -20 -4 0 -24
18 -17 20 -53 4 -58 -8 -3 -3 -25 16 -66 l28 -62 -17 -58 c-10 -31 -20 -65
-23 -76 -5 -15 -2 -17 16 -11 17 5 21 2 21 -15 0 -12 -4 -19 -9 -16 -14 9 -20
-16 -9 -38 7 -14 7 -16 -2 -11 -9 6 -11 -14 -6 -81 4 -58 3 -82 -3 -69 -9 18
-10 18 -10 2 -1 -10 4 -27 9 -37 9 -16 25 -512 23 -685 -1 -33 1 -52 4 -42 2
9 9 17 14 17 12 0 12 -37 -1 -42 -9 -3 -10 -27 -10 -163 0 -44 2 -56 10 -45
13 18 2 -65 -12 -92 -6 -14 -5 -18 7 -18 11 0 15 -6 11 -17 -18 -63 -18 -91 3
-105 19 -13 19 -16 5 -36 -8 -12 -13 -22 -10 -22 3 0 1 -12 -5 -27 -8 -22 -7
-30 7 -40 10 -7 13 -13 7 -13 -10 0 -15 -36 -14 -102 1 -43 -8 -47 -34 -18
-10 11 -23 20 -28 20 -6 0 -2 -10 9 -22 10 -12 13 -18 7 -14 -15 9 -18 -10 -3
-19 6 -4 8 -15 5 -25 -4 -12 12 -39 52 -87 32 -37 64 -73 72 -79 10 -8 11 -13
2 -18 -6 -4 -9 -16 -6 -27 9 -26 2 -24 -54 16 -56 40 -57 41 -79 19 -15 -15
-15 -16 3 -10 19 6 20 -1 20 -222 0 -125 3 -251 7 -280 4 -33 4 -50 -2 -47 -6
4 -10 1 -10 -4 0 -6 4 -11 9 -11 5 0 9 -15 8 -34 -1 -30 -2 -32 -14 -18 -9 11
-8 2 3 -28 10 -25 21 -50 26 -56 25 -34 120 -312 154 -451 26 -110 30 -158 14
-148 -5 3 -10 0 -10 -8 0 -27 -51 -50 -121 -55 l-68 -5 1 -129 c0 -71 -2 -132
-6 -135 -3 -4 1 -15 11 -25 20 -23 73 -24 115 -2 31 16 32 16 59 -13 14 -17
34 -51 44 -77 17 -44 17 -48 0 -91 -24 -65 -69 -96 -149 -104 -36 -4 -62 -3
-60 1 7 11 -8 10 -26 -2 -8 -5 -10 -10 -5 -10 6 0 11 -35 13 -79 2 -63 0 -80
-13 -84 -8 -4 -15 -14 -15 -24 1 -17 1 -17 14 -1 22 30 26 8 5 -29 -11 -19
-15 -32 -10 -29 12 8 21 -29 21 -91 l0 -53 332 0 c182 0 329 2 327 4 -2 2 -59
32 -127 66 -67 34 -125 66 -128 71 -3 5 -12 9 -19 9 -8 0 -23 7 -32 15 -10 8
-27 21 -38 29 -15 11 -20 29 -23 86 -3 47 -1 70 6 66 5 -3 24 -1 41 5 49 17
52 42 43 454 -8 361 -9 371 -32 420 -13 28 -23 59 -23 70 1 11 -1 14 -4 7 -11
-28 -33 10 -33 59 0 57 -11 59 148 -18 62 -30 142 -65 179 -78 36 -12 70 -30
75 -39 5 -8 13 -224 19 -478 6 -270 15 -481 21 -507 9 -33 26 -57 70 -99 53
-51 58 -59 58 -99 l0 -43 45 0 c41 0 45 2 45 24 0 30 13 40 72 56 35 9 49 19
58 40 8 19 10 133 8 386 -3 404 -2 395 -82 465 -39 35 -41 39 -39 89 3 69 11
90 33 90 11 0 63 -11 117 -24 54 -13 159 -35 233 -47 137 -24 155 -31 185 -82
9 -15 19 -14 110 13 189 56 336 63 446 21 30 -12 55 -21 57 -21 2 0 -59 61
-134 136 -75 74 -134 137 -131 140 2 2 92 -83 200 -190 226 -223 237 -239 245
-378 3 -48 8 -88 11 -88 10 0 91 84 91 94 0 5 -27 35 -60 68 -33 32 -60 62
-60 68 0 5 29 -20 64 -55 36 -36 69 -65 75 -65 6 0 11 -5 11 -12 0 -6 10 -23
23 -37 l22 -26 -26 23 c-14 12 -28 22 -32 22 -4 0 -32 -25 -63 -56 l-56 -57 7
-296 c4 -163 9 -297 10 -299 1 -1 83 -1 182 0 l181 3 -39 65 c-59 97 -81 176
-87 306 -5 137 17 227 85 352 52 96 180 234 278 299 181 121 411 192 580 179
153 -11 276 -98 341 -240 21 -46 25 -67 20 -102 -8 -63 -25 -89 -108 -174
-137 -141 -333 -276 -565 -391 -56 -28 -104 -57 -107 -64 -8 -22 49 -100 86
-118 80 -38 183 -30 293 22 72 33 175 126 246 222 29 38 62 72 77 77 56 19
109 -30 97 -90 -15 -72 -103 -214 -194 -310 l-35 -38 292 0 c246 0 292 2 292
14 0 19 27 46 46 46 10 0 14 -9 12 -27 -3 -27 -2 -28 54 -31 52 -3 57 -1 61
20 l4 23 2 -22 c0 -13 5 -23 10 -23 5 0 9 35 9 77 1 50 -3 72 -9 62 -5 -9 -9
-9 -9 -2 0 6 4 14 9 17 5 3 11 21 13 40 3 26 0 32 -10 28 -9 -3 -32 14 -59 43
l-44 48 -42 -31 c-79 -60 -327 -204 -341 -199 -12 5 -26 69 -26 121 0 12 22
48 49 80 30 36 53 75 60 101 14 55 15 1212 2 1248 -8 19 -19 26 -54 31 -25 4
-47 12 -50 19 -5 14 8 121 18 136 3 6 44 29 90 51 75 36 193 109 236 146 25
22 48 17 55 -13 4 -14 5 -214 2 -444 -4 -244 -2 -417 3 -413 5 3 9 11 9 17 0
7 18 61 40 122 32 86 39 119 35 153 -6 46 8 72 35 65 13 -4 13 -3 0 6 -8 5
-18 7 -22 5 -4 -3 -8 15 -8 40 0 25 -4 46 -10 46 -5 0 -10 7 -10 15 0 8 5 15
10 15 6 0 10 7 10 15 0 8 -5 15 -12 15 -9 0 -9 3 0 12 7 7 12 17 12 23 0 5 -5
3 -10 -5 -8 -12 -10 -11 -10 6 0 12 -13 35 -30 52 -34 36 -41 55 -10 27 11
-10 20 -14 20 -10 0 4 11 -4 26 -20 14 -15 27 -25 30 -23 2 3 -5 13 -16 23
-25 22 -26 35 -2 35 16 1 16 1 0 14 -10 7 -18 16 -18 20 0 3 8 6 18 6 13 0 14
2 4 9 -11 6 -12 56 -7 256 5 199 4 250 -7 256 -10 7 -9 9 5 9 9 0 17 7 17 16
0 18 -6 15 -84 -44 -102 -78 -358 -226 -476 -276 -63 -26 -140 -58 -170 -71
-205 -88 -632 -179 -1060 -226 -157 -18 -767 -18 -930 -1 -371 39 -706 109
-896 188 -112 46 -107 43 -92 62 11 14 10 14 -12 -1 -13 -9 -28 -17 -32 -17
-14 0 -9 27 7 40 8 7 12 16 9 21 -10 16 29 9 211 -37 427 -108 730 -150 1145
-161 236 -6 495 5 673 27 42 6 114 15 160 20 293 38 727 147 914 231 36 16 70
29 76 29 5 0 78 34 161 75 115 56 176 94 256 158 107 85 170 148 170 170 0 6
-7 1 -16 -11 -21 -31 -38 -28 -18 3 16 24 16 25 -2 19 -15 -6 -13 0 9 23 42
46 32 49 -20 5 -103 -84 -184 -133 -138 -82 17 18 19 39 19 168 -1 81 -4 160
-8 176 -7 29 -7 29 -22 7 -8 -11 -24 -21 -35 -21 -16 0 -20 6 -17 28 2 19 9
27 23 27 14 0 21 8 23 28 2 16 -1 27 -8 27 -12 0 -11 21 5 80 l6 25 -17 -22
c-22 -31 -38 -29 -30 3 18 72 75 103 77 42 0 -27 2 -29 8 -13 5 11 5 28 0 37
-11 20 0 78 14 78 5 0 2 9 -7 19 -16 18 -16 23 -2 65 19 56 19 57 4 53 -17 -3
-21 28 -6 44 7 8 14 30 16 49 2 26 0 31 -7 20 -8 -12 -11 -8 -11 15 0 17 5 36
11 42 5 5 12 30 14 54 2 24 1 38 -2 32 -2 -7 -9 -13 -14 -13 -12 0 -11 21 1
40 9 13 11 13 21 0 9 -13 10 -12 5 3 -3 10 -6 35 -7 55 0 20 -3 31 -6 25 -7
-20 -23 -15 -23 6 0 24 16 36 23 19 3 -7 6 11 6 40 1 31 -3 51 -8 47 -15 -8
-23 13 -13 31 6 11 11 13 16 5 12 -19 23 -12 20 12 -1 12 -3 22 -4 22 -7 0 -5
162 2 171 9 12 5 55 -7 75 -4 6 -18 -2 -36 -22 -16 -18 -32 -30 -35 -26 -4 3
7 19 24 34 32 30 92 120 71 108 -9 -6 -10 -2 -6 16 4 13 7 38 7 54 0 20 3 26
9 17 6 -10 10 -9 14 7 3 13 1 19 -5 15 -11 -7 -7 33 6 71 7 20 7 20 -8 1 -13
-16 -16 -17 -21 -4 -3 8 10 41 30 74 20 32 34 67 31 77 -2 9 0 15 4 12 14 -9
0 157 -16 187 -8 16 -11 28 -7 27 23 -4 32 3 27 19 -11 31 -38 82 -46 82 -7 0
-3 34 7 50 3 6 15 10 26 10 18 0 19 6 17 75 -2 41 -7 75 -11 75 -5 0 -5 9 -2
20 3 11 1 36 -6 55 -11 28 -11 40 -1 55 15 24 16 57 2 65 -19 12 -11 62 13 79
14 10 16 14 5 10 -22 -7 -22 4 -3 30 8 11 15 27 15 35 0 11 -6 9 -20 -9 l-20
-25 0 38 c0 23 4 36 10 32 6 -4 10 8 10 30 0 22 -4 34 -10 30 -6 -4 -10 8 -10
29 0 26 5 36 20 41 11 3 20 10 20 15 0 13 -31 0 -58 -24 -13 -12 -24 -20 -25
-18 -1 2 -9 0 -19 -3 -24 -10 -77 22 -84 50 -3 14 -1 39 6 55 10 24 19 30 41
30 27 0 29 -3 29 -41 0 -48 -22 -50 -30 -3 -6 28 -6 29 -18 7 -16 -29 -15 -38
4 -57 24 -25 58 -19 87 14 30 33 37 87 12 96 -20 8 -20 77 -1 93 8 7 27 16 43
20 15 4 29 14 29 22 1 8 2 22 3 32 0 9 7 17 15 17 11 0 13 10 9 39 -3 23 -1
41 6 45 7 5 11 -4 11 -25 0 -18 3 -30 6 -26 4 3 10 70 14 149 8 150 25 211 63
224 9 3 17 13 17 22 0 13 -2 14 -9 4 -12 -20 -45 -10 -49 13 -6 39 -25 76 -36
72 -14 -6 -40 48 -31 62 8 15 -22 58 -45 64 -11 3 -20 12 -20 20 0 8 -9 17
-20 20 -33 8 -24 28 10 22 17 -3 30 -1 30 4 0 13 -26 32 -33 24 -4 -3 -7 -1
-7 5 0 7 7 12 15 12 21 0 19 13 -6 28 -16 11 -18 16 -9 28 10 11 10 14 0 14
-6 0 -63 20 -126 45 -62 25 -138 53 -169 62 -59 18 -66 26 -35 43 16 9 18 8
14 -5 -4 -10 0 -15 12 -15 19 0 200 -42 259 -60 24 -8 27 -7 14 3 -8 7 -18 20
-22 30 -4 9 -18 22 -31 27 -18 6 -24 15 -21 30 3 14 -5 26 -23 38 -15 9 -36
27 -47 38 -18 21 -20 21 -45 5 l-25 -16 28 38 c27 36 28 63 2 53 -20 -7 -41
22 -27 36 21 21 12 31 -10 12 l-22 -19 17 28 c27 43 7 30 -63 -40z m194 -616
c1 -24 9 -41 30 -58 15 -14 30 -36 31 -49 7 -49 17 -105 21 -112 8 -13 34
-172 33 -203 -1 -26 -2 -24 -11 13 -5 23 -13 40 -19 37 -5 -4 -9 -4 -9 -1 0 2
-3 13 -6 23 -5 15 -4 15 5 3 13 -18 13 -3 1 25 -5 11 -9 14 -9 6 -1 -11 -4
-11 -16 -1 -8 7 -15 18 -15 24 0 14 -55 48 -64 39 -3 -3 -6 2 -6 13 0 10 -9
46 -19 79 -30 96 -30 110 -1 111 14 1 33 -2 43 -7 26 -14 21 4 -10 36 -16 16
-22 25 -14 20 10 -6 12 -2 6 14 -3 11 -3 26 0 32 12 18 28 -6 29 -44z m-416
-28 c47 -13 118 -71 107 -88 -3 -7 0 -8 9 -5 11 4 13 0 9 -15 -6 -24 -18 -27
-27 -8 -5 9 -7 9 -12 0 -3 -7 -13 -9 -22 -6 -12 5 -11 -1 7 -25 12 -18 20 -36
17 -41 -3 -5 8 -22 25 -39 26 -25 29 -33 20 -51 -12 -22 -40 -19 -42 5 -2 20
-4 26 -20 59 -25 54 -50 75 -87 75 -31 0 -34 -2 -28 -22 3 -13 13 -66 21 -118
24 -141 23 -140 46 -140 11 0 30 5 42 11 l22 11 -22 -21 c-12 -11 -27 -21 -33
-21 -14 0 -13 -9 5 -27 9 -8 13 -18 9 -22 -4 -3 -9 0 -11 7 -3 6 -10 12 -16
12 -8 0 -11 -15 -9 -45 3 -28 0 -45 -7 -45 -6 0 -11 -8 -11 -17 0 -13 3 -15 8
-5 5 8 13 -12 20 -51 17 -90 15 -110 -10 -142 -15 -19 -21 -40 -20 -64 4 -51
12 -72 24 -65 8 5 9 -1 5 -17 -4 -13 -7 -27 -7 -31 0 -3 -22 -11 -50 -18 -27
-7 -50 -15 -50 -20 0 -15 28 -30 45 -24 13 5 16 2 13 -13 -4 -23 18 -53 38
-53 8 0 14 -6 14 -14 0 -8 25 -39 55 -70 31 -31 51 -56 45 -56 -7 0 -35 22
-62 50 -43 41 -54 47 -70 39 -26 -14 -21 -71 5 -75 26 -4 33 -12 19 -26 -9 -9
-12 -8 -12 5 0 15 -3 16 -21 7 -11 -7 -23 -9 -26 -6 -9 9 -44 -15 -40 -27 2
-7 0 -22 -4 -34 -9 -25 0 -30 19 -11 22 22 22 1 -1 -29 -18 -25 -22 -42 -21
-90 1 -32 3 -59 4 -60 8 -9 4 -71 -4 -83 -6 -8 -6 -11 -1 -7 5 4 14 -2 21 -14
l12 -22 7 23 c5 15 3 26 -4 28 -14 5 -15 39 -1 47 5 3 25 3 45 -1 37 -7 50
-36 21 -47 -15 -6 -62 -145 -52 -154 3 -4 -5 -16 -19 -29 -19 -17 -21 -23 -10
-28 8 -3 15 0 15 7 0 8 3 8 9 -2 7 -11 10 -10 14 5 2 10 5 2 6 -19 0 -21 6
-47 11 -58 6 -10 7 -19 2 -19 -4 0 -8 -8 -8 -17 0 -10 -3 -30 -7 -45 -5 -17
-3 -28 3 -28 5 0 10 6 10 14 0 21 17 28 24 10 4 -10 2 -13 -7 -8 -9 5 -9 4 1
-7 6 -7 12 -21 12 -31 0 -12 7 -17 23 -15 17 2 23 -4 25 -25 3 -23 -1 -28 -18
-28 -13 0 -24 8 -27 20 -6 23 -23 27 -23 5 0 -8 5 -15 11 -15 6 0 9 -7 5 -15
-4 -10 1 -14 17 -12 16 1 21 -3 19 -15 -1 -9 2 -19 8 -23 5 -3 10 -15 10 -26
0 -21 10 -25 27 -8 14 14 27 -22 18 -51 -5 -15 -3 -18 9 -14 9 3 16 9 16 13 0
4 23 7 52 6 49 0 52 -2 60 -30 9 -34 -5 -86 -33 -127 -11 -14 -19 -30 -19 -35
0 -5 -13 -23 -30 -41 -31 -34 -37 -56 -20 -67 6 -3 10 -10 10 -16 0 -13 -28
-11 -32 3 -3 7 -7 6 -11 -5 -4 -11 -1 -17 8 -17 8 0 15 -4 15 -10 0 -5 6 -10
14 -10 7 0 19 -7 26 -15 15 -19 40 -3 40 26 0 22 12 30 30 19 11 -7 9 -15 -11
-42 -14 -18 -29 -41 -32 -51 -4 -11 -16 -21 -28 -24 -11 -3 -18 -11 -16 -17 3
-6 1 -34 -4 -61 -6 -43 -5 -52 11 -66 44 -38 118 -133 113 -146 -7 -18 -23 -6
-23 18 0 21 -16 26 -22 7 -3 -7 -15 -3 -36 12 -31 23 -37 37 -32 70 3 26 -11
4 -16 -24 -2 -15 0 -26 7 -26 7 0 9 -10 7 -25 -3 -14 -1 -25 3 -25 5 0 9 5 9
10 0 6 5 10 11 10 6 0 9 -6 6 -14 -3 -7 -1 -18 5 -24 13 -13 2 -48 -17 -56
-12 -4 -15 3 -15 32 0 27 -3 33 -10 22 -5 -8 -7 -23 -4 -32 3 -12 0 -18 -10
-18 -23 0 -20 -18 4 -25 16 -5 19 -12 14 -28 -6 -19 -5 -20 9 -9 13 11 17 10
25 -5 11 -20 -1 -63 -18 -63 -16 0 -12 -38 6 -48 13 -7 15 -18 9 -51 -4 -22
-11 -41 -16 -41 -5 0 -9 -7 -9 -16 0 -14 2 -15 17 -3 15 13 16 10 10 -35 -4
-27 -12 -55 -17 -61 -8 -9 -5 -14 11 -18 30 -8 22 -51 -10 -55 l-23 -4 21 -15
c18 -12 22 -25 22 -71 0 -32 0 -82 0 -112 1 -30 -4 -56 -10 -58 -6 -2 -11 -10
-11 -18 0 -8 -7 -14 -16 -14 -8 0 -13 -4 -10 -9 3 -5 15 -7 27 -4 17 5 20 2
17 -18 -1 -13 -10 -24 -18 -24 -16 0 -30 -14 -30 -30 0 -5 5 -3 11 5 7 11 8 4
4 -25 -3 -27 -2 -33 3 -20 9 19 9 19 21 -3 14 -27 -1 -55 -25 -45 -25 9 -15
-30 13 -53 25 -20 26 -24 14 -50 -11 -25 -14 -27 -22 -11 -6 10 -7 27 -4 38 5
15 4 19 -4 15 -6 -4 -11 -14 -11 -22 0 -11 -6 -13 -21 -9 -16 5 -20 3 -17 -6
3 -8 10 -14 16 -14 5 0 14 -3 18 -8 4 -4 0 -7 -9 -7 -9 0 -19 -5 -23 -12 -5
-8 -2 -9 11 -5 11 5 22 1 29 -9 12 -15 15 -15 47 1 19 10 28 20 22 22 -18 6
-16 23 2 23 8 0 15 -5 15 -11 0 -6 7 -8 15 -5 43 17 46 15 10 -7 -183 -116
-503 -237 -815 -311 -700 -165 -1535 -165 -2210 -2 -94 23 -252 67 -259 72 -2
2 9 14 23 27 25 23 25 25 6 30 -26 7 -26 41 0 53 19 9 18 11 -13 44 -17 19
-38 43 -46 53 -12 15 -12 17 3 11 9 -3 16 -10 16 -15 0 -18 18 -8 25 14 9 25
8 44 -1 101 -5 30 -4 37 6 31 10 -6 11 22 6 140 -4 83 -11 154 -18 162 -7 9
-7 17 2 28 6 8 9 19 5 25 -3 5 -1 10 6 10 7 0 6 8 -5 25 -18 27 -21 65 -6 65
6 0 10 14 10 30 0 17 -4 30 -9 30 -21 0 -22 35 -1 52 12 10 17 18 10 18 -7 0
-10 8 -7 20 3 11 1 23 -4 26 -5 3 -9 20 -7 39 1 24 6 31 16 27 11 -4 13 0 7
19 -4 12 -14 29 -21 37 -18 18 -18 41 1 48 9 4 15 19 15 36 0 20 -4 29 -12 25
-9 -3 -13 10 -14 47 0 28 1 43 3 34 5 -19 33 -25 33 -7 0 5 -5 7 -10 4 -7 -4
-8 3 -4 21 5 19 3 25 -4 20 -18 -11 -28 45 -11 58 18 14 23 56 7 56 -7 0 -21
-9 -33 -20 -11 -11 -34 -32 -51 -48 l-31 -28 -1 34 c-1 29 1 32 13 22 19 -16
52 7 35 24 -15 15 -12 29 5 22 25 -9 45 4 45 30 0 13 4 24 9 24 5 0 12 12 16
27 4 19 2 29 -9 35 -17 9 -22 54 -8 60 5 2 12 16 16 32 6 23 4 27 -7 23 -11
-4 -16 4 -19 28 -3 24 0 31 9 28 14 -6 18 13 5 21 -5 3 -7 48 -4 101 2 53 -1
109 -7 125 -5 17 -6 28 -2 25 5 -2 11 8 13 24 3 22 -8 50 -43 110 -37 63 -45
82 -34 91 18 15 40 4 54 -27 8 -17 15 -23 22 -16 11 11 2 43 -12 43 -7 0 -10
37 -9 118 0 12 -6 22 -13 22 -8 0 -7 3 3 10 8 5 11 12 7 16 -7 8 -129 -49
-151 -71 -8 -8 -23 -11 -37 -7 l-24 6 24 6 c14 3 27 12 29 19 3 9 -2 11 -17 6
-11 -3 -21 -2 -21 3 0 10 141 102 156 102 5 0 22 11 38 25 16 14 24 25 18 25
-7 0 -9 19 -6 54 4 44 2 55 -12 60 -10 4 -22 2 -28 -4 -24 -24 -60 -4 -48 28
5 15 32 16 32 1 0 -5 5 -7 10 -4 6 3 10 16 10 29 0 27 18 46 36 39 8 -3 14 0
14 7 0 6 -4 9 -9 6 -5 -3 -12 4 -16 17 l-7 22 -7 -25 c-12 -43 -58 -35 -63 10
-3 22 1 25 25 23 24 -2 27 1 27 32 0 27 -4 34 -22 37 -35 5 -35 34 -1 32 18 0
29 -7 31 -18 2 -10 10 -15 18 -12 8 3 14 0 14 -6 0 -6 3 -8 6 -5 4 4 1 13 -6
22 -7 8 -10 24 -7 34 4 18 0 20 -51 18 l-55 -2 -57 145 c-32 80 -63 156 -69
169 -20 45 -14 61 22 61 17 0 38 4 46 9 10 7 19 4 29 -7 7 -9 11 -12 8 -5 -4
6 -2 14 3 17 8 5 71 -122 71 -144 0 -6 5 -10 10 -10 6 0 10 -8 10 -17 1 -10 7
-29 15 -43 l14 -25 1 25 c0 14 -7 36 -16 48 -12 18 -13 26 -4 37 9 11 9 18 -4
30 -9 9 -16 23 -16 31 0 9 -12 35 -26 59 -14 25 -23 49 -19 55 6 9 -41 81 -57
88 -5 2 -8 10 -8 18 0 8 -4 14 -9 14 -14 0 -24 39 -14 53 10 13 9 203 -1 242
-5 18 -2 25 9 25 13 0 15 -21 15 -132 0 -147 8 -217 21 -196 5 7 9 26 9 41 0
19 4 26 12 21 6 -4 8 -3 5 3 -7 10 28 146 79 310 28 90 28 91 68 104 23 7 48
13 56 15 8 1 30 5 49 9 36 9 35 12 17 -51 -4 -12 -2 -32 4 -45 l10 -24 -1 25
c-2 38 12 88 27 101 22 18 16 25 -22 24 -37 -2 -38 1 -18 49 5 14 4 17 -5 12
-16 -10 -41 11 -41 35 0 24 27 49 45 43 9 -4 15 -19 15 -40 0 -22 6 -37 15
-41 19 -7 20 -5 29 31 6 23 4 27 -8 23 -11 -4 -18 1 -22 18 -9 38 4 65 33 65
23 0 25 -3 21 -35 -2 -22 1 -36 9 -39 7 -3 13 0 13 7 0 8 4 6 10 -3 5 -8 10
-10 10 -5 0 6 3 20 6 31 4 16 0 23 -15 27 -21 5 -27 30 -15 61 8 21 34 21 34
0 0 -8 4 -13 8 -10 5 3 6 -8 4 -25 -4 -26 -1 -29 21 -29 20 0 27 6 32 31 5 21
10 28 17 21 6 -6 17 -8 26 -5 12 5 14 1 9 -16 -14 -56 30 -71 52 -18 10 23 15
27 18 15 2 -9 10 -15 18 -12 9 4 15 -4 17 -28 2 -25 8 -33 23 -33 13 0 21 8
23 23 3 16 10 22 30 22 22 0 27 -5 29 -28 2 -36 -15 -56 -33 -41 -10 8 -14 8
-14 0 0 -6 -11 -13 -25 -17 -37 -9 -30 -24 8 -18 55 10 101 26 120 42 41 36
263 50 307 19 12 -8 28 -13 35 -10 8 2 24 -1 37 -9 21 -12 49 -17 107 -19 13
-1 27 5 32 13 6 9 9 7 9 -9 0 -13 4 -23 9 -23 8 0 24 -30 70 -132 92 -206 161
-350 161 -338 0 8 -7 67 -15 131 -8 64 -17 166 -21 228 -6 101 -5 111 10 105
10 -4 16 -1 16 7 0 9 3 10 8 3 4 -5 18 -10 32 -10 14 0 29 5 33 10 6 8 10 7
13 -1 3 -7 11 -10 18 -7 15 6 14 8 40 -176 8 -63 25 -182 36 -265 12 -82 23
-176 25 -207 2 -32 6 -62 10 -68 4 -6 9 -35 12 -66 6 -54 6 -55 -18 -46 -13 5
-30 7 -37 4 -8 -2 -26 2 -40 9 -20 11 -26 11 -29 2 -7 -20 -66 -16 -84 5 -31
36 -50 85 -37 93 9 6 9 13 -2 33 -11 21 -16 24 -28 14 -13 -11 -14 -8 -8 22 6
30 5 33 -6 19 -12 -15 -16 -12 -33 27 -11 24 -22 44 -25 44 -3 0 -26 41 -50
90 -24 50 -48 90 -52 90 -10 0 0 -273 13 -349 13 -77 12 -114 -3 -105 -11 7
-100 6 -139 -1 -24 -5 -26 6 -34 155 -3 63 -8 132 -12 153 l-6 38 -18 -27
c-11 -17 -16 -40 -14 -60 4 -25 1 -33 -15 -37 -27 -7 -27 -53 0 -60 15 -4 20
-14 20 -42 0 -27 -4 -36 -14 -32 -21 8 -42 -38 -27 -57 7 -8 19 -12 27 -9 8 3
14 0 14 -7 0 -8 -12 -10 -42 -5 -24 4 -53 7 -65 6 -20 -1 -23 4 -23 34 0 39
-12 50 -37 37 -10 -5 -37 -13 -60 -17 -36 -6 -43 -4 -43 9 0 9 -4 16 -10 16
-5 0 -10 -6 -10 -13 0 -13 -53 -37 -83 -37 -10 0 -17 -8 -17 -19 0 -21 9 -20
-133 -5 -32 3 -60 11 -63 17 -2 7 -19 13 -38 14 -45 4 -55 -21 -19 -44 14 -10
36 -40 49 -68 l23 -50 0 43 c1 23 3 42 6 42 2 0 30 -7 62 -15 31 -8 80 -15
109 -15 28 0 67 -6 85 -14 19 -7 61 -17 94 -21 40 -5 66 -13 79 -27 17 -18 20
-19 28 -4 7 13 19 15 66 10 31 -4 63 -12 70 -17 14 -11 93 -13 302 -6 l124 4
6 -25 c4 -17 8 -21 14 -12 4 6 4 17 1 22 -6 10 -2 11 45 14 14 1 31 5 38 10 8
5 21 1 32 -9 18 -16 20 -16 46 4 19 15 30 18 34 10 4 -6 23 -9 43 -8 20 2 39
0 43 -4 4 -4 2 -7 -4 -7 -7 0 -12 -4 -12 -10 0 -19 28 -10 33 10 4 16 14 20
49 22 23 0 54 2 68 4 112 12 208 27 344 54 87 17 168 29 181 26 51 -13 226 36
269 76 12 11 28 15 46 11 21 -4 29 -1 34 13 3 11 19 26 34 35 27 15 30 15 41
-3 6 -10 19 -17 29 -16 11 2 16 -3 15 -16 -1 -11 5 -25 12 -32 11 -11 13 -8
13 21 0 18 5 50 12 70 7 20 9 52 5 75 -7 39 -7 39 -27 20 -13 -12 -19 -27 -16
-42 4 -20 0 -24 -24 -26 -16 -1 -36 5 -45 13 -21 22 -46 15 -54 -15 l-7 -25
-1 25 c-2 32 -21 65 -21 37 0 -23 -66 -91 -79 -83 -5 3 -28 -1 -51 -9 -23 -8
-57 -15 -75 -15 -17 0 -34 -2 -37 -5 -3 -3 -44 -7 -92 -9 -74 -3 -90 -1 -111
16 -36 28 -72 95 -100 183 -39 123 -47 192 -43 363 5 177 19 230 85 309 36 46
53 54 53 26 0 -14 2 -15 18 -1 9 8 30 19 47 22 27 7 28 9 12 21 -16 12 -16 13
5 19 32 8 50 7 44 -2 -2 -4 11 -7 30 -6 42 2 113 -50 158 -114 29 -42 54 -57
41 -24 -15 37 -17 52 -5 52 16 0 3 41 -19 58 -14 11 -17 10 -22 -10 -5 -21 -6
-20 -10 8 -4 26 -2 30 15 28 12 -1 21 -3 21 -4 0 -1 12 -4 28 -6 18 -2 27 2
27 12 0 8 4 14 9 14 4 0 6 -10 4 -22 -2 -13 3 -32 11 -43 15 -20 16 -19 41 13
27 33 62 45 52 17 -4 -8 -2 -17 3 -20 6 -4 10 -14 9 -23 0 -11 -3 -12 -6 -4
-5 14 -29 16 -37 4 -8 -14 5 -50 20 -56 9 -4 18 4 25 21 13 34 15 30 23 -45 5
-44 4 -62 -3 -57 -17 10 -13 -46 4 -59 16 -12 47 -166 33 -166 -4 0 -8 -8 -8
-17 0 -15 -2 -16 -10 -3 -6 9 -10 10 -10 3 0 -21 12 -43 21 -38 14 9 30 -33
29 -78 -1 -23 6 -64 14 -92 l16 -50 -5 90 c-7 100 -39 391 -59 524 -7 48 -11
91 -9 96 4 14 146 9 201 -6z m-974 -193 c-4 -11 -2 -16 4 -12 6 3 14 1 17 -5
4 -5 14 -8 22 -5 11 5 13 -1 8 -27 -3 -17 -8 -62 -12 -100 -5 -54 -9 -65 -19
-56 -17 14 -34 3 -34 -22 0 -13 7 -19 24 -19 21 0 24 -5 28 -42 3 -31 -1 -45
-15 -59 -15 -13 -17 -22 -9 -36 6 -10 14 -16 18 -13 4 3 13 -15 20 -40 17 -57
17 -60 0 -60 -11 0 -14 -11 -13 -41 1 -34 3 -38 13 -24 8 11 14 13 19 5 4 -6
1 -17 -5 -25 -6 -8 -9 -19 -5 -25 3 -5 0 -17 -8 -25 -19 -19 -11 -52 15 -61
13 -4 25 1 35 13 13 16 14 16 9 1 -3 -10 -1 -18 4 -18 6 0 10 -9 10 -20 0 -12
9 -24 23 -29 21 -8 20 -9 -9 -15 -17 -4 -35 -6 -40 -5 -25 4 -45 -2 -38 -13 4
-6 3 -8 -3 -5 -5 3 -8 19 -6 34 2 15 -4 37 -12 48 -14 17 -17 18 -25 5 -9 -13
-10 -13 -11 0 0 8 -5 3 -11 -12 -7 -22 -6 -31 6 -44 20 -20 20 -25 -1 -17 -10
4 -14 2 -10 -4 6 -10 -57 -12 -66 -3 -11 12 -17 61 -7 55 14 -9 13 8 -2 25 -7
8 -4 7 8 -3 11 -9 26 -17 32 -17 16 0 30 30 24 54 -4 17 -2 19 9 9 21 -20 34
-15 46 17 9 25 8 34 -7 52 l-19 23 -22 -21 -21 -22 21 -11 c11 -7 21 -17 21
-24 0 -8 -2 -9 -8 -1 -4 6 -18 14 -32 18 -18 5 -21 5 -10 -3 8 -5 11 -13 7
-17 -4 -4 -12 -3 -18 3 -9 9 -18 4 -36 -18 -13 -16 -22 -33 -18 -39 3 -6 -2
-18 -11 -27 -13 -13 -19 -14 -22 -5 -4 14 -22 7 -22 -9 0 -6 4 -8 9 -5 13 9
22 -37 9 -49 -7 -7 -12 -6 -15 3 -4 9 -11 6 -25 -10 -15 -18 -21 -20 -28 -9
-6 11 -14 10 -38 -8 -39 -27 -44 -27 -36 4 4 15 2 25 -5 25 -6 0 -11 -7 -11
-15 0 -9 -9 -15 -25 -15 -26 0 -26 1 -40 112 -4 28 -2 49 5 53 6 4 10 -9 10
-35 0 -34 4 -43 21 -47 14 -4 19 -12 16 -24 -3 -11 -2 -17 3 -14 17 11 20 85
4 110 -9 13 -13 29 -9 36 6 8 -2 9 -26 4 -19 -4 -31 -4 -26 1 4 4 0 16 -9 26
-13 14 -15 29 -10 73 5 44 3 57 -9 61 -23 9 -30 70 -11 89 22 22 20 46 -3 52
-11 3 -21 17 -25 35 -10 52 -7 69 12 66 14 -3 17 5 18 47 1 28 0 38 -3 24 -3
-20 -9 -26 -23 -22 -13 4 -20 18 -25 55 -4 27 -4 52 -1 55 3 4 6 1 6 -5 0 -7
9 -12 20 -12 11 0 20 6 20 14 0 8 7 16 15 20 8 3 14 2 12 -2 -1 -4 2 -7 8 -7
5 0 9 5 7 12 -1 6 2 14 8 18 6 3 10 -3 10 -15 0 -26 41 -43 72 -30 18 7 19 9
6 9 -19 1 -26 31 -8 31 6 0 10 -4 10 -10 0 -5 7 -7 15 -4 9 4 15 0 16 -7 1 -8
5 -3 9 11 8 24 8 24 9 3 1 -17 7 -23 25 -23 24 0 51 22 40 33 -4 3 2 14 12 24
17 17 18 17 11 0 -6 -15 -3 -17 13 -12 16 5 20 2 20 -14 0 -12 7 -21 15 -21
19 0 37 34 28 56 -4 12 -3 15 5 10 7 -4 12 -17 13 -29 0 -22 0 -22 10 1 5 13
14 20 20 16 8 -4 9 1 4 17 -5 18 -4 21 4 9 6 -8 8 -23 5 -34z m-2244 -2076
c23 -18 45 -48 55 -74 16 -41 16 -46 0 -80 -21 -44 -21 -43 -107 62 -55 66
-59 76 -49 98 15 33 54 31 101 -6z m-160 -2301 c51 -18 125 -95 161 -165 52
-106 42 -202 -25 -244 -25 -16 -88 -15 -118 1 -70 37 -148 123 -148 166 0 10
-7 27 -15 37 -10 13 -15 43 -15 86 0 55 4 71 23 92 35 40 76 48 137 27z"/>
<path d="M8917 6180 c-31 -37 -42 -122 -32 -248 16 -192 51 -309 102 -335 31
-16 83 -20 83 -5 0 5 4 7 9 3 5 -3 20 9 33 27 20 29 23 45 25 143 1 97 0 108
-13 91 -8 -11 -14 -14 -14 -8 0 7 -7 12 -15 12 -22 0 -18 -18 6 -31 20 -10 21
-16 14 -92 -7 -79 -18 -112 -35 -102 -5 3 -11 -4 -15 -15 -3 -11 -15 -20 -26
-20 -42 0 -88 69 -90 134 0 25 -2 27 -8 11 -6 -15 -9 -7 -13 30 -4 27 -11 51
-17 53 -14 5 -15 42 -1 42 6 0 10 5 10 11 0 5 -3 8 -7 6 -5 -3 -9 39 -9 94 -1
54 2 96 7 93 8 -5 16 18 21 66 2 14 8 25 13 25 6 0 16 4 23 9 14 9 45 -11 37
-24 -3 -5 -2 -15 1 -24 4 -11 11 -13 22 -7 14 8 20 1 34 -37 10 -26 18 -56 18
-68 0 -11 7 -29 15 -40 8 -10 15 -29 15 -41 0 -13 4 -23 9 -23 5 0 5 15 0 38
-5 20 -12 53 -15 72 -10 60 -60 153 -92 173 -43 24 -67 21 -95 -13z"/>
<path d="M8433 4718 c-11 -35 -53 -155 -93 -267 -39 -112 -69 -210 -66 -218 3
-8 2 -12 -3 -9 -5 3 -45 -94 -89 -217 l-80 -222 -184 -3 c-200 -4 -465 10
-653 34 -131 16 -270 40 -288 50 -13 7 68 -72 99 -96 10 -8 39 -31 64 -50 25
-19 49 -40 55 -46 5 -5 28 -23 50 -39 22 -16 49 -37 60 -47 20 -17 76 -57 175
-126 46 -33 61 -38 95 -34 45 4 95 -26 95 -57 0 -9 6 -23 13 -31 6 -8 2 -6
-10 4 -13 11 -23 15 -23 9 0 -12 26 -36 55 -51 18 -9 20 -7 20 31 0 35 4 44
26 54 14 7 31 24 39 38 21 40 62 34 117 -18 39 -37 43 -45 30 -55 -12 -10 -21
-7 -48 23 -36 37 -69 46 -69 18 0 -9 17 -34 37 -55 31 -32 34 -38 19 -44 -12
-5 -28 3 -50 25 -32 31 -60 39 -71 21 -3 -5 12 -29 33 -52 22 -24 37 -48 35
-54 -2 -6 8 -16 23 -23 24 -11 26 -15 21 -54 -4 -23 -20 -75 -37 -116 -17 -41
-28 -82 -25 -90 3 -9 3 -12 -1 -8 -4 4 -18 -19 -29 -50 -36 -95 -39 -107 -25
-98 9 5 11 4 6 -4 -4 -6 -11 -9 -15 -7 -3 3 -14 -15 -23 -40 -8 -24 -12 -44
-8 -44 5 0 11 6 14 13 3 6 3 1 0 -12 -4 -15 -2 -21 4 -17 6 3 13 -3 17 -14 3
-11 12 -21 18 -21 7 -1 46 -38 87 -83 l75 -82 40 19 c41 20 177 110 208 138 9
9 30 22 45 30 15 8 75 49 133 92 59 42 112 77 118 77 12 0 84 -32 91 -41 12
-15 53 -30 66 -25 8 3 13 2 10 -3 -3 -4 6 -14 19 -21 22 -12 28 -11 50 10 14
13 28 20 32 17 3 -4 -4 -15 -15 -26 -27 -23 -24 -26 86 -81 56 -28 90 -39 105
-35 17 5 19 4 7 -4 -11 -8 17 -25 120 -74 142 -68 274 -127 284 -127 3 0 -8
37 -25 83 -17 45 -36 101 -43 125 -6 24 -15 40 -20 35 -5 -4 -6 1 -2 12 3 11
1 27 -5 35 -9 13 -10 12 -5 -3 4 -11 2 -16 -5 -11 -6 3 -8 17 -5 30 4 14 2 24
-4 24 -5 0 -10 9 -10 19 0 11 -3 27 -6 35 -6 15 -8 15 -20 -1 -12 -16 -13 -14
-4 12 8 23 6 41 -9 80 -11 28 -20 46 -21 40 -1 -16 -20 18 -19 35 0 10 3 8 9
-5 5 -11 9 -15 9 -10 2 21 -47 126 -52 113 -3 -7 -6 2 -7 20 -2 30 -4 42 -10
60 -1 4 -3 12 -4 17 -1 6 -7 23 -14 38 -7 16 -12 33 -12 38 0 5 -6 18 -12 29
-11 16 -9 22 6 33 11 8 16 19 12 25 -4 7 -2 10 6 7 16 -6 322 301 313 315 -3
5 0 8 7 6 23 -7 419 466 404 482 -2 2 -21 -5 -43 -16 -191 -98 -540 -207 -823
-258 -52 -9 -99 -22 -103 -28 -5 -7 -6 -3 -3 8 4 11 -15 75 -44 155 -81 217
-82 219 -110 181 -27 -37 -31 -21 -5 19 l26 38 -21 54 c-40 99 -110 297 -110
308 0 6 -4 11 -8 11 -5 0 -9 6 -10 13 -4 33 -48 147 -57 147 -6 0 -20 -28 -32
-62z m-27 -774 c-119 -119 -216 -219 -216 -223 0 -4 39 -47 87 -94 48 -48 84
-90 80 -94 -4 -3 -48 34 -98 84 l-90 91 -35 -36 c-19 -19 -37 -32 -41 -28 -5
4 -1 12 8 17 9 4 24 20 34 35 16 25 16 27 -6 50 -12 13 -19 27 -15 31 5 5 15
-2 23 -14 9 -13 22 -23 29 -23 8 0 108 95 224 210 116 116 215 210 221 210 5
0 -87 -97 -205 -216z"/>
<path d="M7672 2618 c-13 -35 -24 -70 -24 -78 -1 -8 -4 -17 -8 -20 -18 -13
-61 -150 -55 -176 4 -21 3 -24 -3 -10 -8 18 -9 18 -15 2 -4 -10 -2 -26 3 -37
7 -13 7 -19 0 -19 -5 0 -10 6 -10 13 0 8 -4 7 -10 -3 -5 -8 -9 -24 -9 -35 l0
-20 9 20 c5 11 9 14 9 8 1 -13 100 40 113 61 4 6 8 8 8 3 0 -8 4 -6 130 75 47
30 91 57 97 59 13 4 -142 169 -159 169 -4 0 -8 5 -8 11 0 11 -28 38 -40 39 -3
0 -15 -28 -28 -62z"/>
<path d="M8276 5665 c-9 -9 -16 -20 -16 -24 0 -11 35 -41 48 -41 15 0 42 -40
36 -54 -3 -7 4 -21 16 -31 24 -22 25 -33 4 -56 -19 -21 -11 -39 16 -39 12 0
22 9 26 25 3 13 21 33 39 43 26 16 32 26 31 51 -1 22 -6 31 -18 31 -10 0 -18
6 -18 14 0 8 -5 18 -11 21 -21 14 -71 16 -85 5 -15 -13 -20 -6 -26 39 -4 30
-21 37 -42 16z"/>
<path d="M14491 5498 l-41 -41 1 -81 c0 -45 4 -121 8 -171 4 -49 3 -91 -1 -93
-11 -5 -10 -92 1 -92 5 0 13 46 18 103 4 56 9 86 11 67 6 -66 20 -52 21 21 0
41 8 100 16 132 8 32 13 71 10 87 -3 16 0 32 5 35 7 4 7 12 1 23 -7 12 -5 22
6 34 15 16 15 18 0 18 -8 0 -34 -19 -56 -42z"/>
<path d="M15353 4992 c-53 -26 -53 -26 -53 -74 0 -29 4 -48 11 -48 8 0 8 -5
-1 -15 -9 -11 -11 -109 -6 -432 3 -230 6 -422 6 -428 0 -6 3 -6 8 1 4 6 26 22
50 36 l43 25 -1 438 c0 241 -2 440 -3 442 -2 1 -13 -6 -25 -17 -26 -24 -29
-14 -6 18 8 12 20 20 25 17 5 -4 9 10 9 29 0 20 -1 36 -2 35 -2 0 -27 -12 -55
-27z"/>
<path d="M15163 4491 l-63 -24 0 -179 c0 -189 -6 -220 -49 -265 -14 -15 -34
-23 -56 -23 -59 0 -65 21 -67 221 -1 96 -3 177 -5 180 -3 7 -106 -15 -149 -31
-20 -8 -20 -13 -16 -216 2 -128 8 -218 15 -233 7 -13 29 -38 50 -54 81 -66
213 -41 312 57 79 79 89 113 93 321 2 99 2 200 0 225 l-3 46 -62 -25z"/>
<path d="M4484 4412 c-18 -26 -82 -148 -144 -272 -61 -124 -115 -229 -120
-235 -4 -5 -40 -73 -80 -150 -40 -77 -99 -187 -130 -245 -105 -195 -358 -706
-418 -846 -67 -154 -110 -278 -150 -429 -32 -122 -37 -290 -10 -340 28 -52 54
-68 118 -73 51 -4 68 0 116 24 58 29 162 127 180 169 5 14 12 23 15 20 6 -5
115 175 157 260 71 146 132 346 125 414 -2 25 0 41 5 37 5 -3 10 5 10 19 0 21
-2 22 -15 9 -20 -20 -28 -11 -12 14 11 17 10 26 -1 49 -12 25 -14 26 -18 8 -2
-10 1 -21 7 -23 6 -2 11 -11 10 -20 0 -14 -3 -12 -16 6 -23 32 -33 27 -28 -15
4 -27 2 -34 -5 -23 -5 8 -10 22 -10 31 0 8 -6 23 -13 33 -12 16 -16 11 -46
-51 -45 -91 -58 -129 -90 -249 l-26 -101 -87 -94 c-47 -52 -97 -108 -109 -124
-13 -17 -36 -44 -52 -61 -15 -18 -34 -40 -42 -50 -18 -24 -18 -14 1 87 28 147
102 354 169 474 54 97 132 202 210 284 40 42 80 93 88 114 11 25 22 37 36 37
11 0 23 5 27 12 5 8 0 9 -14 6 -12 -4 -22 -4 -22 -2 0 3 20 25 45 49 52 50
135 93 198 101 l43 6 0 -38 c-1 -42 -10 -54 -42 -54 -29 0 -113 -48 -141 -80
-21 -25 -21 -26 -3 -55 10 -16 21 -45 25 -62 8 -38 24 -54 17 -18 -2 14 0 25
4 25 5 0 15 14 23 31 16 37 65 69 106 69 17 0 26 -4 20 -8 -11 -8 -16 -42 -6
-42 9 0 58 117 67 160 3 19 14 46 24 60 9 14 23 43 30 65 7 22 25 66 40 97 25
52 28 68 29 180 1 68 4 139 6 158 3 19 -4 4 -15 -35 -10 -38 -19 -74 -20 -80
0 -5 -5 -3 -10 5 -5 8 -7 29 -4 47 6 34 9 151 5 248 -2 59 -3 56 -36 -90 -52
-240 -105 -378 -169 -447 -19 -21 -44 -38 -55 -38 -97 0 -51 293 116 735 63
167 125 346 121 350 -2 2 -17 -18 -34 -43z"/>
<path d="M4452 4147 c-156 -469 -200 -657 -156 -674 70 -27 197 346 229 672
14 151 16 203 8 208 -6 4 -40 -85 -81 -206z"/>
<path d="M15550 3525 c-103 -107 -292 -207 -565 -301 -47 -16 -92 -39 -109
-56 -15 -15 -37 -28 -47 -28 -24 0 -39 -29 -39 -75 0 -32 2 -35 24 -29 21 5
27 0 42 -33 25 -53 47 -67 58 -37 4 11 -1 18 -14 21 -22 6 -26 18 -10 28 17
11 77 -42 83 -71 7 -38 -11 -63 -57 -75 -29 -8 -45 -8 -62 1 -12 7 -27 9 -34
5 -6 -4 -27 1 -47 10 -31 15 -41 16 -75 4 -52 -17 -89 -4 -107 39 -8 17 -19
32 -25 32 -25 1 -206 -45 -206 -51 0 -4 10 -9 23 -11 21 -4 21 -5 -5 -18 -15
-7 -30 -21 -33 -32 -4 -10 -10 -18 -15 -18 -22 0 -60 21 -60 32 0 13 93 118
104 118 3 0 6 -7 6 -16 0 -10 6 -14 14 -11 8 3 50 13 92 22 87 18 107 34 100
83 -7 49 11 38 25 -16 16 -63 31 -83 71 -92 l33 -8 -34 -1 c-23 -1 -43 6 -58
21 -19 17 -23 18 -23 6 0 -52 40 -74 101 -58 30 8 46 7 75 -5 28 -11 40 -12
51 -4 10 9 18 8 32 -5 17 -16 51 -13 51 4 0 4 8 7 17 6 20 -1 30 31 14 47 -9
9 -13 6 -17 -10 -6 -21 -7 -22 -33 -5 -33 21 -61 52 -61 67 0 7 -14 15 -30 19
-30 5 -30 6 -27 63 3 54 5 57 36 68 82 27 105 107 49 170 l-31 36 26 23 c29
25 51 72 41 88 -4 6 -9 6 -13 1 -3 -5 -23 -19 -44 -32 -35 -21 -57 -48 -57
-69 0 -5 18 -28 40 -51 88 -90 24 -162 -96 -107 -33 15 -74 26 -100 26 -50 0
-115 14 -192 41 -30 11 -64 19 -75 19 -12 0 -37 9 -55 20 -63 38 -82 35 -153
-25 -35 -30 -68 -55 -73 -55 -4 0 -5 -7 -2 -16 3 -9 2 -12 -4 -9 -16 10 -86
-51 -113 -98 -14 -23 -35 -80 -47 -126 -15 -55 -34 -98 -56 -127 -40 -52 -25
-59 22 -9 38 41 53 46 30 10 -9 -14 -14 -31 -10 -37 4 -6 3 -8 -3 -5 -6 4 -18
-2 -28 -13 -10 -11 -13 -20 -7 -20 6 0 14 5 17 10 4 6 10 8 14 5 5 -2 19 7 32
21 14 15 29 22 39 18 8 -3 38 -8 65 -10 28 -3 61 -5 74 -7 19 -2 26 4 33 28 7
25 3 37 -23 74 -33 48 -32 60 6 43 45 -21 96 -13 76 12 -16 19 -18 101 -2 92
5 -3 12 -21 15 -39 4 -19 19 -46 36 -61 l30 -26 -27 -49 c-31 -56 -51 -59 -28
-4 27 64 11 72 -19 9 -26 -56 -14 -80 47 -94 81 -19 114 -16 128 11 7 12 21
28 31 36 11 7 17 19 14 27 -3 9 2 14 14 14 37 0 19 -44 -41 -103 -43 -41 -46
-42 -164 -11 l-50 12 -65 -62 c-100 -96 -253 -156 -365 -142 -64 7 -66 5 -86
-98 -8 -43 -16 -60 -30 -63 -22 -6 -24 -14 -8 -30 8 -8 7 -32 -6 -90 -20 -93
-161 -698 -210 -903 -19 -80 -43 -183 -54 -230 -11 -47 -70 -296 -131 -554
-60 -258 -110 -476 -110 -483 0 -8 11 -2 25 14 21 24 26 26 36 13 9 -13 10
-13 6 2 -7 20 17 42 37 35 10 -4 13 -1 10 7 -4 11 19 24 103 57 13 5 29 6 37
3 8 -3 23 -1 35 5 23 13 137 -8 195 -35 28 -14 33 -20 24 -31 -9 -12 -7 -13
15 -8 27 7 39 -8 15 -19 -7 -3 -3 -3 8 -1 17 5 28 -4 53 -43 17 -27 31 -54 31
-60 0 -7 4 -12 10 -12 5 0 12 -16 16 -35 l6 -35 796 0 795 0 76 57 c42 31 84
66 93 78 50 57 57 68 52 77 -4 6 -10 5 -15 -3 -6 -10 -9 -10 -9 -2 0 6 5 15
11 18 7 5 10 59 8 159 -1 84 0 156 3 162 3 5 0 14 -7 21 -11 10 -20 6 -46 -18
-47 -44 -44 -31 7 26 l44 50 -5 245 c-2 135 -7 456 -10 715 -4 259 -10 474
-15 479 -4 4 -20 -6 -36 -23 -15 -17 -32 -31 -38 -31 -5 0 1 12 15 28 61 68
70 89 73 172 3 86 -2 100 -56 153 -32 31 -23 37 12 7 46 -40 61 -21 48 65 -12
89 -8 284 11 575 23 342 35 570 29 570 -2 0 -28 -25 -58 -55z"/>
<path d="M870 3413 c-72 -29 -100 -91 -79 -176 9 -40 24 -63 68 -109 32 -32
62 -58 68 -58 30 0 81 188 69 253 -12 65 -75 110 -126 90z"/>
<path d="M12580 3402 c0 -27 35 -69 65 -76 35 -9 31 -23 -15 -66 -48 -45 -52
-76 -12 -118 33 -36 63 -52 95 -52 20 0 26 -6 30 -32 4 -18 9 -47 12 -64 8
-36 -1 -45 -46 -46 -22 -1 -33 -7 -39 -23 -8 -21 -70 -65 -91 -65 -5 0 -9 7
-9 15 0 20 -16 19 -24 -1 -9 -22 -8 -24 9 -24 9 0 26 -7 39 -15 20 -14 24 -13
44 5 15 14 29 19 46 14 15 -3 34 1 49 11 21 13 33 14 62 6 50 -13 91 -4 115
27 27 34 16 41 -16 11 -22 -21 -34 -24 -90 -22 -36 1 -76 -2 -89 -7 -19 -7
-25 -6 -25 4 0 20 23 26 94 26 79 0 111 21 121 80 9 51 25 62 25 16 0 -45 24
-69 60 -61 16 3 52 -1 81 -9 64 -20 59 -20 59 4 0 11 2 20 4 20 2 0 29 -25 60
-56 44 -44 56 -62 54 -83 -3 -23 1 -26 29 -29 28 -3 32 -1 26 15 -4 10 -12 23
-19 28 -14 12 -29 120 -16 111 15 -9 62 33 62 55 0 10 5 19 10 19 6 0 10 -8
10 -19 0 -13 6 -17 23 -14 15 2 35 -8 65 -36 40 -38 53 -61 33 -61 -5 0 -14 7
-21 15 -17 21 -25 19 -38 -9 -9 -20 -8 -27 4 -37 14 -11 13 -14 -5 -21 -12 -4
-21 -15 -21 -24 0 -15 9 -16 70 -10 39 4 84 12 100 18 24 8 36 6 64 -11 57
-36 71 -26 26 20 -22 23 -40 51 -40 63 0 17 5 14 25 -16 14 -21 34 -42 45 -48
40 -22 39 -8 -5 38 -33 34 -50 62 -61 102 -8 30 -19 71 -24 90 -9 33 -87 124
-155 179 -95 79 -137 88 -219 46 -27 -14 -59 -25 -71 -25 -12 0 -34 -9 -48
-20 -15 -12 -40 -20 -63 -20 -25 0 -49 -9 -73 -27 -26 -20 -45 -27 -76 -25
-28 1 -59 -8 -101 -30 -50 -25 -68 -29 -98 -24 -40 8 -59 34 -58 78 1 28 44
92 55 82 3 -3 10 4 17 15 15 28 -2 59 -43 76 -18 7 -42 23 -54 35 -22 20 -23
20 -23 2z"/>
<path d="M663 3163 c-28 -43 -63 -114 -79 -158 -51 -142 -35 -283 34 -293 50
-8 140 74 223 200 l52 79 -58 57 c-37 37 -70 81 -91 125 l-32 67 -49 -77z"/>
<path d="M2668 3176 c-82 -30 -203 -146 -418 -404 -128 -153 -220 -304 -235
-386 -10 -52 15 -80 64 -71 53 10 80 28 143 92 102 103 237 290 440 608 96
151 94 146 73 161 -22 17 -20 17 -67 0z"/>
<path d="M11782 2948 c-1 -39 -8 -78 -15 -87 -10 -12 -9 -13 2 -6 11 6 13 4 8
-8 -9 -23 -2 -21 41 10 39 30 34 16 -17 -40 -23 -25 -25 -34 -23 -110 2 -102
32 -477 40 -497 3 -8 9 5 13 29 13 69 14 69 42 14 22 -42 34 -54 60 -61 31 -8
32 -9 35 -73 2 -35 -2 -87 -9 -115 -13 -56 -6 -103 32 -214 l19 -55 -3 353
c-2 240 0 352 8 352 5 0 25 -9 43 -20 41 -25 52 -25 52 0 0 12 -15 29 -40 45
-29 18 -41 33 -46 59 -8 47 0 58 34 40 37 -19 42 -18 42 9 0 16 -9 28 -27 37
-23 11 -25 14 -10 17 9 3 17 9 17 14 0 6 4 8 9 5 5 -3 11 1 15 9 3 8 12 12 21
9 11 -5 15 1 15 25 0 33 14 42 24 15 10 -27 7 -54 -8 -54 -16 0 -31 -30 -19
-39 4 -3 8 -24 8 -46 0 -22 3 -53 7 -70 l7 -30 -14 30 c-11 24 -14 26 -15 10
0 -11 -4 -58 -8 -105 -4 -47 -6 -161 -4 -255 1 -93 3 -197 3 -230 1 -105 21
-35 22 80 1 56 5 98 9 91 4 -6 8 1 8 17 0 19 -4 26 -12 21 -8 -5 -9 0 -5 17 4
13 7 33 7 44 0 17 2 17 10 5 7 -11 10 -1 12 35 3 80 4 90 9 100 8 18 4 60 -6
58 -6 -1 -8 17 -5 45 l4 47 6 -45 6 -45 5 45 c5 45 6 45 7 -12 2 -45 6 -59 21
-68 11 -5 22 -10 25 -10 3 0 7 44 8 98 3 76 5 90 12 65 5 -18 12 -31 15 -28 4
2 36 -39 71 -91 36 -53 68 -98 72 -100 5 -3 8 62 8 144 0 141 -1 150 -20 155
-19 5 -20 0 -20 -90 0 -115 -8 -114 -70 10 -23 45 -45 84 -49 87 -4 3 -22 32
-39 64 -30 56 -32 66 -32 163 0 86 -3 103 -15 103 -9 0 -18 -7 -21 -15 -4 -8
-13 -15 -21 -15 -8 0 -11 -5 -7 -12 5 -7 3 -8 -5 -4 -7 5 -21 0 -32 -10 -14
-13 -34 -17 -75 -16 -60 2 -84 14 -156 84 -19 19 -40 32 -46 30 -7 -2 -12 5
-12 16 0 11 -6 24 -13 31 -11 8 -14 -3 -15 -61z"/>
<path d="M4456 2871 c4 -15 2 -21 -4 -17 -6 3 -13 -8 -17 -26 -4 -18 -13 -52
-22 -75 -8 -23 -13 -54 -11 -68 3 -14 1 -28 -3 -31 -14 -8 -10 -26 4 -18 6 4
2 -3 -10 -15 -13 -12 -23 -23 -23 -24 0 -1 -11 -58 -25 -127 -40 -204 -30
-289 28 -220 41 48 110 256 122 362 3 29 13 85 22 124 18 80 14 104 -20 104
-16 0 -27 9 -35 28 -9 21 -10 22 -6 3z"/>
<path d="M12568 2440 c2 -55 7 -98 12 -95 4 2 10 -4 13 -15 6 -22 -8 -28 -16
-7 -3 6 -6 -7 -6 -30 -1 -39 2 -43 27 -49 15 -3 34 -8 44 -10 9 -3 19 0 23 6
3 5 -1 10 -9 10 -28 0 -52 44 -48 89 5 45 16 50 80 32 30 -9 47 1 20 12 -9 4
-8 6 2 7 8 1 -10 7 -40 13 -50 11 -55 15 -58 40 -6 50 1 56 58 45 29 -5 55 -7
58 -3 13 13 -20 28 -89 41 -41 8 -74 14 -74 14 0 0 1 -45 3 -100z"/>
<path d="M12910 2473 c0 -4 20 -20 45 -35 37 -23 45 -33 45 -57 0 -36 -27 -54
-69 -48 -42 7 -49 -2 -52 -72 -4 -59 -2 -64 19 -72 21 -8 22 -6 22 45 0 29 3
56 7 59 3 4 24 -20 46 -54 22 -33 51 -65 65 -70 25 -10 44 -3 27 9 -16 11 -75
99 -75 111 0 6 11 18 24 26 13 9 27 26 30 38 7 28 -3 69 -15 61 -5 -3 -7 1 -4
8 3 8 -10 20 -33 30 -51 23 -82 31 -82 21z"/>
<path d="M13265 2432 c-88 -29 -120 -122 -72 -206 30 -53 67 -78 125 -86 63
-8 102 3 139 39 29 27 52 85 39 98 -7 7 -117 15 -133 9 -25 -10 -2 -36 32 -36
47 0 51 -15 15 -51 -28 -28 -36 -31 -77 -26 -89 10 -137 99 -98 181 9 19 21
34 25 31 5 -3 10 0 12 5 2 6 19 13 39 16 34 6 81 -9 121 -38 14 -10 20 -10 30
0 9 9 8 16 -8 30 -38 36 -131 52 -189 34z"/>
<path d="M11835 1935 c3 -110 7 -273 8 -361 2 -146 4 -161 18 -153 19 10 29
32 34 74 2 17 9 75 15 130 7 55 10 118 8 140 -12 91 -71 352 -84 364 -3 3 -2
-85 1 -194z"/>
<path d="M11987 1380 c-4 -14 -18 -108 -32 -210 -35 -256 -34 -250 -48 -244
-7 2 -22 20 -35 40 -19 30 -26 33 -38 23 -10 -8 -13 -21 -9 -38 7 -27 18 -219
18 -306 0 -35 2 -44 8 -30 5 13 8 -1 7 -40 -2 -89 30 -170 88 -222 52 -48 65
-47 116 10 23 25 28 27 34 14 10 -26 20 -20 36 21 10 26 12 46 6 62 -8 23 -6
35 22 91 5 9 4 22 -1 30 -10 16 -10 15 -15 -26 -3 -27 -31 -61 -42 -50 -4 3
-6 115 -3 153 1 6 8 12 16 12 9 0 15 9 15 23 1 21 1 22 15 3 14 -18 15 -17 17
25 1 24 2 52 2 61 0 9 3 15 8 12 4 -3 8 13 8 35 0 23 4 41 9 41 5 0 11 21 13
46 2 34 -1 49 -14 61 -10 9 -18 24 -18 35 0 10 -5 18 -11 18 -6 0 -9 -18 -8
-45 2 -24 0 -47 -4 -51 -4 -4 -7 -17 -7 -29 0 -36 -31 -55 -89 -55 -44 0 -53
3 -60 23 -14 36 -12 137 4 197 15 57 19 250 5 305 -7 30 -7 30 -13 5z"/>
<path d="M9017 945 c-110 -42 -176 -120 -203 -241 -32 -147 -6 -231 68 -215
80 18 266 120 330 181 34 33 38 42 38 87 0 58 -41 147 -81 176 -35 25 -104 30
-152 12z"/>
<path d="M10112 852 c-27 -67 -32 -90 -31 -158 1 -110 8 -128 46 -132 17 -2
34 -9 36 -17 3 -7 3 -48 0 -92 -6 -70 -9 -81 -36 -106 l-29 -27 43 -40 c56
-50 95 -56 52 -7 -17 19 -17 19 7 12 21 -7 23 -6 12 7 -14 17 -14 143 0 170 5
10 4 19 -2 23 -6 3 -10 51 -10 108 0 57 -7 126 -15 157 -8 30 -12 56 -10 59 3
2 8 -10 11 -28 4 -17 10 -34 15 -36 9 -6 -3 38 -34 123 l-23 62 -32 -78z"/>
<path d="M7365 747 c-72 -40 -81 -79 -77 -343 l2 -142 43 15 c52 19 174 12
231 -12 l38 -16 -4 215 c-3 197 -6 218 -24 243 -46 63 -138 80 -209 40z"/>
<path d="M12147 256 c-10 -14 -24 -26 -32 -26 -9 0 -12 -6 -9 -15 5 -11 2 -13
-10 -9 -9 4 -16 1 -16 -6 0 -12 -67 -10 -115 4 -11 4 -27 2 -35 -3 -12 -9 -13
-17 -2 -58 7 -26 17 -49 23 -51 5 -2 9 -8 9 -14 0 -16 29 -40 40 -33 5 3 10
-1 10 -9 0 -27 -4 -25 -131 78 -33 27 -61 47 -63 45 -2 -2 -1 -39 1 -81 l6
-78 102 0 c74 0 106 4 114 13 6 8 7 18 3 22 -4 5 -1 5 6 1 7 -5 28 9 54 35 26
26 38 44 30 47 -10 3 -10 7 -1 18 7 8 9 18 5 22 -4 4 -25 -12 -46 -36 -21 -23
-43 -42 -49 -42 -6 0 19 30 54 68 62 64 82 97 73 123 -2 7 -12 0 -21 -15z"/>
<path d="M1365 191 c-88 -15 -162 -78 -195 -166 -9 -24 -9 -25 38 -25 42 1 49
4 67 32 11 18 44 45 75 61 48 25 62 28 109 22 58 -7 129 -50 152 -92 10 -18
21 -23 55 -23 50 0 50 9 5 70 -37 50 -56 67 -98 89 -33 16 -144 44 -162 40 -3
-1 -24 -5 -46 -8z"/>
<path d="M13340 191 c-42 -9 -80 -28 -80 -41 0 -5 -7 -7 -15 -4 -10 4 -18 -3
-24 -19 -5 -14 -15 -28 -21 -32 -10 -6 -40 -70 -40 -86 0 -5 22 -9 50 -9 34 0
52 5 58 16 8 14 10 14 25 -1 22 -21 22 -7 0 17 -15 17 -15 18 0 18 10 0 17 5
17 11 0 16 86 50 128 51 53 1 110 -26 152 -72 32 -34 43 -40 78 -40 46 0 49 5
26 38 -8 12 -12 28 -8 35 4 6 4 9 -1 5 -11 -10 -38 29 -30 42 4 6 -1 7 -11 3
-14 -5 -16 -2 -10 20 4 17 2 27 -4 27 -6 0 -9 -4 -5 -9 11 -18 -16 -23 -40 -7
-62 41 -155 55 -245 37z"/>
<path d="M7328 179 c-37 -11 -38 -12 -38 -61 0 -27 3 -48 8 -46 84 43 108 50
158 45 37 -4 67 -15 99 -37 l45 -31 0 44 c0 40 -3 45 -41 66 -47 27 -170 37
-231 20z"/>
</g>
</svg>
