<?xml version="1.0" standalone="no"?>
<!DOCTYPE svg PUBLIC "-//W3C//DTD SVG 20010904//EN"
 "http://www.w3.org/TR/2001/REC-SVG-20010904/DTD/svg10.dtd">
<svg version="1.0" xmlns="http://www.w3.org/2000/svg"
 width="800.000000pt" height="600.000000pt" viewBox="0 0 800.000000 600.000000"
 preserveAspectRatio="xMidYMid meet">
<metadata>
Created by potrace 1.16, written by Peter Selinger 2001-2019
</metadata>
<g transform="translate(0.000000,600.000000) scale(0.100000,-0.100000)"
fill="#000000" stroke="none">
<path d="M0 5906 l0 -95 58 -17 c67 -21 92 -39 92 -69 0 -12 3 -25 7 -29 4 -3
8 -14 9 -22 2 -9 7 -37 13 -63 15 -71 19 -101 12 -101 -3 0 -7 -35 -8 -77 -2
-43 -8 -80 -14 -84 -6 -3 -26 -2 -44 4 -35 10 -59 47 -50 76 7 23 -14 49 -47
57 l-28 6 1 -183 c2 -234 4 -243 49 -247 57 -5 70 -51 44 -156 -6 -26 -5 -28
12 -21 10 4 36 7 57 6 24 -1 37 3 38 11 0 7 5 -2 11 -21 7 -26 12 -31 18 -20
6 9 8 2 4 -21 -3 -19 -1 -46 4 -60 5 -13 5 -40 1 -59 -5 -23 -4 -38 5 -47 7
-7 19 -26 26 -43 7 -17 15 -31 19 -31 4 0 15 -16 25 -35 11 -19 24 -35 29 -35
6 0 18 -7 28 -16 15 -14 20 -13 55 5 21 12 45 21 53 21 11 0 173 82 316 160
22 12 48 33 58 46 28 38 59 161 58 235 -1 82 -42 243 -85 329 -18 36 -39 83
-46 105 -7 22 -25 69 -41 105 -58 135 -47 213 37 269 51 33 112 45 197 36 67
-6 100 -21 177 -79 115 -87 180 -118 379 -182 145 -47 197 -60 203 -51 5 7 7
49 6 95 -3 81 -4 84 -33 100 -16 9 -31 20 -33 24 -2 5 -12 3 -23 -2 -13 -8
-19 -7 -19 0 0 6 -5 8 -10 5 -17 -10 -81 18 -75 33 3 8 -2 13 -13 11 -9 -1
-19 0 -22 1 -16 6 -116 23 -137 23 -7 0 -13 7 -13 15 0 9 -3 12 -6 9 -4 -3
-15 -2 -25 3 -12 7 -19 6 -21 -1 -3 -8 -10 -6 -20 5 -9 9 -22 16 -28 16 -25 0
-160 63 -225 105 l-70 45 -482 0 -483 0 0 -94z m287 10 c-1 -6 7 -10 18 -8 68
11 134 6 154 -12 12 -11 31 -24 44 -30 27 -14 35 -51 12 -60 -12 -4 -19 0 -22
14 -7 26 -10 25 -39 -9 -14 -16 -41 -35 -60 -41 -42 -14 -113 -7 -125 12 -12
19 -11 111 1 103 6 -4 7 2 1 18 -7 18 -6 24 4 24 8 0 13 -5 12 -11z m198 -302
c28 -11 37 -51 20 -84 -19 -37 -45 -51 -97 -52 -54 -1 -86 30 -72 69 18 51 97
87 149 67z"/>
<path d="M1300 5994 c0 -4 8 -13 18 -20 16 -13 16 -13 -3 -14 -15 0 -12 -7 20
-37 53 -50 119 -82 130 -63 9 15 18 12 48 -15 15 -14 27 -21 27 -14 0 6 8 9
19 6 14 -3 18 -1 14 9 -4 10 -10 11 -24 3 -10 -5 -19 -6 -19 -1 0 5 -12 15
-27 22 -23 11 -25 14 -10 18 10 2 33 -3 51 -12 17 -8 47 -18 66 -21 19 -3 56
-13 81 -22 39 -14 92 -12 77 3 -3 3 -50 21 -104 40 -55 19 -107 42 -116 52
-16 16 -10 17 130 20 141 2 148 3 172 27 l25 25 -288 0 c-158 0 -287 -3 -287
-6z"/>
<path d="M2053 5986 c3 -8 -5 -29 -19 -47 -13 -18 -31 -52 -40 -76 -9 -24 -22
-43 -29 -43 -18 0 -28 -30 -15 -45 7 -8 2 -19 -15 -35 -34 -32 -34 -77 0 -90
14 -5 25 -14 25 -20 0 -5 6 -10 14 -10 10 0 16 14 18 43 2 29 7 41 17 39 21
-4 49 27 44 49 -3 10 2 31 12 45 15 24 17 25 30 8 9 -14 27 -18 74 -18 57 -1
62 1 68 23 3 14 1 26 -8 32 -7 4 -19 23 -25 41 -7 20 -17 32 -25 29 -8 -2 -22
-6 -31 -8 -28 -8 -23 37 7 70 l26 27 -67 0 c-53 0 -65 -3 -61 -14z"/>
<path d="M2440 5983 c-61 -42 -71 -83 -33 -125 9 -10 12 -18 7 -18 -5 0 4 -7
21 -16 16 -8 38 -13 49 -10 10 3 29 -2 42 -11 22 -14 26 -14 49 1 29 19 31 29
10 46 -14 11 -14 15 -1 29 14 16 16 20 16 41 0 5 14 25 31 45 l31 35 -99 0
c-77 0 -104 -4 -123 -17z"/>
<path d="M3156 5983 l-28 -15 22 -15 c18 -13 29 -14 60 -4 27 8 46 8 69 0 33
-12 41 -36 16 -45 -8 -4 -15 -13 -15 -20 0 -25 -26 -26 -69 -5 -49 25 -51 26
-51 4 0 -14 -2 -15 -9 -4 -5 8 -14 10 -21 6 -7 -4 -16 -2 -21 6 -15 23 -11
-48 5 -85 12 -28 20 -34 52 -38 22 -3 55 -1 74 3 19 4 64 9 99 11 l64 3 9 -32
c11 -43 26 -50 52 -23 15 16 17 24 9 27 -7 3 -13 9 -13 14 0 5 6 9 13 9 6 0
25 21 41 48 17 26 44 60 63 75 l32 28 -16 35 -17 34 -195 -1 c-153 -1 -202 -4
-225 -16z"/>
<path d="M3975 5990 c11 -4 30 -10 43 -15 12 -4 22 -15 22 -25 0 -11 13 -22
33 -30 17 -6 42 -16 54 -20 12 -5 24 -18 28 -29 6 -20 68 -55 120 -67 17 -3
45 -15 63 -26 l32 -20 0 25 c0 17 -11 32 -35 48 -19 13 -37 29 -39 36 -9 23
58 -9 97 -46 31 -30 39 -33 47 -21 19 29 5 69 -23 68 -5 0 -39 19 -75 42 -37
23 -73 43 -79 44 -7 1 -25 12 -40 24 -25 20 -38 22 -148 21 -66 -1 -111 -4
-100 -9z"/>
<path d="M6588 5984 c19 -8 69 -21 112 -30 132 -25 511 -155 666 -228 53 -25
101 -46 107 -46 5 0 55 -25 111 -56 55 -31 133 -73 171 -94 96 -51 196 -107
223 -126 l22 -16 0 306 0 306 -722 -1 c-642 -1 -719 -2 -690 -15z"/>
<path d="M4121 5827 c-11 -13 -21 -28 -21 -35 0 -6 -5 -14 -12 -18 -22 -14
-92 -22 -115 -13 -14 5 -23 5 -23 -1 0 -5 -12 -13 -26 -16 -22 -6 -24 -8 -11
-21 13 -13 12 -19 -4 -53 -10 -20 -28 -40 -39 -43 -12 -3 -24 -15 -27 -26 -3
-12 -14 -21 -24 -21 -28 0 -23 -27 9 -44 15 -8 40 -26 57 -40 32 -28 42 -28
27 0 -15 27 3 54 36 54 30 0 60 -17 108 -62 l32 -30 7 31 c7 35 33 56 83 66
47 10 53 -17 12 -56 -17 -17 -29 -33 -26 -36 6 -7 68 17 77 29 3 5 12 2 19 -7
11 -13 10 -19 -4 -34 -13 -15 -14 -20 -4 -24 7 -2 -4 -12 -26 -21 -29 -12 -37
-21 -34 -34 3 -10 -5 -31 -19 -48 -19 -24 -25 -27 -33 -14 -5 8 -10 23 -10 33
0 10 -4 15 -10 12 -5 -3 -10 2 -10 11 0 14 -3 15 -12 6 -7 -7 -22 -12 -35 -12
-12 0 -27 -9 -33 -19 -6 -12 -23 -21 -42 -23 -25 -2 -34 -9 -38 -28 -6 -24 -7
-23 -13 9 -6 27 -11 32 -28 28 -12 -3 -22 0 -26 9 -3 8 -16 14 -29 14 -18 0
-29 -9 -41 -34 -15 -33 -18 -34 -62 -31 -26 2 -69 15 -95 29 -38 20 -52 23
-63 15 -10 -9 -24 -7 -58 5 -46 18 -61 15 -83 -16 -7 -10 -17 -18 -23 -18 -15
0 -53 42 -74 85 -15 29 -26 39 -40 37 -11 -2 -21 -8 -23 -13 -2 -5 -11 -9 -20
-9 -23 1 46 60 70 60 23 0 22 1 -3 44 -18 30 -24 34 -40 26 -10 -6 -21 -21
-25 -35 -12 -47 -61 -39 -89 14 -8 16 -15 52 -16 79 -2 44 -5 51 -25 55 -26 5
-55 -18 -33 -25 10 -3 10 -15 3 -49 l-9 -44 -81 0 c-55 0 -86 -5 -98 -14 -23
-19 -17 -65 9 -69 30 -6 49 -24 34 -32 -11 -7 108 -23 186 -24 33 -1 46 -8 77
-41 l36 -39 -19 -25 c-10 -13 -19 -29 -19 -36 0 -14 -35 -97 -45 -107 -3 -3
-29 0 -57 8 -28 7 -55 11 -60 8 -4 -3 -8 11 -8 31 0 32 -3 36 -17 30 -31 -14
-72 -17 -108 -11 -32 6 -35 10 -35 41 0 19 -4 35 -10 35 -14 0 -41 56 -34 73
3 8 -1 19 -8 23 -9 6 -6 10 11 14 14 3 26 11 28 17 3 7 -4 9 -16 6 -20 -5 -26
3 -22 34 1 6 -9 15 -21 19 -13 3 -26 12 -30 17 -4 6 -28 10 -53 8 -43 -2 -50
1 -85 38 -21 22 -40 51 -42 63 -4 22 -5 22 -17 -6 -10 -26 -9 -33 16 -70 15
-23 34 -45 41 -49 21 -14 52 -85 52 -122 0 -23 5 -35 14 -35 8 0 16 -5 18 -11
3 -8 15 -6 38 6 34 17 34 17 57 -10 14 -16 21 -34 18 -45 -4 -12 8 -30 39 -58
61 -56 68 -72 57 -124 -6 -23 -8 -44 -6 -46 2 -2 15 7 30 22 22 22 24 31 19
66 -5 29 -3 40 6 40 21 0 39 -33 40 -71 0 -39 14 -49 73 -49 15 0 40 -6 55
-14 15 -8 44 -17 65 -21 27 -5 37 -12 37 -26 0 -10 -4 -21 -10 -24 -5 -3 -10
-15 -10 -26 0 -23 -15 -25 -24 -4 -8 22 -19 18 -33 -10 -20 -45 23 -43 133 5
121 53 162 60 188 31 19 -21 19 -22 -4 -53 -23 -31 -23 -31 -2 -26 15 4 23 0
28 -14 7 -23 27 -20 159 24 107 37 118 44 105 68 -13 24 1 28 59 19 35 -5 56
-3 89 12 25 10 41 23 37 29 -3 6 -11 7 -17 4 -6 -4 -32 -8 -59 -9 -61 -4 -66
16 -10 42 29 13 41 25 43 43 2 15 13 30 30 38 16 7 33 22 38 33 6 10 17 19 25
19 10 0 12 -7 5 -31 -5 -17 -15 -38 -22 -46 -10 -12 -9 -18 7 -29 16 -12 17
-16 6 -23 -8 -5 -19 -8 -25 -7 -6 2 -8 1 -3 -1 4 -3 5 -9 1 -14 -20 -33 86 26
144 80 23 22 42 45 42 52 0 7 3 10 6 6 21 -20 111 73 213 221 48 70 79 274 46
302 -8 7 -15 8 -15 2 0 -5 -10 -13 -22 -16 l-23 -7 25 -12 c39 -18 41 -30 13
-59 -24 -25 -24 -28 -10 -49 14 -19 14 -24 1 -36 -8 -8 -14 -27 -14 -43 0 -36
-32 -107 -66 -145 -26 -29 -26 -30 -20 -5 3 14 9 67 11 118 l6 94 -31 31 c-16
17 -30 36 -30 43 0 18 -37 79 -86 145 -29 38 -41 63 -38 76 8 31 -10 36 -35
10z m-21 -131 c27 -12 52 -55 42 -72 -8 -14 -11 -14 -23 -2 -17 18 -36 13 -50
-14 -7 -14 -7 -23 1 -33 12 -15 6 -35 -11 -35 -6 0 -7 9 -4 21 5 15 4 19 -4
15 -6 -4 -11 -2 -11 3 0 6 -8 11 -18 11 -9 0 -34 14 -54 30 -34 28 -36 33 -26
56 6 13 23 27 37 30 14 3 31 7 36 8 11 3 62 -8 85 -18z m-676 -592 c64 -52 66
-67 13 -117 -42 -39 -76 -44 -110 -17 -22 18 -25 25 -16 36 7 8 20 12 30 9 22
-7 23 -4 8 45 -12 39 -6 90 10 90 5 0 35 -21 65 -46z"/>
<path d="M3707 5779 c-12 -7 -40 -8 -71 -5 -40 5 -56 4 -65 -8 -10 -12 -6 -19
24 -41 19 -15 35 -33 35 -40 0 -7 7 -18 15 -25 12 -10 18 -10 30 0 18 15 19 7
4 -22 -11 -21 -3 -20 29 5 17 13 54 17 67 7 6 -4 18 -10 28 -13 15 -5 16 -3 7
12 -5 10 -23 31 -40 45 -27 22 -31 31 -26 61 6 37 -3 44 -37 24z"/>
<path d="M2382 5744 c-7 -12 -6 -23 1 -35 12 -19 -5 -49 -28 -49 -7 0 -15 -8
-17 -18 -5 -18 -69 -54 -116 -65 -12 -3 -28 0 -35 6 -6 7 -25 13 -41 14 -33 1
-46 17 -39 44 4 13 -4 28 -20 43 l-26 24 2 -54 c2 -42 -2 -56 -17 -67 -19 -14
-19 -14 0 -25 10 -6 14 -12 7 -12 -7 0 -10 -6 -7 -14 3 -8 -4 -32 -15 -55 -25
-48 -26 -60 -6 -97 8 -16 15 -52 15 -81 0 -28 5 -55 10 -58 6 -3 10 -14 10
-24 0 -10 7 -32 15 -49 13 -26 20 -30 47 -25 19 3 43 -2 63 -13 31 -16 34 -16
50 -1 22 22 61 22 71 0 11 -27 10 -36 -8 -61 -18 -26 -64 -28 -83 -4 -9 11
-16 11 -37 2 -22 -11 -24 -15 -14 -36 8 -16 17 -22 31 -18 14 3 30 -5 50 -26
16 -16 35 -30 42 -30 7 0 13 -6 13 -14 0 -8 6 -17 13 -19 7 -3 4 -6 -6 -6 -10
-1 -15 -5 -12 -11 9 -14 7 -13 -66 16 -66 27 -80 39 -73 58 3 7 -19 17 -54 25
-32 7 -82 28 -112 46 -35 22 -56 30 -58 22 -2 -7 -6 -19 -9 -27 -3 -8 -7 -19
-7 -25 -1 -5 -9 -25 -19 -43 l-18 -34 -19 22 c-10 12 -17 30 -15 41 9 47 -81
27 -91 -20 -3 -14 -7 -32 -10 -38 -4 -15 -40 -17 -49 -3 -10 17 -44 11 -106
-17 -38 -18 -59 -33 -59 -44 0 -17 -53 -69 -71 -69 -6 0 -7 -5 -4 -11 4 -6 13
-8 21 -5 25 10 15 -2 -23 -25 -45 -28 -69 -53 -88 -94 -8 -16 -14 -23 -15 -15
0 11 -3 11 -12 2 -7 -7 -23 -12 -37 -13 l-26 0 24 -10 c23 -9 23 -10 6 -29
-18 -20 -18 -20 14 -9 19 7 30 17 27 24 -3 10 2 10 24 2 31 -12 30 -33 -3 -43
-24 -7 -67 -49 -67 -65 0 -12 -86 -52 -123 -56 -31 -3 -80 -42 -56 -44 8 -1
29 -3 46 -5 33 -2 67 -26 56 -38 -4 -3 -4 -6 0 -6 3 0 13 7 21 16 9 8 16 11
16 5 0 -6 12 -22 27 -35 l27 -26 31 30 c26 26 39 30 83 30 29 0 52 5 52 10 0
21 36 9 55 -19 11 -17 28 -32 40 -35 25 -7 105 31 112 53 11 35 27 61 37 61 6
0 18 -15 26 -33 23 -48 53 -48 99 2 26 28 46 41 64 41 25 0 74 50 61 63 -3 3
-3 10 1 16 4 8 15 6 35 -4 16 -8 31 -11 34 -6 3 5 15 11 26 14 17 4 19 3 9 -9
-8 -10 -8 -14 0 -14 6 0 11 -11 11 -24 0 -14 5 -28 10 -31 6 -3 10 -13 10 -21
0 -8 -4 -13 -9 -10 -5 3 -14 -1 -21 -9 -7 -8 -16 -12 -21 -10 -4 3 -23 -4 -41
-15 -18 -11 -40 -20 -48 -20 -43 0 -176 -82 -165 -100 3 -5 -11 -17 -31 -29
-19 -12 -33 -17 -30 -12 4 5 0 11 -6 14 -8 2 -1 10 15 17 31 15 34 25 11 34
-18 7 -44 -10 -44 -28 0 -7 -18 -30 -41 -51 -38 -38 -41 -39 -54 -21 -9 12
-11 25 -5 41 12 32 -10 50 -47 40 -16 -4 -35 -9 -43 -10 -45 -6 -159 -47 -163
-59 -4 -9 9 -19 36 -30 40 -16 41 -17 20 -29 -26 -14 -27 -25 -5 -52 15 -17
15 -18 1 -7 -21 16 -43 7 -59 -23 -7 -14 -27 -29 -45 -35 -17 -6 -49 -28 -70
-50 -22 -22 -47 -40 -56 -40 -10 0 -20 -8 -24 -17 -7 -21 -78 -68 -118 -78
-15 -4 -27 -11 -27 -16 0 -5 -13 -9 -29 -9 -23 0 -34 7 -48 30 -19 34 -26 36
-42 16 -9 -11 -7 -15 9 -19 32 -8 23 -35 -19 -56 l-38 -20 -11 24 c-7 14 -16
25 -22 25 -13 0 -13 -27 0 -35 24 -15 8 -36 -35 -47 -25 -7 -45 -16 -45 -20 0
-4 -12 -8 -27 -8 -41 0 -71 -10 -77 -25 -2 -7 -1 -28 4 -46 5 -19 15 -59 22
-89 8 -30 21 -66 30 -80 9 -14 19 -36 23 -50 4 -14 27 -53 51 -87 24 -34 45
-72 47 -84 6 -35 32 -47 56 -25 13 12 28 16 42 13 14 -4 27 0 34 10 7 9 17 13
23 9 17 -10 15 -36 -2 -36 -7 0 -27 -7 -42 -15 -16 -8 -37 -15 -46 -15 -21 0
-34 -20 -19 -29 7 -5 4 -12 -8 -23 -46 -39 -97 -50 -107 -23 -4 8 -10 13 -14
10 -25 -16 -211 259 -194 286 3 5 0 17 -5 28 -15 27 -21 114 -9 128 7 9 3 15
-17 23 -15 6 -32 13 -38 17 -6 4 -7 -4 -3 -22 5 -19 2 -33 -10 -47 -20 -21
-21 -97 -2 -132 14 -26 -7 -38 -52 -30 -50 8 -88 34 -95 63 l-7 26 -25 -30
c-16 -18 -21 -31 -14 -33 9 -3 8 -10 -3 -27 -16 -25 -12 -37 10 -28 8 3 17 -2
20 -11 8 -20 3 -25 -24 -31 -11 -2 -37 -21 -58 -42 -21 -21 -42 -38 -46 -38
-4 0 -13 -6 -20 -12 -6 -7 -19 -13 -28 -13 -15 -1 -70 -43 -70 -55 0 -3 4 -3
10 0 5 3 18 1 29 -4 14 -8 22 -7 31 4 7 8 9 15 4 15 -4 0 1 7 12 15 10 8 33
15 51 15 40 0 47 -25 16 -57 -34 -33 -29 -47 15 -40 20 3 46 8 57 13 18 6 17
4 -5 -21 l-25 -28 26 5 c26 5 33 -12 15 -40 -12 -20 -28 -14 -21 9 7 21 7 22
-12 3 -10 -10 -25 -32 -33 -47 -16 -31 -58 -77 -71 -77 -5 0 -6 -7 -3 -15 4
-8 17 -15 31 -15 35 0 24 -23 -15 -31 -17 -3 -58 -24 -90 -45 -45 -28 -59 -43
-58 -60 0 -12 4 -20 8 -18 4 2 9 0 13 -6 3 -6 -1 -13 -9 -16 -10 -4 -16 -18
-16 -39 0 -38 14 -52 35 -35 9 7 15 8 20 0 9 -15 25 -12 25 5 0 8 7 15 15 15
15 0 17 -5 19 -45 1 -16 10 -21 44 -26 23 -3 47 -10 52 -15 14 -14 -10 -44
-37 -46 -12 -1 -19 -7 -16 -15 3 -7 0 -13 -6 -13 -6 0 -11 -7 -11 -15 0 -9
-11 -21 -25 -27 -28 -13 -33 -45 -9 -55 8 -3 26 -1 39 5 21 10 23 8 21 -14 0
-13 -7 -24 -13 -24 -7 0 -13 -4 -13 -10 0 -5 7 -10 15 -10 9 0 12 -6 9 -15 -4
-8 -1 -15 5 -15 6 0 11 4 11 9 0 5 11 8 24 7 14 -2 30 1 38 5 10 7 10 9 1 9
-7 0 -13 8 -13 19 0 20 22 43 36 39 5 -1 19 3 32 10 12 7 22 10 22 7 0 -8 63
27 72 40 4 6 6 15 4 22 -3 6 2 14 10 17 8 3 14 13 14 22 0 14 3 14 15 4 12
-10 13 -16 3 -28 -10 -13 -10 -14 0 -8 18 11 15 -9 -4 -25 -44 -36 -132 -80
-136 -67 -2 6 -12 -2 -22 -18 -11 -16 -15 -26 -11 -22 5 5 14 -1 22 -12 15
-21 39 -29 27 -8 -4 6 -3 8 4 4 6 -3 29 1 52 10 22 9 44 14 47 10 4 -3 -1 -6
-11 -6 -10 0 -14 -5 -10 -12 5 -7 3 -8 -5 -3 -8 4 -28 -5 -51 -24 -21 -17 -48
-31 -60 -31 -13 0 -20 -5 -17 -12 2 -7 -2 -21 -11 -31 -18 -20 -9 -35 12 -18
16 13 95 6 111 -10 7 -7 5 -8 -6 -4 -10 4 -20 2 -23 -3 -3 -6 0 -12 8 -15 19
-7 138 62 143 84 3 11 12 19 20 19 7 0 32 9 54 20 37 19 59 20 59 1 0 -4 -25
-15 -55 -26 -35 -11 -51 -21 -43 -26 8 -5 2 -10 -16 -15 -15 -4 -53 -22 -84
-41 -31 -18 -62 -31 -69 -28 -8 2 -36 -4 -64 -15 -28 -11 -55 -18 -60 -15 -5
3 -6 -1 -3 -9 5 -13 12 -13 56 4 39 15 47 15 37 4 -7 -9 -29 -24 -50 -35 -21
-10 -57 -32 -81 -48 -24 -16 -68 -40 -98 -54 -72 -33 -103 -59 -99 -82 4 -18
5 -18 21 -1 13 12 18 14 18 4 1 -8 6 -7 15 6 7 10 18 15 24 12 14 -9 51 12 48
26 -1 7 7 14 18 16 11 2 34 10 52 18 17 8 37 14 45 14 7 0 23 7 35 15 26 18
20 49 -8 42 -31 -8 -22 1 22 24 37 18 41 19 35 4 -5 -15 -2 -17 24 -12 39 8
38 0 -2 -19 l-33 -14 35 5 c19 3 47 7 62 9 16 3 28 0 28 -5 0 -6 5 -7 10 -4 8
5 8 11 1 19 -8 9 -4 16 17 25 15 7 39 19 54 26 24 12 26 11 21 -3 -5 -11 -2
-14 10 -9 9 4 24 10 34 14 12 5 14 3 8 -8 -8 -12 -6 -12 8 0 10 8 20 12 22 9
9 -9 -24 -30 -50 -32 -13 0 -27 -7 -30 -13 -5 -15 -35 -18 -35 -3 0 5 8 14 17
19 24 14 13 14 -26 0 -28 -10 -43 -29 -22 -29 5 0 11 -9 14 -21 3 -12 3 -18 0
-15 -4 3 -13 0 -21 -7 -13 -10 -14 -9 -7 3 5 10 2 9 -11 -3 -10 -9 -31 -27
-47 -38 -15 -11 -25 -25 -22 -30 9 -14 25 -11 25 5 0 7 11 16 25 18 14 3 25 1
25 -3 0 -5 -9 -9 -19 -9 -10 0 -22 -7 -25 -16 -3 -9 -12 -14 -20 -11 -7 3 -31
-5 -53 -17 -29 -17 -45 -21 -63 -14 -12 5 -25 6 -28 3 -3 -3 0 -5 5 -5 6 0 10
-8 9 -17 -2 -12 -25 -26 -74 -43 -40 -14 -72 -28 -72 -33 0 -4 4 -5 10 -2 6 4
7 -2 1 -17 -4 -13 -12 -23 -17 -23 -5 0 -33 -9 -61 -20 l-53 -19 0 -62 c0 -69
15 -87 46 -53 12 13 31 19 63 19 30 0 55 7 71 20 l25 19 -25 -5 c-18 -4 -21
-3 -10 4 14 9 77 23 123 27 16 2 16 0 0 -17 -9 -10 -22 -18 -29 -18 -7 0 -16
-4 -19 -10 -4 -7 3 -7 20 0 15 6 31 7 37 4 6 -4 8 -2 5 3 -10 15 39 63 63 63
27 0 22 -21 -8 -36 -39 -19 -38 -26 3 -20 l40 6 -29 -24 c-16 -13 -43 -27 -60
-30 -41 -8 -49 -10 -63 -19 -7 -4 -25 -5 -40 -1 -22 4 -25 3 -13 -5 12 -9 11
-11 -8 -11 -13 0 -20 4 -17 10 8 13 8 13 -40 -5 -44 -15 -39 -17 48 -16 63 0
70 -4 31 -20 -25 -9 -26 -11 -10 -28 22 -24 20 -29 -8 -27 -13 0 -22 4 -20 7
2 4 -3 10 -12 13 -24 9 -31 7 -14 -4 15 -10 7 -12 -60 -15 -14 0 -23 -5 -22
-9 6 -14 -21 -26 -45 -19 -23 5 -23 4 -23 -91 0 -57 4 -96 10 -96 6 0 10 -7
10 -16 0 -8 -4 -12 -10 -9 -5 3 -10 -3 -10 -15 0 -16 4 -20 19 -15 12 4 21 0
25 -11 4 -11 2 -15 -8 -11 -25 10 -36 -16 -36 -80 0 -61 1 -63 21 -53 11 6 29
10 41 8 18 -3 16 -7 -21 -43 -22 -22 -41 -45 -41 -52 0 -17 60 -44 96 -43 43
2 99 -7 120 -18 65 -33 139 -41 170 -17 16 12 17 16 4 24 -12 8 -11 14 8 34
14 15 24 40 26 68 2 24 7 54 11 67 5 14 3 22 -4 22 -6 0 -11 7 -11 16 0 12 7
15 25 12 22 -5 25 -1 31 31 4 20 9 41 13 46 3 6 6 20 6 32 1 18 -6 23 -37 28
-21 4 -38 10 -38 13 0 4 18 16 40 26 22 10 48 28 57 39 17 19 17 19 -2 14 -11
-3 -37 -8 -58 -12 -30 -5 -36 -9 -28 -19 18 -22 -13 -42 -44 -28 -21 10 -30 5
-92 -55 -60 -58 -139 -111 -149 -101 -5 6 43 56 71 74 14 9 25 22 25 29 0 7
19 25 42 40 37 25 40 29 23 35 -22 8 -45 2 -45 -11 0 -4 -7 -6 -15 -3 -8 3
-25 -5 -38 -20 -13 -14 -30 -26 -38 -26 -8 0 -6 6 7 16 18 14 18 15 -3 4 -13
-6 -23 -14 -23 -19 0 -4 -13 -8 -29 -9 -23 0 -29 3 -24 15 5 13 2 15 -12 9
-18 -6 -18 -6 1 15 10 11 18 24 17 28 -1 3 6 6 17 5 10 0 16 4 13 9 -3 5 5 3
18 -3 22 -12 22 -13 4 -26 -10 -8 -23 -14 -29 -14 -5 0 -7 -3 -3 -6 8 -8 97
28 97 39 0 5 -10 6 -22 3 -13 -3 -17 -3 -10 0 17 8 15 25 -3 18 -8 -4 -15 -1
-15 4 0 6 9 9 20 7 13 -2 20 2 20 11 0 8 -5 14 -11 14 -5 0 -7 5 -3 11 3 6 22
9 40 7 23 -3 34 0 34 9 0 7 -7 10 -15 7 -8 -4 -15 -1 -15 6 0 8 8 10 21 7 13
-3 19 -1 16 6 -2 7 -13 13 -25 15 -22 3 -28 13 -16 25 4 3 14 -1 22 -10 11
-10 17 -12 20 -4 2 6 22 11 45 11 23 0 51 7 61 15 11 8 25 15 30 15 6 -1 0 -7
-13 -14 -32 -18 -11 -29 28 -15 17 6 38 8 47 5 8 -3 13 -2 10 3 -3 4 12 13 34
20 22 6 44 20 50 30 5 11 24 24 41 30 42 15 54 14 40 -2 -6 -8 -10 -16 -8 -18
1 -2 0 -3 -2 -2 -13 8 -31 -25 -31 -58 0 -33 4 -40 25 -45 14 -3 25 -11 25
-16 0 -6 7 -7 16 -4 17 7 94 -15 94 -27 0 -16 -33 -19 -90 -7 -60 13 -110 8
-110 -11 0 -5 6 -9 13 -8 38 5 67 -2 67 -17 0 -23 21 -39 54 -42 17 -1 33 -6
36 -12 3 -5 21 -8 40 -5 19 2 40 -1 47 -7 15 -12 129 -55 180 -68 18 -4 49
-17 69 -29 19 -12 40 -19 45 -16 5 4 6 -1 3 -9 -7 -18 -34 -22 -34 -6 0 13
-71 -16 -82 -33 -12 -19 -9 -27 14 -36 19 -7 20 -10 7 -15 -9 -4 -20 -6 -25
-4 -5 1 -20 -4 -33 -11 -22 -12 -24 -12 -18 8 3 14 0 21 -9 21 -12 0 -12 4 -4
20 6 11 17 20 24 20 8 0 24 9 37 21 18 15 20 19 6 15 -11 -3 -20 0 -23 9 -4 8
-12 15 -20 15 -8 0 -14 5 -14 10 0 6 -6 10 -12 9 -34 -4 -69 2 -63 11 4 6 -8
10 -29 10 -19 0 -36 6 -39 13 -3 9 -9 8 -22 -4 -16 -16 -16 -18 3 -37 15 -15
18 -23 9 -30 -15 -12 -117 -3 -117 10 0 6 -13 8 -30 6 -22 -3 -31 0 -36 14 -3
12 -15 18 -34 18 -23 0 -33 -7 -45 -30 -15 -29 -15 -30 5 -30 20 0 20 -1 6
-22 -9 -12 -16 -29 -16 -37 0 -8 -9 -24 -19 -35 -16 -18 -35 -76 -45 -142 -1
-11 -6 -26 -10 -32 -12 -20 16 -53 39 -45 27 9 65 5 81 -8 9 -8 54 10 175 70
154 77 221 102 174 65 -11 -9 -32 -20 -48 -26 -15 -5 -27 -14 -27 -19 0 -5 -4
-9 -9 -9 -14 0 -153 -66 -176 -84 -19 -15 -18 -15 22 -16 23 0 54 -5 70 -11
15 -6 50 -12 78 -13 27 -2 69 -11 92 -21 34 -13 40 -19 30 -29 -29 -29 -62
-38 -176 -50 -41 -4 -71 11 -71 36 0 21 -25 24 -34 6 -5 -11 -7 -11 -12 0 -3
6 -10 12 -16 12 -6 0 -16 7 -23 16 -6 9 -34 21 -61 26 -27 5 -60 11 -74 14
-17 3 -34 -3 -54 -19 -24 -19 -30 -32 -30 -65 -1 -22 -4 -44 -9 -48 -4 -4 -7
-18 -7 -31 0 -14 -4 -32 -10 -42 -5 -10 -18 -56 -30 -102 -11 -46 -25 -99 -31
-117 -15 -45 3 -65 20 -24 8 19 22 32 37 35 32 6 30 -6 -5 -42 -16 -16 -26
-32 -23 -36 4 -3 0 -3 -9 0 -10 4 -15 -1 -16 -15 -2 -30 35 -27 43 4 4 17 13
24 31 24 14 0 28 3 32 8 3 5 13 11 21 13 8 2 23 6 33 8 26 8 21 -24 -9 -53
-16 -17 -32 -24 -45 -21 -12 3 -28 -2 -38 -11 -10 -9 -26 -22 -37 -28 -12 -7
-18 -21 -16 -35 2 -27 54 -79 77 -79 9 0 15 -10 15 -25 0 -18 7 -28 27 -36 14
-5 44 -26 65 -45 21 -19 44 -32 50 -28 7 4 8 3 4 -4 -4 -6 -13 -9 -21 -5 -11
4 -15 -2 -15 -21 l0 -26 371 0 c318 0 370 2 360 14 -7 8 -9 25 -6 38 4 16 1
29 -9 37 -20 17 -20 40 -1 47 8 4 15 10 15 15 0 14 -30 10 -46 -6 -18 -18 -57
-19 -87 -4 -16 9 -22 9 -25 0 -5 -16 -32 -14 -32 4 0 8 10 20 23 26 12 7 27
19 33 27 7 9 18 13 28 9 11 -4 27 2 44 18 21 19 38 25 75 25 33 0 49 -5 53
-15 4 -8 12 -15 20 -15 21 0 17 -41 -7 -66 -16 -17 -19 -29 -14 -53 4 -17 11
-31 17 -31 5 0 9 -10 8 -22 -4 -50 -11 -48 194 -48 l194 0 20 27 c22 30 32 28
35 -6 1 -21 5 -21 175 -21 l173 0 14 34 c8 19 12 41 9 49 -3 9 3 16 15 20 14
3 21 13 21 30 0 20 -6 27 -30 32 -16 4 -30 11 -30 16 0 6 6 7 16 1 20 -11 56
-4 48 9 -7 12 17 11 36 -1 11 -7 11 -10 2 -10 -7 0 -11 -4 -7 -10 3 -5 19 -1
38 10 52 32 56 33 72 16 9 -9 23 -16 31 -16 8 0 25 -12 37 -26 17 -19 38 -29
77 -35 55 -9 100 -3 100 12 0 4 11 -2 25 -15 27 -26 31 -46 13 -64 -13 -13
-16 -13 68 -17 34 -2 76 -10 95 -18 24 -10 50 -12 86 -7 29 3 58 3 65 -2 7 -4
57 -8 112 -8 87 0 97 2 86 15 -16 20 -10 26 18 18 18 -4 20 -8 11 -19 -10 -12
33 -14 277 -14 262 1 286 2 262 16 -30 16 -33 21 -19 43 6 10 20 12 44 8 31
-5 35 -3 30 11 -6 15 -5 15 11 3 15 -13 19 -13 27 0 8 10 9 9 4 -8 -5 -18 1
-24 34 -39 22 -10 38 -21 35 -26 -3 -4 58 -8 134 -8 118 0 141 2 146 16 12 31
6 44 -19 44 -20 0 -45 24 -45 44 0 2 16 14 35 26 19 12 35 27 35 34 0 15 47
42 57 33 3 -4 11 -2 18 3 7 6 23 6 45 0 34 -10 54 -5 45 11 -4 5 3 9 14 9 12
0 30 9 41 20 18 18 50 28 50 14 0 -12 -24 -50 -47 -75 -16 -18 -22 -34 -19
-51 3 -16 -5 -36 -22 -58 -50 -64 -46 -68 78 -69 61 0 110 4 110 9 0 4 -5 10
-11 12 -18 6 -49 111 -37 125 13 16 -8 107 -28 124 -9 7 -11 16 -5 23 7 8 -4
11 -37 11 -102 1 -142 37 -46 43 49 2 67 8 137 45 30 15 49 18 80 12 23 -4 57
-9 75 -12 35 -6 42 -20 15 -30 -21 -8 -42 -33 -43 -50 0 -11 37 -29 53 -25 14
4 7 -16 -8 -22 -8 -3 -15 -12 -15 -21 0 -8 7 -15 15 -15 8 0 15 -5 15 -11 0
-5 8 -9 17 -8 31 3 43 -1 43 -12 0 -6 -7 -8 -16 -5 -8 3 -12 2 -9 -4 3 -6 0
-10 -8 -10 -8 0 -20 -7 -28 -16 -10 -13 -10 -17 2 -25 8 -5 10 -9 4 -9 -5 0
-3 -4 5 -10 12 -8 12 -11 -1 -27 -19 -22 -19 -41 1 -53 8 -5 11 -10 7 -10 -5
0 -2 -7 7 -15 17 -17 76 -20 76 -4 0 8 5 7 15 -1 9 -7 18 -10 21 -7 3 3 -3 10
-15 16 -20 11 -25 47 -6 49 5 1 30 3 55 6 l44 4 -23 -19 c-20 -16 -21 -20 -7
-25 9 -3 16 -12 16 -20 0 -8 9 -14 20 -14 13 0 18 5 14 15 -4 9 0 15 7 15 10
1 9 4 -3 14 -13 10 -15 15 -6 24 9 9 9 12 1 12 -7 0 -13 10 -15 22 -2 13 -11
24 -23 26 -11 2 -24 8 -30 14 -7 6 -5 7 5 4 23 -9 44 9 34 27 -5 9 -13 16 -19
16 -11 0 -26 61 -19 73 3 4 -3 5 -13 1 -16 -6 -16 -5 -4 10 11 14 11 20 1 32
-7 9 -19 14 -27 11 -7 -3 -13 -1 -13 4 0 6 -3 9 -7 8 -13 -3 -63 24 -63 34 0
12 34 10 72 -6 64 -27 112 20 67 65 -18 18 -25 20 -40 10 -29 -18 -34 -13 -9
9 13 11 26 20 30 20 14 0 21 32 10 45 -19 22 3 29 160 50 19 3 45 7 58 10 34
8 46 -4 26 -26 -10 -11 -12 -19 -6 -19 7 0 12 -7 12 -15 0 -20 24 -19 41 2 13
15 12 16 -8 11 -13 -4 -25 -2 -28 3 -6 9 37 51 58 56 6 1 42 11 80 21 37 11
67 16 67 11 0 -5 7 -9 15 -9 9 0 15 9 15 21 0 15 5 19 15 15 19 -7 104 20 125
40 20 20 2 18 -79 -6 -36 -11 -75 -21 -86 -23 -11 -2 -27 -7 -35 -10 -29 -11
-115 -19 -105 -10 63 57 149 102 206 106 10 1 19 4 19 8 0 4 14 12 31 19 27
12 33 11 60 -9 17 -13 33 -20 36 -17 4 3 3 6 -1 6 -4 0 2 13 14 29 22 32 164
106 240 126 3 1 19 8 35 15 17 7 32 14 35 15 55 21 70 29 70 42 0 11 7 14 25
9 14 -4 25 -2 25 4 0 5 23 19 50 31 27 12 50 25 50 30 0 5 13 9 28 9 16 0 37
9 47 20 10 11 31 20 47 20 19 0 28 5 28 16 0 10 6 14 15 11 18 -7 30 9 13 17
-7 4 -3 4 10 2 12 -2 22 0 22 5 0 5 7 9 15 9 18 0 20 16 3 23 -15 6 15 10 50
7 13 -1 33 8 44 19 10 12 24 19 30 15 6 -4 13 -3 17 2 10 15 64 41 98 49 18 3
37 14 42 23 5 9 11 15 13 13 2 -3 15 3 29 12 15 10 44 19 65 20 32 2 39 6 39
22 0 19 4 21 35 12 8 -2 11 -2 7 1 -5 2 4 10 18 18 15 8 32 11 38 7 6 -3 7 -1
3 5 -4 7 7 17 29 26 32 14 59 51 49 68 -2 3 14 4 35 2 25 -2 43 2 51 11 6 8
28 19 47 26 22 7 31 14 24 19 -9 5 -7 11 5 21 16 12 17 12 9 -1 -6 -12 -5 -13
6 -2 7 6 21 12 30 12 28 0 72 27 58 36 -9 5 -5 10 12 17 13 6 28 9 33 8 5 -1
15 7 23 19 8 11 23 20 34 20 12 0 17 4 13 11 -4 7 -1 10 7 7 7 -2 21 4 30 15
18 22 49 31 49 14 0 -12 14 0 16 14 1 5 2 13 3 17 0 5 16 7 34 5 22 -3 28 -1
19 5 -10 7 -2 16 32 36 26 15 50 25 54 22 11 -7 73 25 67 34 -9 15 46 42 73
35 l27 -6 -24 17 -24 17 21 8 c12 5 28 6 35 4 12 -5 77 73 77 92 0 31 -47 9
-256 -119 -359 -220 -817 -478 -1084 -613 -52 -26 -100 -51 -106 -56 -16 -13
-365 -185 -548 -271 -688 -322 -1266 -538 -1902 -712 -358 -98 -846 -187
-1019 -186 -66 1 -19 16 91 29 108 14 117 17 127 44 8 21 43 23 50 3 11 -27
197 1 197 30 0 12 9 13 48 8 l47 -6 12 39 c6 21 10 40 7 42 -9 9 -59 -16 -57
-27 5 -24 -17 -11 -23 13 -5 21 -9 23 -25 14 -10 -5 -19 -16 -19 -23 0 -15
-25 -14 -62 4 -31 15 -34 22 -15 38 15 13 57 5 57 -12 1 -6 6 -5 13 4 7 8 24
23 40 33 29 19 36 37 13 37 -8 0 -17 -8 -20 -17 -5 -11 -10 -13 -17 -6 -15 15
-1 56 17 49 8 -3 14 -1 14 4 0 5 -9 12 -20 15 -11 3 -20 12 -20 20 0 7 -12 16
-26 19 -22 6 -24 9 -13 22 7 8 18 13 25 10 7 -3 18 2 24 10 9 9 9 14 2 14 -6
0 -9 7 -6 15 4 8 1 15 -5 15 -9 0 -9 5 -1 20 6 11 17 20 25 20 8 0 15 4 15 10
0 5 17 14 38 19 21 6 51 24 67 41 18 19 35 28 46 25 10 -3 20 -1 24 5 3 5 16
10 29 10 12 0 27 5 33 11 8 8 14 5 22 -10 10 -17 15 -19 32 -11 11 6 28 8 38
5 24 -7 38 35 16 51 -8 6 -12 14 -9 17 3 3 -4 3 -16 0 -18 -5 -21 -2 -18 14 1
11 -3 27 -10 36 -17 20 -8 36 18 34 10 -1 17 -4 14 -8 -2 -4 0 -10 6 -14 5 -3
10 3 10 14 0 16 8 22 41 27 28 5 39 11 35 20 -3 8 5 19 17 25 12 6 29 20 38
32 9 11 29 20 45 21 22 1 29 6 29 20 0 11 6 21 13 24 6 2 12 8 12 14 0 6 -6 5
-15 -2 -11 -9 -19 -10 -27 -2 -12 12 -3 32 16 32 7 0 21 9 31 20 10 11 24 20
30 20 7 0 16 7 19 16 3 8 10 13 15 10 5 -3 21 6 35 19 15 14 32 25 37 25 6 0
7 5 3 12 -5 8 -2 9 9 5 10 -3 17 -2 17 3 0 6 9 10 20 10 11 0 20 5 20 10 0 6
-7 10 -15 10 -8 0 -15 6 -15 13 0 24 19 40 52 44 51 5 64 11 50 25 -14 14 -16
28 -3 28 16 0 21 -44 6 -60 -12 -14 -12 -16 5 -16 20 0 35 32 19 42 -14 8 -10
24 6 24 8 0 15 5 15 11 0 6 -7 9 -15 5 -22 -8 -18 12 4 24 26 13 31 13 31 -5
0 -8 4 -15 9 -15 4 0 6 12 3 27 -5 25 -4 26 34 20 36 -6 37 -5 20 8 -11 8 -24
15 -29 15 -5 0 -4 7 3 15 9 10 9 15 1 15 -6 0 -11 5 -11 10 0 6 8 5 20 -2 11
-7 18 -18 16 -25 -3 -7 1 -10 10 -6 12 5 19 -12 15 -39 -1 -12 32 4 62 29 16
13 34 23 42 23 17 0 105 50 105 60 0 11 69 53 86 53 8 0 14 3 14 7 0 9 106 80
120 80 5 0 10 5 10 10 0 6 -6 10 -14 10 -8 0 -18 4 -21 10 -4 7 3 7 20 0 20
-8 33 -6 53 6 15 8 20 13 11 10 -9 -2 -22 1 -28 7 -9 9 -10 7 -5 -8 7 -18 6
-18 -9 -6 -28 22 -19 31 26 25 32 -4 53 0 89 19 26 13 45 27 41 30 -10 11 19
38 34 32 15 -5 57 18 48 27 -3 2 5 4 18 4 13 -1 21 4 19 12 -1 8 2 11 7 8 11
-7 41 3 41 14 0 5 -10 6 -22 4 l-23 -5 23 10 c12 6 28 8 35 6 6 -3 23 4 36 14
20 15 21 19 7 24 -10 4 -19 1 -22 -8 -4 -8 -10 -15 -15 -15 -5 0 -2 11 7 25
14 22 18 23 31 10 8 -8 16 -15 19 -15 8 0 118 60 199 110 44 27 104 63 133 80
29 17 50 35 47 40 -3 5 5 14 17 21 21 11 22 11 9 -4 -8 -10 -9 -17 -3 -17 6 0
13 4 17 9 3 6 32 25 65 43 35 19 58 38 56 45 -5 11 22 25 54 28 17 1 280 154
280 162 0 2 -25 -10 -55 -27 -30 -17 -63 -31 -72 -30 -22 3 -63 -10 -63 -19 0
-4 -15 -6 -33 -6 -25 1 -36 -4 -44 -21 -10 -22 -9 -23 21 -18 29 4 30 4 6 -6
-13 -6 -33 -10 -45 -8 -11 1 -26 -1 -33 -6 -28 -17 -22 3 12 40 20 22 36 42
36 47 0 7 45 29 63 31 4 1 11 7 16 14 8 14 48 4 53 -13 2 -5 6 -9 10 -8 5 2 8
-3 8 -10 1 -7 6 -6 14 5 7 10 24 22 37 28 13 5 42 21 64 35 22 13 49 24 60 25
17 0 16 -4 -10 -26 -34 -29 -23 -24 54 25 30 19 49 37 43 39 -22 7 -12 23 26
40 43 20 105 62 99 68 -2 3 -33 -14 -68 -36 -103 -65 -191 -101 -186 -78 1 6
-10 12 -25 15 -16 2 -28 -1 -28 -7 0 -8 -6 -8 -20 0 -28 15 -25 25 11 40 27
12 29 14 13 23 -13 8 -22 5 -36 -13 -10 -12 -18 -30 -19 -39 0 -12 -2 -12 -9
4 -13 29 -12 35 5 35 8 0 15 4 15 9 0 5 9 13 20 16 11 4 33 17 49 31 28 24 29
24 24 3 -4 -16 -2 -20 8 -17 8 3 13 10 12 16 -2 6 5 13 15 16 9 3 23 15 30 27
11 18 11 23 -5 36 -17 14 -17 14 1 5 14 -7 24 -5 39 8 19 19 47 17 47 -3 0 -6
7 -2 15 9 8 11 15 14 15 7 0 -16 30 -17 30 -2 0 8 4 8 13 1 8 -7 22 -5 47 8
30 16 32 19 13 20 -16 0 -23 6 -23 20 0 11 -3 20 -8 20 -4 0 -13 -9 -20 -20
-14 -22 -44 -28 -36 -7 5 14 -5 17 -56 18 -24 1 -24 1 5 14 17 8 36 14 43 15
17 0 15 30 -2 30 -7 0 -35 -9 -61 -21 -31 -14 -51 -17 -57 -11 -12 12 28 42
56 42 10 0 25 8 32 18 9 11 16 13 21 6 5 -6 15 -13 24 -16 11 -5 15 -14 12
-32 -5 -24 -4 -25 21 -13 14 7 21 14 16 15 -33 12 27 62 85 72 25 4 30 10 30
33 0 17 7 32 19 39 20 11 96 85 96 93 0 14 -23 1 -55 -31 -34 -34 -55 -40 -62
-17 -2 6 10 17 27 24 16 8 30 17 30 21 0 3 15 15 33 27 17 11 42 29 54 41 19
17 26 19 43 8 11 -7 20 -16 20 -20 0 -5 5 -8 12 -8 9 0 9 3 0 12 -7 7 -12 20
-12 30 0 10 -5 18 -11 18 -6 0 -4 7 5 15 8 8 24 15 35 15 14 0 21 6 21 19 0
11 5 23 11 26 6 4 8 13 5 20 -2 7 2 21 9 32 8 10 15 14 15 10 0 -4 9 -3 20 3
23 12 53 66 45 80 -3 6 5 10 18 10 25 0 48 30 24 30 -7 1 1 8 16 16 24 13 28
20 25 52 -2 29 -7 37 -22 37 -11 0 -21 6 -24 13 -2 6 1 12 7 12 6 0 11 6 11
13 0 14 32 45 73 72 28 18 31 39 6 41 -8 1 -20 2 -28 3 -8 0 3 14 24 31 20 16
42 27 47 24 17 -11 40 18 34 45 -5 22 -5 23 5 8 6 -10 8 -25 5 -33 -3 -8 -1
-14 4 -14 5 0 8 -14 6 -30 -5 -40 9 -47 22 -12 34 90 41 145 21 158 -6 4 -8
19 -5 38 12 56 12 81 3 100 -5 10 -11 46 -12 80 l-4 61 64 80 c36 44 65 86 65
93 0 6 7 12 15 12 10 0 15 10 15 28 0 16 14 49 31 75 30 46 34 62 31 129 -2
28 -13 48 -53 92 -44 49 -49 58 -39 76 10 18 7 31 -17 76 -23 46 -32 54 -50
51 -13 -2 -23 0 -23 6 0 5 -13 7 -29 4 -20 -4 -31 -2 -35 8 -3 8 -13 15 -22
15 -16 0 -16 -1 0 -19 18 -19 15 -41 -5 -41 -6 0 -8 4 -5 8 3 5 -4 16 -16 26
-15 14 -18 20 -8 26 9 5 9 9 1 14 -6 4 -11 3 -11 -2 0 -18 -33 -23 -42 -7 -6
10 -24 15 -54 15 -36 0 -53 -7 -85 -32 -35 -28 -37 -32 -21 -43 22 -16 53 -15
70 2 17 17 32 17 32 0 0 -20 58 -51 74 -38 9 7 19 6 34 -5 21 -14 23 -14 31 7
l8 23 12 -21 c16 -30 14 -33 -17 -33 -32 0 -55 -29 -41 -51 8 -12 11 -11 22 2
11 15 17 15 42 5 17 -7 36 -20 44 -29 7 -10 26 -17 41 -17 15 0 30 -6 33 -14
3 -7 18 -16 34 -19 51 -11 96 -109 69 -149 -14 -19 -14 -19 -29 2 -9 13 -20
18 -31 14 -16 -6 -18 -11 -20 -48 -1 -11 -7 -20 -14 -22 -8 -2 -8 0 -1 3 7 3
8 8 1 12 -13 8 -27 55 -14 47 7 -4 6 5 -1 24 -6 16 -17 30 -24 30 -7 0 -13 5
-13 10 0 6 -12 16 -26 22 -20 9 -27 9 -33 0 -9 -15 -41 -5 -41 12 0 14 -61 56
-82 56 -9 0 -21 7 -28 15 -10 12 -10 15 4 15 22 0 20 8 -6 31 -22 18 -22 18
-3 20 11 1 25 1 31 0 7 -1 14 5 17 13 4 10 -4 16 -28 20 -18 4 -36 12 -38 19
-3 7 -6 5 -6 -5 -1 -12 -6 -15 -18 -11 -10 4 -14 2 -10 -4 7 -11 -3 -13 -83
-15 -31 -1 -49 -7 -58 -20 -7 -10 -18 -16 -23 -13 -5 4 -9 -5 -9 -20 0 -25 0
-25 30 -10 17 9 35 13 40 10 5 -3 19 4 30 15 20 20 47 19 35 -1 -6 -9 -5 -10
31 -14 46 -5 62 -35 19 -35 -14 0 -25 -6 -25 -13 0 -20 79 -97 101 -97 5 0 21
-11 35 -25 14 -14 31 -22 39 -19 11 5 13 2 9 -10 -4 -9 -1 -16 6 -16 6 0 30
-16 53 -35 27 -24 44 -32 52 -25 7 6 16 5 23 -2 20 -20 13 -43 -18 -61 -16
-10 -30 -22 -30 -28 0 -13 -18 -11 -23 4 -2 6 -3 3 -1 -8 2 -13 -5 -26 -18
-34 -30 -19 -50 5 -52 62 0 25 -5 42 -10 37 -4 -4 -21 -4 -38 1 -25 7 -28 6
-18 -6 7 -8 19 -15 26 -15 8 0 14 -7 14 -16 0 -8 -4 -12 -10 -9 -16 10 -12
-15 5 -31 8 -9 15 -23 15 -32 -1 -16 -1 -16 -13 0 -12 15 -14 15 -25 -3 -10
-16 -16 -17 -32 -9 -11 6 -20 17 -20 25 0 21 -17 18 -23 -4 -2 -11 3 -25 14
-35 11 -9 19 -28 19 -43 0 -21 3 -24 12 -15 20 20 26 14 22 -20 -1 -18 -3 -36
-3 -40 -1 -4 -8 -5 -16 -2 -10 4 -15 0 -15 -13 0 -11 -7 -28 -16 -39 -11 -14
-14 -15 -11 -3 7 23 -6 40 -23 29 -11 -7 -11 -11 -1 -24 9 -10 9 -16 3 -16
-17 0 -33 37 -35 78 -2 37 -33 86 -49 76 -4 -3 -8 -26 -7 -52 l1 -47 10 45
c10 40 12 43 20 23 8 -16 6 -30 -6 -54 -9 -18 -16 -38 -16 -46 0 -7 -5 -13
-11 -13 -5 0 -7 5 -4 10 3 6 1 10 -4 10 -6 0 -11 -5 -11 -11 0 -8 -12 -10 -35
-6 -44 7 -46 -6 -3 -18 38 -12 45 -27 22 -50 -14 -14 -15 -18 -3 -25 18 -12
11 -17 -37 -25 -26 -4 -44 -2 -49 4 -3 6 -19 11 -36 11 -16 0 -29 4 -29 9 0 5
8 7 19 4 30 -8 34 14 5 34 -42 29 -84 69 -84 81 0 5 -10 8 -21 5 -19 -5 -20
-4 -10 15 16 29 14 50 -2 27 -14 -18 -37 -14 -37 6 0 6 4 8 9 4 5 -3 13 0 17
6 4 8 3 9 -4 5 -8 -5 -12 1 -12 16 -1 21 -2 22 -14 6 -14 -18 -36 -24 -36 -10
0 4 5 13 12 20 19 19 -12 15 -33 -4 -16 -14 -18 -14 -24 5 -3 12 -4 30 0 40 8
26 -13 37 -33 17 -19 -19 -25 -136 -7 -136 5 0 -1 -9 -14 -19 -20 -15 -23 -24
-17 -54 12 -65 -33 -117 -92 -108 -19 3 -37 12 -40 19 -2 6 0 12 5 12 5 0 18
7 29 16 18 15 18 15 -8 11 -15 -2 -25 0 -22 4 3 5 12 9 20 9 8 0 14 5 14 11 0
5 -5 7 -10 4 -6 -4 -18 -1 -26 6 -13 10 -13 15 1 36 9 13 13 28 10 33 -3 6 -1
10 4 10 6 0 11 6 11 13 -1 6 -12 -1 -25 -18 -14 -16 -25 -26 -25 -21 0 5 -8 2
-17 -6 -23 -20 -63 -32 -63 -20 0 6 8 13 18 17 16 6 15 7 -3 18 -11 6 -22 10
-24 8 -2 -1 -8 3 -13 11 -7 9 -8 4 -4 -14 4 -16 2 -28 -3 -28 -14 0 -32 26
-23 35 4 4 -3 2 -15 -4 -13 -6 -28 -21 -34 -33 -9 -17 -8 -23 5 -30 14 -8 17
-23 14 -79 -1 -38 -5 -69 -9 -69 -10 0 -50 83 -43 89 3 3 9 0 13 -8 6 -9 10
-6 14 11 10 35 8 42 -8 28 -19 -16 -35 -4 -35 26 0 14 -4 23 -9 19 -5 -3 -12
-1 -15 4 -9 15 21 33 44 26 14 -5 20 -2 20 9 0 9 5 16 10 16 6 0 10 21 10 46
0 42 -1 45 -22 38 -13 -4 -26 -12 -30 -18 -4 -6 -10 -7 -14 -3 -13 12 22 39
50 40 14 0 26 3 26 7 0 5 2 15 5 22 4 10 -2 14 -23 12 -48 -3 -92 -15 -92 -25
0 -13 24 -11 38 3 6 6 14 9 18 6 3 -4 -8 -14 -25 -23 -28 -14 -32 -14 -37 0
-10 24 -26 5 -19 -23 4 -16 1 -28 -7 -33 -20 -13 -26 -11 -33 12 -7 20 -7 20
-27 2 -15 -13 -22 -15 -25 -6 -3 9 -10 10 -22 3 -13 -7 -17 -17 -13 -36 5 -26
4 -26 -16 -9 -11 10 -18 24 -15 31 9 23 -10 16 -35 -13 -17 -20 -20 -29 -10
-32 7 -2 27 -14 43 -26 59 -44 109 -64 130 -52 17 9 18 8 9 -4 -15 -21 -17
-80 -2 -108 11 -21 9 -26 -25 -58 -31 -28 -41 -32 -53 -22 -31 25 -8 89 31 89
25 0 35 23 15 35 -5 3 -10 1 -10 -4 0 -6 -5 -11 -12 -11 -6 0 -2 10 10 23 26
28 28 37 5 37 -17 0 -137 63 -164 87 -17 14 -15 58 1 48 5 -3 20 6 34 20 14
14 31 25 39 25 7 0 53 18 102 40 50 22 82 40 71 40 -15 0 -16 2 -6 15 11 13
15 13 22 3 6 -10 14 -6 33 17 26 31 26 46 0 25 -12 -10 -15 -10 -15 4 0 18
-15 22 -25 6 -12 -20 -20 -9 -23 32 -2 24 -9 53 -17 64 -13 20 -12 23 3 29 9
3 13 3 10 -1 -15 -14 12 -40 43 -42 32 -3 32 -2 14 17 -16 18 -16 21 -2 27 9
3 21 3 27 -1 5 -3 10 1 10 11 0 13 3 14 15 4 8 -7 15 -18 15 -26 0 -7 5 -16
11 -20 9 -5 10 3 5 28 -8 46 9 63 47 43 15 -8 29 -10 32 -4 4 5 2 9 -3 9 -6 0
5 16 23 36 19 19 37 40 42 45 4 5 19 18 33 28 24 19 24 21 8 37 -11 11 -18 14
-18 6 0 -7 -5 -12 -11 -12 -18 0 1 19 61 60 32 22 67 40 77 39 15 0 14 -2 -4
-11 -25 -12 -29 -23 -13 -33 5 -3 20 3 32 14 12 12 30 23 40 27 10 3 18 10 18
16 0 6 6 6 15 -2 8 -7 15 -9 15 -4 0 4 11 -3 24 -15 19 -18 30 -21 60 -16 20
4 36 12 36 19 1 6 21 24 46 39 42 28 46 28 69 13 14 -9 25 -12 25 -7 0 5 9 7
20 4 14 -4 20 0 20 11 0 9 3 15 8 15 24 -4 42 3 42 16 0 27 -28 28 -118 5 -48
-12 -98 -24 -112 -25 -14 -1 -45 -5 -69 -10 -43 -7 -44 -7 -39 19 3 14 1 26
-5 26 -14 0 -97 -48 -122 -70 -51 -46 -213 -115 -355 -151 -187 -47 -393 -10
-559 102 -47 32 -105 80 -128 106 -141 162 -140 161 -135 193 2 16 -1 36 -7
44 -6 7 -13 31 -15 52 -5 58 -16 92 -31 98 -7 2 -16 20 -20 38 -4 18 -13 44
-20 58 -30 59 -68 192 -81 280 -7 51 -42 140 -55 140 -12 0 -29 -35 -29 -58 0
-11 -11 -36 -25 -56 -14 -20 -25 -45 -25 -54 0 -9 -11 -41 -25 -70 -13 -29
-20 -50 -15 -47 5 3 7 -7 5 -22 -2 -16 -4 -32 -4 -36 -1 -5 -5 -5 -11 -2 -5 3
-10 2 -10 -3 0 -5 -20 -15 -45 -22 -36 -10 -49 -20 -61 -46 -21 -44 -12 -82
23 -90 94 -24 165 -142 128 -213 -8 -17 -11 -31 -6 -31 5 0 11 -10 13 -23 3
-17 0 -23 -15 -24 -11 -1 -28 -10 -38 -19 -21 -19 -17 -33 4 -16 21 18 18 -18
-5 -47 -10 -13 -18 -29 -18 -35 0 -16 -76 -20 -111 -6 -22 9 -33 8 -59 -5 -26
-14 -47 -16 -111 -10 -44 4 -82 11 -85 17 -8 13 -85 8 -111 -9 -26 -15 -59
-17 -68 -3 -3 6 -24 10 -47 10 -47 0 -53 -12 67 135 140 171 276 366 274 395
0 12 -3 11 -12 -4 -54 -85 -117 -148 -307 -307 -51 -43 -91 -69 -104 -69 -3 0
-6 7 -6 15 0 8 -6 15 -14 15 -7 0 -19 -7 -26 -15 -7 -8 -20 -15 -30 -15 -10 0
-23 -7 -30 -15 -7 -8 -21 -15 -31 -15 -11 0 -19 -4 -19 -9 0 -14 -31 -22 -45
-11 -8 7 -18 2 -33 -15 -15 -17 -32 -25 -55 -25 -35 0 -92 -20 -197 -67 -36
-16 -92 -35 -125 -42 -69 -14 -154 -37 -205 -53 -42 -13 -389 -20 -445 -9
l-40 9 55 1 c37 1 50 4 41 10 -14 9 20 22 83 33 11 2 21 8 23 15 3 9 -32 11
-152 8 -91 -2 -153 0 -150 5 3 5 -11 12 -30 16 -24 4 -34 11 -31 19 5 14 -38
30 -54 20 -6 -4 -10 0 -10 8 0 28 44 40 101 28 66 -15 91 2 30 20 -23 7 -46
20 -51 29 -5 9 -27 22 -49 29 -23 6 -41 15 -41 19 0 4 -14 16 -30 26 -22 13
-34 15 -44 7 -12 -10 -36 3 -36 20 0 4 -14 23 -30 41 -20 21 -30 41 -28 57 5
40 25 35 46 -12 18 -39 23 -44 51 -42 40 2 59 19 43 38 -6 7 -9 26 -7 42 2 17
4 33 4 37 1 4 17 10 37 14 22 4 33 11 30 19 -6 17 29 8 45 -11 23 -27 34 -15
34 38 0 45 3 54 23 64 20 10 21 12 6 18 -9 3 -32 1 -51 -6 -30 -11 -36 -11
-47 5 -7 9 -16 13 -20 9 -12 -12 -180 -10 -188 2 -5 8 -10 8 -18 0 -8 -8 -7
-16 5 -28 15 -15 12 -20 -7 -17 -16 2 -7 -20 22 -52 37 -43 38 -59 3 -55 -18
2 -38 18 -61 47 -31 41 -33 49 -28 95 3 28 6 54 6 59 0 4 6 7 14 7 26 0 29 22
6 40 l-23 18 24 30 c13 17 41 38 61 47 26 12 39 26 43 45 3 15 15 36 26 46 18
16 27 64 12 64 -5 0 -14 4 -22 9 -11 7 -9 13 8 30 32 32 24 55 -21 66 -19 5
-29 2 -36 -11z m-519 -843 c4 -1 13 -21 19 -46 12 -44 13 -45 45 -39 34 6 63
-8 63 -30 0 -6 -23 -23 -51 -39 -27 -15 -47 -32 -44 -37 3 -6 -5 -10 -19 -10
-14 0 -28 -5 -31 -11 -4 -6 -12 -8 -19 -6 -8 3 -10 -6 -8 -29 5 -41 -11 -64
-45 -64 -27 0 -27 -7 -7 90 6 25 3 31 -20 40 -14 5 -26 12 -26 15 0 4 5 3 10
0 6 -3 10 3 10 14 0 11 4 22 9 25 10 7 8 60 -4 89 -15 35 18 46 118 38z m2894
-715 c-8 -12 -24 -26 -36 -32 -11 -6 -29 -18 -39 -27 -21 -19 -37 -22 -26 -5
4 7 3 8 -4 4 -6 -4 -9 -12 -6 -19 2 -7 -8 -20 -23 -30 -16 -10 -21 -16 -12
-14 9 3 22 1 29 -3 16 -10 70 27 70 47 0 7 11 13 24 13 14 0 38 11 54 25 29
24 62 32 75 19 3 -4 0 -19 -8 -35 -17 -32 -19 -43 -6 -34 5 3 12 1 15 -4 4 -5
19 -8 34 -5 22 4 19 0 -18 -22 -25 -15 -48 -32 -51 -37 -4 -5 -44 -10 -90 -11
-46 -1 -92 -5 -102 -10 -14 -7 -19 -4 -24 13 -6 25 -4 25 -72 6 -50 -13 -56
-13 -68 3 -8 9 -12 12 -9 6 6 -11 -20 -54 -33 -54 -4 0 -17 13 -29 29 l-21 29
20 26 c21 26 65 37 56 14 -3 -9 8 -14 35 -16 31 -2 44 2 59 19 23 27 100 68
117 62 6 -3 12 3 12 12 0 9 4 13 10 10 5 -3 7 0 4 8 -3 10 4 18 23 24 46 16
55 13 40 -11z m-869 -30 c15 -8 72 -20 127 -27 107 -13 135 -27 135 -67 0 -21
3 -23 23 -17 30 9 58 8 82 -4 11 -6 32 -15 46 -20 32 -12 44 -65 23 -96 -8
-11 -14 -29 -14 -41 0 -12 -18 -41 -40 -65 -22 -24 -43 -55 -47 -69 -7 -27
-99 -120 -120 -120 -18 0 -27 -21 -13 -30 24 -15 -49 -50 -102 -50 -49 0 -66
-17 -28 -27 70 -18 -42 -66 -149 -63 -37 1 -48 -4 -77 -34 -34 -35 -36 -35
-60 -20 -32 22 -27 34 22 51 21 8 59 23 84 34 25 12 56 26 70 32 14 6 35 19
47 28 l23 17 -23 6 c-12 3 -32 6 -44 6 -29 0 -30 26 -1 33 18 5 19 8 8 22 -10
12 -10 19 -2 27 9 9 21 8 48 -5 34 -17 39 -17 83 -1 25 10 53 23 61 31 12 11
7 13 -32 13 -26 0 -50 5 -53 10 -10 16 -42 12 -85 -10 -44 -22 -65 -26 -54 -9
4 7 7 25 6 42 l-1 30 21 -20 20 -21 42 28 c22 15 76 43 120 61 66 28 76 35 62
45 -14 10 -13 13 14 24 30 12 39 33 20 45 -5 3 -10 17 -10 30 0 33 -20 75 -37
75 -7 0 -13 -5 -13 -11 0 -21 -23 -3 -27 21 -5 31 -1 29 -74 41 -35 6 -74 13
-85 15 -12 2 -24 13 -27 24 -7 27 -29 25 -67 -7 -26 -21 -33 -24 -40 -12 -5 8
-5 16 2 20 6 4 7 9 0 13 -18 11 -35 -20 -23 -43 18 -33 14 -61 -9 -61 -16 0
-20 -7 -20 -30 0 -20 5 -30 15 -30 27 0 13 -31 -18 -43 -10 -4 -15 -12 -11
-18 7 -13 -51 -69 -71 -69 -7 0 -34 9 -59 21 -39 17 -45 23 -35 35 6 8 23 14
38 14 14 0 32 4 40 9 11 7 9 11 -8 20 -25 14 -17 35 10 28 21 -6 27 9 7 16 -9
3 -3 15 16 35 15 17 26 34 23 39 -3 5 4 27 16 48 19 34 28 40 56 40 18 0 35
-3 38 -7 7 -13 18 -9 43 12 27 24 51 25 88 6z m-2481 -139 c15 -15 29 -25 31
-22 3 3 -5 16 -18 30 -18 19 -21 28 -12 37 9 9 19 5 42 -17 l29 -28 -21 -18
c-11 -10 -25 -16 -30 -13 -19 12 -39 -19 -36 -55 3 -32 0 -36 -30 -45 -30 -8
-32 -11 -26 -44 5 -23 3 -33 -4 -28 -6 4 -10 -6 -8 -26 1 -18 -5 -41 -13 -51
-8 -9 -14 -31 -14 -47 0 -18 -6 -30 -14 -30 -7 0 -13 -5 -13 -10 0 -6 -9 -20
-20 -32 -10 -12 -17 -25 -14 -30 3 -4 -7 -8 -21 -8 -20 0 -26 -4 -21 -15 3 -9
0 -15 -10 -15 -12 0 -11 -6 5 -37 57 -110 71 -143 71 -161 0 -12 8 -27 19 -34
10 -7 30 -30 44 -51 15 -21 40 -53 57 -70 16 -17 30 -34 30 -37 0 -4 18 -16
40 -29 22 -12 40 -29 40 -37 0 -7 17 -25 38 -38 20 -13 45 -34 55 -45 17 -21
16 -23 -5 -51 -22 -30 -38 -39 -38 -21 0 5 6 11 13 14 13 5 -23 22 -98 47 -38
12 -51 21 -53 38 -2 13 -9 21 -15 19 -7 -2 -18 10 -25 26 -10 25 -15 27 -27
17 -10 -9 -15 -9 -15 -1 0 6 -4 11 -9 11 -12 0 -61 44 -61 54 0 4 -13 26 -29
49 -16 23 -30 51 -33 62 -2 11 -11 19 -19 17 -12 -2 -15 6 -14 30 2 18 -2 38
-7 44 -5 7 -13 38 -18 69 -6 39 -16 62 -30 72 -21 15 -28 53 -9 53 5 0 17 16
25 36 8 20 26 48 40 62 13 15 24 33 24 40 0 7 9 32 20 55 11 23 23 65 26 94 4
29 12 54 20 57 15 6 44 69 44 97 0 11 7 19 15 19 8 0 15 7 15 15 0 7 8 18 17
23 18 10 27 5 70 -41z m1626 -96 c-3 -13 -14 -33 -25 -45 -39 -43 -45 -51 -56
-71 -15 -30 -5 -69 43 -170 56 -119 61 -135 41 -135 -9 0 -16 4 -16 8 0 5 -9
17 -19 29 -10 11 -21 29 -23 39 -2 11 -13 20 -27 22 -16 3 -21 0 -16 -9 5 -8
4 -10 -4 -5 -6 4 -18 3 -25 -3 -9 -7 -23 -5 -49 6 -45 21 -48 35 -7 27 19 -4
30 -2 30 5 0 6 -7 11 -15 11 -8 0 -12 6 -9 14 3 8 -3 19 -15 25 -18 10 -19 15
-9 36 6 14 15 25 19 25 5 0 3 12 -3 26 -9 20 -9 30 0 45 7 11 10 24 7 29 -3 5
3 14 14 19 11 6 21 21 23 33 2 16 11 24 29 26 15 2 35 12 45 23 10 12 28 18
45 17 25 -2 28 -5 22 -27z m2184 5 c4 -5 2 -11 -4 -13 -22 -8 -14 -24 18 -35
18 -6 26 -14 20 -17 -8 -5 -6 -13 5 -27 8 -10 12 -12 8 -4 -5 12 -4 12 6 3 12
-11 6 -33 -10 -33 -11 0 -30 56 -22 66 4 4 -2 4 -13 0 -11 -4 -32 -10 -47 -13
-16 -3 -28 -9 -28 -12 0 -11 -68 -12 -75 -1 -3 5 -11 10 -16 10 -5 0 -2 -11 7
-25 16 -24 16 -27 -2 -39 -23 -17 -47 -3 -74 42 l-18 29 45 2 c57 2 66 7 52
33 -6 11 -7 24 -2 28 15 16 136 20 150 6z m1464 -28 c5 -7 11 -17 14 -23 3 -6
7 -5 11 2 4 10 10 9 22 -4 13 -12 14 -17 4 -21 -7 -2 -26 -15 -42 -29 -17 -14
-30 -20 -30 -15 0 5 7 15 15 22 8 7 15 18 14 24 0 7 -3 6 -6 -2 -2 -7 -13 -17
-24 -22 -17 -10 -18 -8 -13 20 4 19 2 30 -5 30 -6 0 -11 -9 -11 -21 0 -12 -8
-23 -20 -26 -11 -3 -20 -11 -20 -19 0 -7 -5 -16 -12 -20 -8 -5 -9 -2 -4 11 6
18 6 18 -12 2 -27 -24 -32 -21 -32 17 0 19 -5 38 -10 41 -6 4 -7 11 -4 17 4 7
9 7 13 -1 5 -7 15 -3 31 14 19 21 30 24 68 20 25 -2 49 -10 53 -17z m-232 -63
l-9 -30 24 30 c20 25 27 28 38 17 7 -7 9 -13 3 -12 -23 5 -28 -1 -10 -14 18
-13 18 -15 2 -30 -21 -22 -22 -36 -1 -36 12 0 15 -6 11 -21 -4 -13 1 -26 14
-37 19 -16 27 -38 10 -28 -5 3 -11 -4 -15 -17 -5 -18 -8 -20 -16 -7 -8 13 -10
12 -10 -3 0 -17 -36 -37 -66 -37 -24 0 -6 20 19 21 13 1 7 4 -13 8 -29 5 -36
11 -41 36 -4 17 -7 24 -8 18 -2 -21 -21 -15 -21 6 0 10 9 25 19 32 19 14 19
16 1 67 -9 28 -14 52 -11 52 16 0 31 -26 32 -54 l0 -31 16 38 c15 36 14 39 -3
52 -18 13 -17 14 12 12 30 -2 31 -3 23 -32z m-4303 -73 c1 -37 3 -75 4 -86 0
-10 -7 -27 -16 -37 -14 -16 -15 -21 -4 -35 11 -13 11 -17 1 -24 -8 -4 -10 -13
-7 -19 4 -6 2 -11 -4 -11 -6 0 -9 -8 -6 -18 6 -19 -16 -36 -59 -45 -13 -3 -10
-5 10 -6 17 0 41 6 53 15 20 14 22 14 22 0 0 -9 5 -16 10 -16 6 0 10 5 10 10
0 6 5 10 10 10 16 0 12 -46 -5 -60 -12 -10 -15 -10 -15 4 0 9 -7 16 -16 16 -8
0 -12 5 -9 10 3 6 1 10 -4 10 -6 0 -12 -7 -12 -15 -2 -22 -4 -29 -10 -40 -3
-5 -4 -20 -3 -32 0 -13 -3 -23 -7 -23 -38 0 40 -50 101 -65 31 -8 99 -54 114
-77 13 -21 -14 -55 -36 -44 -27 14 -56 32 -71 45 -9 7 -21 10 -27 6 -5 -3 -10
-2 -10 3 0 17 -26 21 -68 10 -35 -9 -44 -7 -64 9 -28 23 -32 37 -13 53 13 10
12 14 -1 27 -9 9 -12 24 -9 37 4 12 3 16 -2 10 -5 -7 -16 -8 -28 -3 -16 6 -17
8 -3 8 22 1 41 36 33 61 -4 12 -2 20 5 20 7 0 10 6 7 14 -3 8 -1 17 6 20 9 3
9 7 -1 14 -7 5 -10 16 -6 25 3 10 1 17 -5 17 -27 0 -7 30 32 46 33 13 38 18
22 22 -34 7 -38 19 -17 49 11 16 17 34 13 41 -17 28 7 120 28 108 3 -2 15 0
26 4 11 4 22 6 25 3 2 -2 5 -34 6 -71z m1384 42 c17 -3 28 -9 25 -14 -3 -5 -1
-11 5 -15 18 -11 10 -35 -14 -45 -23 -8 -25 -14 -23 -63 2 -62 -13 -87 -52
-87 -32 0 -58 15 -42 24 7 5 7 15 1 32 -15 39 -12 72 7 83 16 8 16 13 5 45
-16 45 -8 59 29 52 16 -3 43 -9 59 -12z m2493 -21 c-5 -13 -3 -15 12 -9 18 7
18 6 1 -13 -10 -11 -16 -28 -13 -38 3 -15 6 -14 15 7 6 14 11 20 11 13 1 -20
31 -2 47 28 11 22 22 29 44 29 17 0 30 -4 30 -10 0 -10 -13 -14 -43 -11 -10 2
-21 -8 -26 -22 -9 -22 -168 -129 -188 -126 -4 1 -15 1 -23 0 -13 -1 -13 -3 -1
-10 11 -7 7 -14 -20 -30 -19 -12 -40 -21 -46 -21 -7 0 -13 -5 -13 -10 0 -6
-12 -16 -27 -23 -16 -6 -46 -24 -68 -39 -22 -14 -43 -24 -47 -22 -10 7 -10 25
0 22 4 -2 38 15 75 36 54 32 66 43 61 58 -7 24 21 47 58 48 15 0 30 5 33 10 3
6 12 10 20 10 7 0 29 10 48 23 28 18 34 28 34 54 -1 23 -7 35 -20 39 -10 3
-21 3 -24 0 -4 -3 1 -6 11 -6 9 0 14 -4 11 -10 -8 -13 -102 -13 -110 -1 -9 16
17 26 90 32 39 3 71 6 72 7 1 1 -1 -6 -4 -15z m-4338 -43 c3 5 14 10 23 9 12
0 11 -3 -5 -9 -13 -5 -23 -13 -23 -18 0 -5 10 -8 23 -8 31 1 34 -36 7 -75 -22
-29 -22 -31 -4 -44 17 -12 21 -12 32 3 7 9 10 22 7 29 -3 10 0 11 15 3 11 -6
20 -17 20 -25 0 -8 4 -15 10 -15 5 0 7 13 4 30 -4 17 -3 30 2 30 17 -1 44 -27
44 -42 0 -9 6 -21 14 -27 17 -14 9 -51 -11 -51 -8 0 -23 5 -34 11 -18 9 -19 8
-7 -10 16 -26 3 -40 -18 -19 -13 12 -14 20 -5 36 15 29 16 29 -35 25 -49 -4
-83 -31 -84 -65 0 -10 -5 -18 -11 -18 -8 0 -8 -5 1 -15 10 -12 10 -15 -3 -15
-9 0 -18 -4 -21 -8 -7 -11 109 -104 163 -133 45 -23 56 -34 70 -70 15 -41 1
-54 -45 -38 -22 7 -46 18 -54 25 -15 11 -65 26 -104 29 -11 1 -22 8 -24 15 -3
9 1 11 11 7 9 -3 19 -1 23 5 5 7 -4 9 -29 4 -30 -6 -40 -3 -54 14 -10 11 -24
20 -32 20 -12 0 -11 3 3 13 15 11 16 17 5 40 -7 15 -16 27 -21 27 -17 0 -7 25
25 59 17 18 25 30 17 26 -13 -8 -13 -6 -2 8 8 9 11 21 7 27 -3 6 3 10 14 10
12 0 21 5 21 10 0 6 -10 10 -22 10 -19 0 -20 2 -6 18 10 11 12 25 7 42 -12 43
-10 50 16 50 17 0 28 7 34 23 5 12 6 24 3 27 -2 3 -7 -1 -9 -7 -6 -18 -33 -16
-33 2 0 20 31 35 52 24 10 -6 19 -5 23 1z m2903 -181 c15 -15 35 -21 83 -24
35 -2 65 -9 67 -15 2 -5 15 -10 28 -10 14 0 27 -7 30 -15 4 -8 12 -15 20 -15
8 0 11 6 7 15 -3 9 9 2 26 -15 17 -17 31 -36 31 -41 0 -5 6 -9 14 -9 8 0 16
-7 20 -15 3 -8 16 -15 30 -15 14 0 36 -4 49 -9 20 -8 24 -15 22 -48 -1 -21 -3
-41 -4 -45 0 -3 -17 -12 -36 -18 -19 -6 -35 -15 -35 -20 0 -11 -95 -55 -112
-52 -4 1 -16 -12 -28 -28 -21 -30 -42 -40 -38 -19 5 21 -23 22 -29 1 -6 -26
-38 -41 -95 -44 -27 -2 -48 -7 -48 -12 0 -4 -11 -6 -24 -2 -12 3 -26 3 -30 -1
-13 -13 -37 -11 -43 3 -6 15 -33 20 -33 5 0 -26 -64 -16 -97 15 -9 9 -9 14 0
24 10 10 7 11 -11 5 -15 -4 -24 -2 -28 9 -3 8 -30 25 -60 37 -30 13 -54 28
-54 36 0 7 -6 10 -13 7 -8 -3 -51 7 -98 22 -46 15 -103 27 -125 28 -25 1 -40
5 -36 11 14 27 37 45 65 51 17 3 48 15 69 26 20 11 42 17 48 13 5 -3 13 1 16
9 3 9 12 16 19 16 16 0 68 41 61 48 -11 10 27 42 50 42 13 0 29 8 36 19 11 16
26 18 123 16 61 -1 114 0 118 2 4 3 3 11 -4 19 -19 24 27 17 49 -7z m829 -10
c-6 -24 1 -49 14 -49 4 0 6 6 3 14 -3 9 4 15 23 19 31 6 42 -5 43 -43 1 -24
30 -76 30 -53 0 7 -4 14 -9 17 -5 3 -7 15 -4 26 3 11 10 17 15 14 5 -3 7 -12
5 -18 -3 -7 1 -13 9 -13 7 0 10 5 7 10 -3 5 1 13 8 18 12 7 11 9 -1 9 -8 0
-23 7 -33 15 -18 13 -18 14 3 25 18 10 25 8 42 -7 11 -10 29 -16 40 -15 25 4
41 -18 26 -36 -6 -7 -7 -12 -2 -11 29 5 23 -5 -18 -31 -27 -17 -51 -30 -54
-30 -3 0 -19 -9 -35 -21 -28 -20 -40 -14 -18 8 7 7 2 17 -17 32 -21 17 -29 19
-36 9 -6 -10 -13 -7 -28 11 -11 13 -20 18 -20 12 0 -6 -5 -11 -11 -11 -6 0 -9
8 -7 18 2 10 11 16 21 14 17 -3 17 -2 1 23 -12 18 -20 23 -27 16 -6 -6 -16
-11 -21 -11 -9 0 41 55 53 59 2 1 1 -8 -2 -20z m-2284 -78 c3 -15 4 -37 1 -48
-3 -11 5 -37 17 -59 34 -60 50 -75 71 -68 13 4 27 -3 43 -20 13 -14 28 -26 34
-26 5 0 7 -8 4 -19 -4 -15 -11 -17 -44 -11 -21 4 -45 13 -53 19 -8 7 -19 10
-25 7 -5 -3 -16 12 -25 33 -11 30 -22 41 -45 46 -17 4 -33 6 -37 5 -23 -5 -45
72 -23 86 6 3 8 17 5 29 -7 27 9 43 18 19 3 -8 10 -12 16 -9 6 4 8 11 5 16 -8
12 3 29 19 29 8 0 16 -13 19 -29z m-618 -112 c-4 -5 0 -18 9 -28 16 -17 16
-30 -3 -96 -6 -21 -7 -43 -4 -48 3 -6 1 -7 -5 -3 -29 18 -6 -24 41 -76 51 -55
53 -56 119 -62 39 -4 76 -2 88 4 11 5 28 14 39 19 10 6 28 7 39 4 11 -2 23 0
26 6 4 6 0 11 -8 11 -9 0 -16 7 -16 15 0 8 -4 15 -10 15 -5 0 -10 -7 -10 -15
0 -8 -6 -15 -14 -15 -8 0 -22 -3 -32 -7 -12 -4 -15 -3 -10 5 4 7 2 12 -3 12
-17 0 -13 12 12 44 18 22 32 29 70 31 27 2 53 -2 60 -8 20 -19 38 -19 51 -1
11 14 15 12 36 -19 17 -25 30 -34 47 -32 13 1 23 -2 23 -6 0 -5 -7 -9 -15 -9
-8 0 -15 -4 -15 -10 0 -5 6 -10 14 -10 7 0 16 -9 19 -20 6 -24 -8 -26 -29 -5
-17 17 -54 20 -54 5 0 -5 -7 -10 -15 -10 -8 0 -15 -5 -15 -11 0 -5 -5 -7 -12
-3 -7 5 -9 2 -6 -8 8 -19 -33 -51 -93 -71 -24 -9 -59 -22 -78 -30 -38 -16 -91
-9 -120 17 -10 9 -21 16 -25 16 -20 0 -76 34 -76 46 0 8 -2 14 -4 14 -2 0 -11
3 -19 6 -11 4 -17 -4 -22 -26 -5 -22 -11 -30 -22 -26 -8 3 -17 6 -19 6 -2 0
-4 9 -4 21 0 14 5 19 14 16 11 -5 11 -1 -1 24 -8 16 -19 26 -25 23 -5 -4 -3 5
6 19 13 20 14 26 4 30 -10 3 -8 10 6 26 18 19 18 26 7 56 -14 39 -8 55 19 55
10 0 22 5 25 10 8 13 -21 13 -47 -1 -19 -10 -20 -9 -16 14 5 25 5 25 -21 9
-23 -16 -25 -16 -18 0 3 10 2 20 -3 23 -6 4 -10 11 -10 17 0 6 6 6 15 -2 13
-11 23 -8 58 18 43 32 63 40 52 21z m1417 -298 c26 -19 34 -31 27 -38 -8 -8
-5 -13 10 -18 15 -5 21 -13 19 -28 -2 -13 2 -21 10 -19 23 4 12 -8 -20 -22
l-33 -13 52 2 c29 1 50 -2 47 -6 -3 -5 5 -9 18 -10 23 -1 23 -1 -2 -9 -19 -6
-20 -8 -6 -9 12 -1 16 -6 12 -16 -4 -10 6 -8 32 9 27 17 43 21 60 15 26 -10
30 -23 4 -14 -20 6 -72 -16 -75 -31 -1 -5 -8 -7 -16 -6 -13 3 -13 1 -2 -12 8
-9 16 -14 19 -11 3 3 16 -2 29 -10 23 -15 49 -12 38 5 -3 4 5 6 17 2 16 -4 19
-2 13 8 -6 10 -4 12 9 7 10 -4 27 -7 37 -7 11 0 18 -4 15 -9 -4 -5 -3 -11 1
-14 10 -5 -12 1 -32 9 -11 5 -14 2 -8 -12 5 -13 3 -16 -10 -11 -9 3 -17 2 -17
-3 0 -5 -8 -11 -17 -13 -10 -3 0 -5 23 -6 22 0 45 4 52 11 7 7 12 8 12 2 0 -6
-5 -15 -12 -22 -9 -9 -9 -12 3 -12 7 0 21 4 29 10 9 6 17 5 23 -3 6 -8 7 -6 3
6 -5 16 4 21 33 17 7 -1 20 8 28 19 18 26 88 29 115 4 21 -19 24 -35 5 -27 -8
3 -14 -6 -15 -26 -2 -21 1 -29 9 -25 8 6 8 2 0 -14 -6 -11 -23 -24 -36 -27
-14 -3 -30 -14 -35 -23 -9 -15 -9 -15 -10 1 0 14 -5 16 -22 9 -13 -5 -22 -14
-20 -21 1 -6 -2 -9 -6 -6 -5 3 -18 -4 -28 -15 -15 -16 -16 -22 -5 -29 11 -6 9
-10 -7 -19 -11 -6 -27 -11 -35 -11 -8 0 -28 -7 -43 -15 -17 -9 -30 -11 -32 -5
-2 6 -11 6 -24 -1 -18 -10 -20 -9 -14 6 4 12 2 16 -6 13 -7 -3 -23 7 -35 22
l-23 28 33 7 c29 6 30 8 14 18 -10 7 -28 20 -39 30 -12 9 -26 17 -32 17 -23 0
20 20 44 20 37 0 11 19 -30 21 -39 3 -75 32 -64 52 5 7 1 7 -10 -2 -9 -8 -16
-10 -15 -5 4 24 -3 46 -21 61 -11 10 -20 27 -20 39 0 12 -15 39 -34 60 -19 21
-32 44 -29 51 3 7 1 13 -5 13 -5 0 -13 7 -16 16 -3 8 -2 12 4 9 13 -8 13 15 0
35 -6 9 -5 17 3 22 17 11 18 11 59 -21z m-350 -146 c-3 -19 0 -25 12 -25 11 0
14 5 10 12 -4 7 -3 8 5 4 8 -5 9 -12 2 -20 -5 -6 -12 -24 -15 -39 -2 -15 -7
-31 -11 -37 -3 -5 0 -7 8 -4 8 3 18 1 22 -5 3 -6 -1 -14 -9 -17 -26 -10 -19
-33 9 -29 14 1 28 -2 31 -7 3 -5 12 -7 19 -4 17 6 53 -20 42 -30 -4 -5 -17 -3
-28 4 -24 15 -35 10 -42 -19 -4 -16 -3 -19 6 -10 17 17 31 13 16 -6 -13 -15
-12 -15 8 -5 29 16 33 15 33 -8 0 -11 5 -20 11 -20 5 0 7 6 3 13 -5 8 -2 8 9
-2 18 -15 23 -26 7 -16 -5 3 -10 2 -10 -3 0 -6 10 -12 23 -16 14 -3 28 -19 37
-41 13 -33 15 -34 36 -20 13 8 34 14 48 13 32 -3 22 -18 -12 -18 -15 0 -33 -4
-41 -9 -9 -6 -22 -4 -37 6 -24 15 -45 11 -43 -10 0 -9 2 -9 6 1 6 15 23 16 23
1 0 -6 7 -17 16 -26 21 -21 4 -37 -42 -38 -23 -1 -33 2 -30 10 3 8 -5 11 -22
8 -23 -3 -24 -2 -7 6 12 5 27 17 35 27 13 17 12 16 -9 -1 -16 -14 -25 -16 -28
-8 -2 7 -10 11 -16 9 -7 -1 -9 -1 -4 1 4 3 4 10 1 15 -5 7 -2 8 5 3 12 -7 48
6 78 28 13 9 -20 49 -50 60 -11 4 -15 12 -11 19 4 9 2 8 -7 -1 -11 -10 -11
-15 -1 -18 6 -3 12 -11 12 -19 0 -9 4 -13 9 -10 5 3 14 -1 21 -9 10 -12 7 -15
-17 -20 -15 -4 -34 -8 -41 -11 -9 -3 -10 1 -2 16 7 14 7 20 0 20 -5 0 -10 -4
-10 -10 0 -5 -8 -10 -18 -10 -22 0 -106 76 -97 90 3 5 2 10 -3 10 -6 0 -8 9
-5 20 4 14 0 20 -10 20 -18 0 -59 48 -52 60 3 4 -2 11 -10 14 -13 4 -14 10 -5
26 6 11 7 20 3 20 -4 0 1 6 12 12 19 11 19 11 0 18 -30 11 -42 2 -38 -28 4
-21 2 -24 -6 -12 -18 26 -13 67 9 73 24 6 60 -2 60 -14 0 -15 37 -10 54 6 8 8
19 15 25 15 6 0 11 5 11 10 0 6 4 10 9 10 4 0 6 -11 3 -25z m-423 -77 c-5 -9
-19 -24 -32 -34 l-22 -16 22 5 c15 3 20 1 16 -9 -4 -10 0 -12 11 -8 9 3 16 13
16 21 0 16 37 10 55 -10 7 -7 4 -8 -7 -4 -32 11 -50 -3 -46 -39 1 -18 -2 -37
-6 -41 -5 -5 -6 -2 -1 7 6 12 5 13 -6 3 -10 -10 -10 -16 -1 -25 17 -17 15 -41
-3 -34 -8 3 -15 1 -15 -5 0 -6 -4 -8 -9 -4 -5 3 -12 1 -16 -5 -3 -5 1 -10 10
-10 11 0 15 -5 11 -16 -3 -8 -2 -13 2 -11 4 3 13 -2 21 -10 12 -13 11 -14 -6
-9 -17 6 -20 3 -16 -18 3 -14 12 -31 19 -37 12 -9 13 -9 9 4 -4 8 -2 18 4 22
7 3 8 0 5 -9 -3 -9 -2 -16 4 -16 6 0 8 -9 5 -20 -3 -11 -9 -20 -14 -20 -5 0
-9 -4 -9 -9 0 -4 10 -8 23 -8 40 -1 47 -3 47 -14 0 -6 -7 -9 -15 -5 -8 3 -15
1 -15 -5 0 -6 8 -9 18 -8 44 4 60 -14 23 -26 -13 -4 -18 -12 -14 -21 5 -13 8
-13 22 0 12 11 18 11 27 2 22 -24 34 -55 28 -71 -4 -9 -3 -15 2 -13 5 1 19 -3
32 -10 22 -13 28 -7 23 22 -1 5 5 4 13 -4 18 -14 22 -25 6 -15 -5 3 -10 4 -10
1 0 -2 -3 -13 -6 -23 -6 -15 -4 -16 7 -5 15 13 29 16 29 5 0 -10 -49 -33 -71
-33 -9 0 -19 -6 -22 -13 -6 -17 19 -16 52 2 20 11 26 10 44 -8 l21 -21 -21
-22 c-19 -20 -20 -26 -8 -41 7 -10 16 -14 19 -8 3 5 0 12 -6 15 -9 3 -8 9 6
20 10 8 22 13 27 11 4 -3 10 -1 14 5 4 6 11 8 16 5 5 -4 9 -2 9 4 0 6 -9 15
-19 21 -26 13 -34 13 -25 -2 4 -7 -5 -2 -20 11 -23 22 -24 26 -10 34 8 5 18 6
21 3 4 -3 1 -6 -6 -6 -7 0 -10 -4 -6 -10 3 -5 12 -7 20 -3 8 3 15 0 15 -7 0
-6 4 -9 9 -5 6 3 29 2 52 -1 37 -6 40 -9 25 -20 -13 -9 -14 -13 -4 -17 7 -2
10 -8 5 -12 -4 -5 -13 -3 -19 3 -7 7 -17 12 -23 12 -5 0 1 -9 14 -19 14 -10
31 -17 38 -14 7 3 13 0 13 -6 0 -6 -5 -11 -12 -11 -6 0 -8 -3 -5 -7 4 -3 15 1
24 10 20 17 19 17 69 17 20 0 33 4 29 10 -7 11 23 2 43 -13 18 -14 15 -55 -8
-87 -11 -15 -17 -30 -14 -33 3 -3 -1 -17 -8 -32 -13 -24 -16 -25 -28 -10 -11
13 -10 19 10 40 15 16 20 30 15 42 -6 16 -8 15 -18 -7 -7 -14 -17 -31 -24 -38
-15 -16 -17 -42 -3 -42 6 0 10 -7 10 -16 0 -8 -4 -12 -10 -9 -5 3 -18 1 -27
-5 -16 -10 -16 -11 -1 -6 9 2 22 -2 29 -10 9 -12 9 -13 -2 -10 -15 6 -66 -31
-57 -40 3 -3 13 3 22 12 9 9 19 14 22 12 9 -10 -30 -33 -60 -35 -79 -6 -84 -4
-88 37 -2 16 -14 30 -32 39 -47 24 -138 123 -132 144 3 13 0 17 -10 13 -9 -3
-14 1 -14 14 0 11 -7 20 -15 20 -13 0 -17 9 -15 36 1 3 -13 17 -31 32 -58 50
-79 73 -79 87 0 8 -4 15 -10 15 -5 0 -10 5 -10 12 0 6 -7 20 -17 30 -13 14
-13 18 -2 18 8 0 23 -7 33 -15 23 -17 36 -19 36 -6 0 13 -60 42 -71 35 -5 -3
-9 4 -9 16 0 12 -4 19 -9 15 -5 -3 -12 -1 -15 4 -4 5 -2 12 3 16 14 8 4 48
-16 63 -14 10 -69 18 -96 13 -5 -1 -5 4 -2 10 5 6 20 8 40 5 23 -5 36 -2 45
10 12 13 11 17 -1 25 -8 5 -18 9 -24 9 -5 0 -3 -4 5 -10 8 -5 12 -12 9 -15
-12 -12 -36 7 -51 40 -15 33 -14 35 6 41 22 7 75 42 91 61 5 6 26 21 45 33 27
17 30 20 10 15 -14 -4 -39 -9 -56 -12 -25 -4 -31 -9 -27 -24 3 -10 0 -19 -6
-19 -6 0 -11 6 -11 14 0 9 -7 12 -20 9 -11 -3 -20 0 -20 6 0 6 -9 15 -20 19
-14 5 -17 11 -10 22 9 13 11 13 20 0 9 -13 10 -13 10 0 1 12 4 10 15 -4 15
-19 15 -19 40 4 13 12 22 27 19 31 -7 11 65 58 87 56 13 -1 15 -5 8 -19z
m-1007 -132 c11 -16 10 -26 -2 -26 -18 0 -10 -27 13 -43 17 -13 19 -18 8 -25
-9 -7 -10 -12 -2 -16 6 -4 11 -12 11 -18 0 -6 -7 -5 -17 3 -17 12 -17 12 -1
-6 16 -17 16 -19 -3 -36 -17 -14 -17 -17 -4 -23 9 -3 14 -10 10 -15 -3 -5 0
-13 6 -17 8 -4 9 -3 5 4 -4 7 -1 12 6 12 8 1 6 6 -6 15 -13 10 -15 15 -6 15
17 0 60 -39 60 -54 0 -6 -7 -2 -15 8 -15 19 -15 19 -28 1 -8 -10 -19 -15 -25
-11 -7 4 -12 1 -12 -8 0 -26 4 -31 23 -28 9 2 17 -2 17 -7 0 -6 -3 -10 -7 -10
-22 4 -32 -3 -27 -16 4 -8 2 -15 -4 -15 -5 0 -15 7 -22 15 -7 8 -18 15 -24 15
-6 0 7 -16 29 -35 31 -26 36 -34 21 -35 -14 0 -16 -3 -8 -13 9 -10 6 -18 -10
-32 l-22 -18 22 -18 c27 -21 28 -29 5 -29 -16 -1 -16 -2 2 -16 16 -12 17 -16
6 -23 -16 -10 -6 -70 13 -77 15 -6 19 -51 5 -60 -8 -4 -7 -9 2 -16 11 -7 11
-11 2 -15 -9 -3 -10 -10 -3 -24 6 -10 8 -19 5 -19 -4 0 -3 -5 0 -10 4 -7 14
-6 28 1 21 10 21 10 3 -5 -16 -13 -17 -19 -8 -28 9 -9 12 -9 12 0 0 7 5 12 10
12 6 0 10 -8 8 -17 -2 -13 4 -19 22 -20 35 -4 101 -16 197 -38 73 -17 81 -21
72 -37 -5 -10 -6 -18 -2 -18 4 0 -1 -8 -12 -16 -19 -14 -19 -16 -2 -28 21 -16
22 -26 2 -26 -9 0 -18 -7 -21 -15 -4 -8 -10 -13 -14 -10 -4 3 -14 -3 -21 -12
-11 -13 -11 -17 -1 -20 6 -3 12 -8 12 -13 0 -14 -31 -20 -51 -10 -15 9 -19 7
-19 -5 0 -9 -4 -14 -9 -10 -5 3 -12 1 -16 -5 -11 -18 -54 -11 -65 10 -6 11
-17 20 -24 20 -7 0 -21 9 -32 21 -11 13 -13 19 -5 17 8 -2 14 8 16 25 3 20 0
27 -9 24 -7 -3 -30 3 -51 13 -30 14 -43 15 -56 7 -15 -9 -23 -6 -44 18 -14 18
-25 42 -25 59 0 17 -10 41 -22 54 -13 14 -17 22 -11 18 25 -14 50 11 45 44 -4
29 -22 53 -22 30 0 -6 -5 -8 -10 -5 -8 5 -8 11 0 20 7 8 7 21 0 39 -5 14 -7
32 -4 40 3 8 1 17 -5 21 -6 3 -11 19 -11 35 0 18 -8 35 -22 46 -23 16 -23 16
11 10 l33 -6 -16 25 c-9 13 -16 32 -16 41 0 9 -8 23 -17 30 -10 7 -13 14 -7
14 6 0 24 -10 40 -22 l29 -23 -27 37 c-15 20 -24 38 -20 41 4 2 1 2 -5 1 -7
-2 -18 6 -24 17 -12 23 -3 41 11 20 5 -9 10 6 15 45 9 84 14 99 28 85 9 -9 8
-14 -2 -20 -9 -6 -10 -11 -2 -15 6 -4 9 -10 7 -14 -6 -11 23 -47 31 -38 4 4 3
10 -3 14 -15 10 -25 42 -13 42 11 0 -7 37 -29 60 -14 13 -14 15 1 18 15 3 15
5 1 28 -16 24 -10 31 21 24 6 -1 18 -3 28 -5 9 -2 23 -7 30 -10 6 -4 1 2 -12
13 -14 11 -30 18 -35 16 -6 -2 -17 0 -25 5 -10 7 -11 12 -1 27 10 16 11 16 6
2 -7 -22 1 -23 20 -4 8 8 23 12 36 9 l23 -6 -22 22 c-13 12 -23 24 -23 27 0
10 65 -8 72 -20z m-394 -21 c17 -4 32 -11 32 -16 0 -5 -8 -6 -17 -2 -10 3 -4
-8 15 -25 34 -33 42 -55 15 -45 -11 4 -14 3 -9 -5 5 -8 2 -10 -8 -6 -12 4 -13
11 -6 24 7 13 6 20 -6 24 -22 9 -37 -3 -31 -25 3 -11 0 -19 -6 -20 -7 0 -2 -4
11 -9 28 -12 30 -40 2 -33 -11 3 -35 25 -52 49 -17 24 -34 42 -36 39 -8 -8 50
-85 87 -116 27 -22 31 -29 17 -29 -15 0 -16 -3 -6 -15 11 -13 10 -14 -5 -9
-14 6 -16 4 -9 -7 15 -24 13 -42 -4 -56 -16 -12 -16 -14 1 -27 24 -18 22 -23
-15 -30 l-32 -6 23 -16 c19 -14 25 -14 32 -3 4 7 12 10 16 5 4 -5 2 -11 -5
-13 -6 -3 -10 -8 -7 -13 11 -18 -24 -32 -55 -22 -16 6 -30 8 -29 4 1 -16 62
-54 86 -54 l26 0 -23 -13 c-13 -7 -30 -11 -37 -8 -7 3 -13 0 -13 -6 0 -6 9
-11 19 -11 11 0 23 -5 27 -12 4 -7 3 -8 -4 -4 -19 12 -35 -3 -21 -20 14 -17
-2 -19 -20 -1 -10 10 -10 6 -2 -16 6 -16 9 -33 5 -38 -3 -5 0 -9 6 -9 6 0 9
-4 6 -8 -3 -5 1 -21 9 -35 14 -27 13 -27 -13 -21 -26 5 -26 5 10 -29 20 -20
34 -38 30 -41 -3 -3 5 -6 18 -6 13 0 20 3 17 7 -8 7 11 33 25 33 6 0 7 -7 4
-16 -4 -11 6 -20 37 -34 36 -17 39 -20 17 -21 -17 -1 -19 -3 -7 -6 19 -5 24
-57 7 -68 -6 -4 -8 -10 -5 -15 5 -8 -48 -23 -69 -20 -5 1 -12 -3 -15 -9 -4 -7
-26 -8 -59 -4 -50 6 -52 7 -52 37 0 18 -7 41 -15 52 -8 10 -15 26 -15 34 0 8
-9 26 -20 40 -29 37 -26 54 7 45 l27 -6 -19 22 c-11 13 -29 31 -40 40 -14 12
-19 30 -20 62 0 28 -4 43 -11 40 -12 -4 -44 23 -44 37 0 5 7 7 15 4 9 -4 15 0
15 9 0 8 -7 17 -15 21 -16 6 -10 35 9 48 8 5 7 13 -1 27 -10 16 -9 22 7 36 15
13 20 14 27 3 4 -7 19 -22 32 -33 26 -21 21 -6 -8 29 -9 11 -10 16 -3 12 6 -4
12 -2 12 4 0 6 -8 10 -17 8 -10 -2 -19 5 -21 16 -2 11 0 16 7 12 6 -4 11 -2
11 3 0 6 -4 11 -10 11 -5 0 -10 7 -10 15 0 18 -16 20 -23 3 -3 -7 -6 1 -6 19
-1 31 9 37 37 20 16 -11 15 -2 -2 32 -8 15 -12 38 -9 49 6 24 18 29 27 10 3
-7 3 5 -1 27 -3 22 -11 43 -17 47 -8 6 -8 8 0 8 7 0 14 9 17 20 3 13 10 18 21
14 9 -3 16 -2 16 4 0 6 -6 12 -12 15 -20 7 93 0 130 -8z m-594 -140 c8 -8 21
-15 29 -15 7 0 17 -3 21 -7 4 -5 20 -8 34 -8 17 0 27 -5 27 -15 0 -8 -6 -14
-12 -12 -18 3 -16 -2 7 -23 17 -16 20 -16 15 -3 -5 11 -2 16 9 14 21 -3 45
-26 28 -26 -7 0 -12 5 -12 12 0 6 -3 8 -7 5 -3 -4 2 -16 12 -26 17 -20 17 -20
-9 -15 -18 3 -26 0 -26 -10 0 -8 5 -18 10 -21 6 -3 10 -11 10 -17 0 -7 -6 -6
-15 2 -10 9 -15 9 -15 1 0 -6 -4 -11 -10 -11 -5 0 -10 8 -10 18 0 14 -2 15 -9
2 -6 -8 -7 -18 -5 -22 3 -4 -6 -8 -20 -8 -14 0 -26 5 -26 12 0 6 -3 9 -6 6 -3
-4 2 -21 11 -40 13 -28 13 -30 1 -14 -9 11 -19 17 -23 13 -11 -11 28 -46 45
-40 14 4 14 3 3 -5 -18 -13 -35 -10 -56 11 -24 24 -50 18 -50 -12 0 -13 -7
-26 -15 -28 -13 -4 -13 -3 0 6 8 5 11 13 7 18 -11 10 -27 -17 -27 -45 0 -20 4
-22 23 -16 12 3 19 3 14 -1 -4 -5 1 -17 10 -27 16 -18 16 -18 0 -12 -9 3 -17
10 -17 15 0 5 -5 9 -11 9 -6 0 -9 -6 -6 -12 2 -7 -3 -18 -12 -24 -13 -10 -13
-14 -1 -30 13 -16 13 -17 -1 -12 -12 5 -16 -3 -18 -40 -1 -26 -7 -50 -13 -53
-6 -4 1 -14 18 -23 l29 -17 -29 6 c-24 5 -27 4 -19 -7 11 -13 13 -19 13 -36 0
-5 13 -7 30 -4 18 3 46 -4 72 -18 75 -39 162 -67 195 -63 27 3 32 1 27 -12 -4
-9 0 -23 8 -33 30 -35 32 -45 7 -37 -23 7 -23 7 -4 -8 18 -14 17 -15 -18 -15
-21 0 -41 -3 -44 -6 -3 -3 -15 0 -27 6 -17 9 -19 8 -8 -3 16 -18 15 -29 -3
-29 -8 0 -15 -4 -15 -10 0 -5 16 -10 35 -10 19 0 35 -4 35 -8 0 -4 14 -13 31
-19 17 -7 28 -16 25 -22 -4 -6 -13 -8 -20 -5 -8 3 -17 1 -21 -5 -9 -15 -48
-14 -64 2 -10 10 -12 7 -9 -13 2 -14 7 -31 11 -37 14 -23 -11 -14 -38 13 -33
32 -55 87 -48 115 5 18 3 21 -10 16 -9 -3 -16 -3 -16 1 3 19 -2 26 -10 13 -8
-12 -11 -12 -25 1 -10 10 -28 14 -55 12 -28 -2 -41 1 -45 12 -4 10 -17 15 -33
14 -52 -4 -63 -1 -56 16 4 10 1 15 -8 14 -29 -5 -37 1 -48 33 -11 29 -10 34
13 54 22 18 23 22 8 28 -9 3 -12 9 -7 13 14 10 17 32 5 32 -5 0 -10 5 -10 10
0 14 17 12 56 -6 57 -27 49 -9 -18 42 -35 26 -65 49 -68 51 -2 2 2 8 10 13 8
6 11 10 5 10 -5 0 -3 5 5 10 12 8 13 13 3 30 -16 25 -16 33 -1 24 7 -4 8 -3 4
4 -8 14 10 52 26 52 6 0 17 -8 24 -17 7 -10 15 -15 18 -12 4 3 -7 20 -23 36
-28 30 -29 30 -35 10 -3 -12 -8 -19 -11 -15 -7 7 15 58 25 58 4 0 10 17 14 39
7 47 27 65 61 57 28 -7 27 -2 -12 52 -15 22 -15 23 5 29 12 3 20 9 17 13 -9
15 31 54 48 47 21 -8 78 -87 71 -98 -3 -5 2 -6 11 -3 9 4 12 11 7 18 -5 6 -24
31 -42 55 l-34 44 27 -5 c14 -3 24 -1 21 3 -9 15 14 10 30 -6z m1517 -97 c1
-7 1 -20 0 -28 -1 -9 4 -6 11 7 27 46 47 -7 21 -57 -8 -15 -9 -26 -3 -28 6 -2
10 -10 10 -18 0 -8 7 -14 16 -14 10 0 14 -6 11 -15 -4 -8 -1 -17 5 -21 7 -4 8
-3 4 4 -4 7 -1 12 8 12 9 0 16 -4 16 -9 0 -5 3 -16 6 -24 3 -10 0 -14 -12 -14
-24 3 -26 -14 -5 -42 l19 -25 -5 27 c-3 16 -1 27 6 27 6 0 11 -3 12 -7 0 -5 2
-23 3 -40 3 -27 0 -33 -15 -33 -11 0 -19 -5 -19 -11 0 -6 7 -9 15 -5 8 3 19
-3 25 -14 6 -10 24 -34 40 -52 17 -18 30 -36 30 -40 0 -9 -34 8 -62 31 -33 26
-18 -5 19 -40 20 -18 33 -27 29 -19 -4 8 1 4 12 -10 12 -14 20 -26 18 -27 -1
-2 -17 2 -35 7 -28 8 -31 7 -21 -5 17 -21 119 -20 148 1 13 9 25 14 28 11 3
-2 22 0 42 5 75 19 105 18 120 -4 10 -13 17 -16 21 -9 4 6 6 -8 5 -31 -2 -24
-3 -43 -4 -43 -1 0 -3 -8 -5 -17 -2 -10 2 -18 8 -18 7 0 7 -4 -1 -12 -13 -13
-15 -11 -41 31 -6 10 -13 11 -27 3 -18 -11 -18 -11 3 -12 25 0 39 -15 23 -25
-6 -4 -22 0 -35 9 -32 21 -38 20 -32 -4 3 -10 -1 -24 -8 -30 -19 -16 -60 -9
-60 10 0 16 -44 42 -57 34 -4 -3 -8 -11 -8 -17 0 -7 -18 -13 -41 -15 -22 -1
-52 -10 -65 -19 -18 -12 -24 -12 -22 -3 2 8 -10 16 -27 20 -60 15 -87 30 -83
48 2 11 16 19 42 22 32 4 37 7 25 17 -8 6 -26 16 -40 22 -18 6 -33 27 -50 65
-13 31 -30 56 -36 56 -7 0 -13 7 -13 15 0 9 6 12 18 8 15 -6 15 -4 -2 15 -11
12 -14 22 -8 22 7 0 12 5 12 10 0 6 -9 10 -20 10 -24 0 -26 16 -4 28 11 6 13
11 5 16 -6 4 -11 17 -11 29 1 20 2 20 11 4 6 -9 15 -15 20 -11 6 3 6 10 1 17
-5 7 -12 24 -16 40 -4 16 -14 27 -24 28 -16 1 -16 2 1 6 21 6 21 10 2 30 -23
23 -11 27 25 8 43 -22 49 -12 8 16 -59 43 -71 58 -57 76 12 14 44 31 62 32 4
1 8 -5 8 -11z m1506 -130 c10 -32 24 -58 31 -58 6 0 12 -7 12 -16 0 -11 -5
-14 -16 -10 -11 4 -14 1 -10 -12 3 -9 1 -24 -4 -32 -7 -11 -10 -11 -10 -2 0
23 -17 4 -23 -25 -5 -26 -4 -26 9 -9 8 11 16 17 19 14 11 -10 -48 -58 -72 -58
-15 0 -22 4 -17 11 3 6 -5 3 -20 -6 -14 -10 -26 -14 -26 -9 0 4 -5 3 -12 -4
-7 -7 -24 -12 -40 -12 -21 0 -26 4 -21 17 4 11 3 14 -5 9 -16 -10 -15 7 0 22
10 10 8 14 -10 18 -12 4 -22 13 -22 20 0 8 -4 14 -9 14 -12 0 -66 53 -63 62 1
4 -3 8 -9 8 -5 0 -7 5 -4 10 10 16 -14 40 -33 33 -14 -6 -15 -5 -2 9 12 12 19
13 35 5 11 -6 29 -12 40 -14 33 -5 47 -12 41 -22 -3 -5 1 -14 9 -21 13 -10 15
-9 15 11 0 22 0 22 14 4 8 -11 13 -22 11 -25 -2 -3 9 -6 23 -7 l26 -1 -24 19
c-14 11 -17 17 -8 13 15 -5 57 15 86 43 20 20 3 15 -36 -9 -19 -12 -33 -16
-31 -9 5 13 40 35 73 46 15 4 17 8 8 17 -9 9 -8 16 4 29 14 16 17 16 34 2 10
-9 27 -43 37 -75z m100 -858 c4 -13 3 -13 -6 0 -5 8 -12 12 -15 9 -8 -8 5 -49
16 -49 5 0 15 -6 22 -12 11 -11 10 -18 -6 -40 -11 -16 -28 -28 -39 -28 -10 0
-19 -5 -19 -11 0 -17 -40 -49 -69 -55 -14 -3 -33 -9 -41 -13 -9 -5 -19 -2 -27
8 -9 13 -14 14 -25 3 -11 -11 -10 -14 2 -22 13 -8 13 -10 -2 -10 -9 0 -24 -3
-34 -7 -13 -5 -15 -3 -9 8 4 8 -2 4 -14 -8 -26 -28 -28 -28 -40 -4 -8 14 -7
18 2 17 6 0 13 3 14 8 2 11 26 26 51 31 35 7 91 36 120 63 17 15 19 15 25 -2
4 -9 1 -13 -6 -10 -15 6 -40 -33 -27 -41 6 -3 10 -1 10 4 0 6 8 11 18 11 26 0
45 35 27 50 -8 6 -11 18 -8 26 9 23 -24 16 -41 -8 -12 -17 -16 -19 -16 -6 0 9
6 18 13 21 6 2 9 8 5 12 -5 5 -17 0 -28 -10 -14 -13 -17 -21 -9 -26 13 -8 5
-39 -10 -39 -6 0 -8 8 -4 18 6 16 5 16 -13 1 -28 -23 -48 -34 -40 -21 3 5 3
12 -1 15 -5 2 -3 2 4 1 6 -2 17 5 25 14 12 15 11 16 -4 4 -10 -8 -18 -9 -22
-3 -4 6 -13 8 -21 4 -8 -3 -15 0 -15 6 0 6 5 11 11 11 6 0 9 7 5 15 -3 10 3
17 19 21 14 3 25 12 25 20 0 8 6 14 14 14 8 0 16 6 19 13 3 8 10 6 26 -8 19
-16 24 -17 31 -5 8 13 10 13 10 -1 0 -20 47 -32 57 -15 4 6 6 19 4 29 -3 23
30 20 36 -3z m-352 -11 c11 -16 -4 -24 -24 -12 -14 9 -24 4 -56 -28 -21 -21
-34 -39 -29 -39 5 0 1 -5 -8 -11 -17 -9 -16 -12 8 -34 15 -14 34 -25 43 -25
10 0 22 -5 27 -10 13 -13 62 6 81 30 9 12 6 17 -15 27 l-27 11 28 1 c24 1 41
21 18 21 -5 0 -16 3 -25 6 -10 4 -16 1 -16 -9 0 -9 -7 -23 -16 -32 -21 -21
-12 -30 15 -15 17 9 21 8 21 -5 0 -8 -9 -15 -19 -15 -11 0 -22 -6 -25 -12 -5
-10 -7 -10 -12 0 -3 6 -13 12 -21 12 -11 0 -8 6 8 20 21 17 22 21 9 30 -8 5
-20 8 -27 5 -7 -2 -15 0 -18 6 -4 5 7 12 24 15 17 4 31 10 31 14 0 4 12 12 26
19 28 12 54 1 54 -23 0 -6 14 -25 30 -43 35 -37 38 -47 10 -38 -21 7 -28 -10
-7 -18 7 -3 5 -6 -5 -6 -10 -1 -19 7 -19 17 -1 16 -2 16 -6 -1 -2 -9 -19 -25
-36 -34 -25 -13 -28 -18 -14 -21 20 -4 22 -23 5 -40 -17 -17 -36 -15 -65 8
-14 11 -31 20 -37 20 -6 0 -2 -8 9 -16 19 -15 19 -16 -13 -12 -18 3 -35 1 -38
-4 -3 -4 -11 -8 -17 -8 -7 1 -2 9 10 19 12 10 20 21 17 24 -3 2 7 7 21 11 25
6 36 28 13 25 -28 -3 -38 2 -38 20 0 21 -17 37 -27 27 -3 -3 0 -12 7 -21 8
-10 9 -15 1 -15 -6 0 -11 5 -11 10 0 6 -9 10 -20 10 -27 0 -17 22 20 44 30 17
42 60 19 68 -7 2 -4 10 7 18 16 13 17 13 11 -2 -7 -21 5 -30 27 -22 14 5 14 9
4 22 -10 12 -10 14 -1 8 7 -4 21 -2 30 3 23 14 50 14 58 0z m-1588 -89 c3 -16
12 -30 19 -30 8 0 13 -5 12 -11 -2 -6 3 -14 11 -17 9 -3 11 0 6 8 -6 10 1 11
31 6 114 -18 132 -18 155 -2 14 10 18 16 9 16 -11 0 -12 2 -1 13 6 6 25 12 41
12 27 0 28 -1 12 -19 -16 -18 -16 -19 1 -13 11 4 16 3 12 -3 -3 -6 -14 -10
-23 -10 -9 0 -28 -7 -42 -14 -30 -17 -76 -40 -126 -62 -23 -10 -34 -21 -30
-30 4 -9 -2 -14 -17 -14 -20 -1 -21 -2 -5 -14 10 -7 15 -16 11 -19 -3 -4 0 -7
8 -7 8 0 4 -6 -9 -16 -12 -8 -20 -20 -16 -25 4 -7 10 -7 18 0 7 6 17 6 26 1
12 -8 10 -10 -7 -10 -13 0 -23 -5 -23 -12 0 -9 -3 -9 -12 0 -7 7 -22 12 -35
12 -13 0 -23 6 -23 13 0 17 -37 39 -45 27 -9 -15 -35 -12 -35 4 0 8 -8 17 -17
22 -21 8 -18 8 -61 0 -21 -3 -31 -2 -27 4 7 11 -8 14 -19 3 -3 -4 -13 -8 -20
-9 -7 -1 -24 -5 -37 -9 -22 -7 -21 -6 5 18 l27 26 -28 3 c-18 2 -27 8 -25 17
3 12 0 12 -13 1 -22 -18 -32 -3 -11 18 16 16 18 16 36 -5 21 -27 42 -29 60 -8
8 10 18 12 28 6 17 -9 52 -3 52 9 0 5 -6 10 -12 13 -12 4 34 54 78 85 17 11
17 12 2 8 -27 -8 -21 7 10 26 38 23 42 22 49 -12z m-897 -90 c0 -10 -70 -43
-77 -37 -2 3 0 15 6 26 l12 21 -36 -21 c-19 -12 -42 -31 -50 -42 -14 -20 -13
-22 22 -39 50 -24 53 -24 111 22 62 50 77 52 29 4 l-36 -36 25 -23 c20 -19 34
-23 67 -20 23 2 43 9 45 15 3 7 17 8 40 4 29 -6 34 -4 29 8 -3 8 4 23 15 32
11 10 17 20 13 24 -3 3 -10 0 -15 -8 -8 -13 -10 -12 -10 3 0 9 -5 17 -10 17
-6 0 -10 -6 -8 -14 3 -15 1 -16 -29 -16 -14 1 -10 8 15 30 18 17 39 30 47 30
8 0 15 7 15 16 0 13 2 13 14 2 30 -30 28 -55 -6 -87 -26 -24 -30 -33 -20 -43
10 -10 16 -9 29 5 14 13 14 17 3 17 -11 0 -11 3 -2 12 10 10 14 10 21 0 6 -10
10 -10 20 2 8 9 8 16 2 20 -21 13 1 31 40 33 25 1 53 10 71 23 22 16 37 20 59
15 24 -5 28 -10 19 -21 -7 -7 -22 -16 -33 -20 -12 -4 -34 -15 -48 -25 -14 -10
-35 -16 -45 -13 -28 8 -131 -78 -106 -88 9 -4 13 -7 9 -7 -4 -1 -3 -10 3 -20
6 -13 17 -17 30 -14 11 3 20 1 20 -4 0 -15 43 -31 99 -39 28 -4 48 -10 45 -15
-3 -5 7 -4 22 2 16 5 44 8 64 4 19 -3 42 -1 50 5 13 8 12 12 -7 25 -31 22 -29
28 12 48 41 20 49 21 40 7 -3 -5 -1 -10 4 -10 6 0 11 -6 11 -13 0 -8 9 -13 23
-11 12 1 25 3 30 3 4 1 7 7 7 15 0 7 11 21 25 30 14 9 25 23 25 31 0 9 9 15
23 15 l22 -1 -22 -18 c-13 -11 -23 -24 -23 -29 0 -5 -8 -13 -17 -17 -16 -6
-15 -8 7 -20 17 -9 30 -10 43 -4 9 6 22 7 27 4 5 -3 11 -1 15 5 10 16 21 12
31 -11 9 -19 11 -20 23 -5 9 11 10 16 2 16 -6 0 -11 5 -11 10 0 16 17 11 24
-7 7 -18 -3 -32 -25 -38 -39 -9 -59 -18 -59 -27 0 -6 7 -7 15 -4 8 3 22 9 30
12 19 8 19 -10 0 -26 -21 -18 -19 -29 5 -23 24 6 27 -18 5 -41 -22 -22 -20
-39 4 -26 28 14 33 13 26 -9 -6 -19 17 -36 42 -32 21 3 24 -17 3 -24 -11 -3
-20 -11 -20 -18 0 -8 -3 -8 -11 0 -14 14 -34 7 -80 -28 -24 -19 -43 -26 -58
-22 -17 4 -19 8 -10 20 11 12 9 12 -14 2 -15 -7 -24 -16 -21 -20 3 -5 0 -9 -5
-9 -6 0 -11 9 -11 21 0 25 -16 17 -23 -12 -4 -15 0 -23 14 -26 26 -7 8 -29
-32 -38 -16 -4 -29 -11 -29 -16 0 -5 -18 -8 -40 -6 -27 1 -39 6 -35 15 2 6 0
12 -6 12 -6 0 -8 4 -4 10 3 5 12 7 19 4 8 -3 17 -1 20 5 8 12 -24 31 -51 31
-10 0 -23 8 -29 18 -11 16 -9 18 17 14 16 -2 29 -8 29 -13 0 -13 32 -10 51 4
18 13 39 50 39 66 0 6 -11 11 -24 11 -14 0 -28 5 -31 10 -3 6 -17 10 -31 10
-15 0 -24 6 -24 15 0 8 -5 15 -10 15 -6 0 -22 8 -37 17 -14 10 -33 18 -42 20
-21 3 -72 -17 -66 -26 4 -7 -8 -9 -85 -14 -34 -2 -37 -9 -15 -27 8 -7 15 -20
14 -29 0 -13 -1 -13 -6 -1 -3 8 -16 25 -30 36 -21 18 -23 25 -14 42 10 18 9
21 -4 16 -11 -4 -13 -2 -9 9 8 22 -15 31 -35 13 -20 -18 -41 -21 -41 -6 0 6 5
10 12 10 6 0 9 2 6 5 -3 3 -18 0 -34 -6 -16 -6 -51 -13 -77 -15 -26 -2 -53 -7
-60 -11 -7 -4 -28 -9 -47 -10 -19 -2 -61 -7 -93 -11 -33 -5 -61 -4 -64 1 -3 4
-24 6 -47 2 -39 -6 -40 -5 -21 10 15 12 34 15 73 12 45 -3 60 0 89 20 20 14
39 20 42 16 8 -11 74 -16 67 -5 -2 4 11 9 30 9 37 1 67 19 58 35 -3 5 -13 7
-21 4 -8 -3 -26 -3 -39 0 -23 6 -24 7 -8 25 15 17 15 18 -10 25 -14 3 -26 10
-26 15 0 5 -9 9 -21 9 -11 0 -18 4 -15 9 7 11 -86 2 -98 -10 -6 -5 -17 -9 -25
-9 -11 0 -10 4 5 14 21 16 19 20 -13 30 -15 5 -30 -1 -49 -17 -24 -21 -26 -27
-15 -41 7 -9 24 -16 37 -16 33 0 30 -18 -3 -26 -17 -5 -28 -3 -31 4 -2 7 -13
12 -25 12 -11 0 -28 7 -37 15 -10 9 -41 15 -83 17 -37 2 -67 5 -67 8 0 3 30
22 65 44 43 25 65 45 65 57 0 22 35 43 61 36 11 -3 40 6 65 20 24 14 51 22 60
19 8 -3 29 1 46 10 16 8 36 13 44 10 8 -3 14 0 14 6 0 7 5 6 15 -2 8 -7 15
-16 15 -20z m1784 -174 c-2 -15 0 -15 20 -3 20 13 24 13 43 -9 21 -23 21 -24
2 -24 -10 0 -19 5 -19 10 0 6 -5 10 -11 10 -8 0 -9 -4 0 -13 17 -21 1 -28 -25
-10 -22 14 -24 14 -24 -1 0 -9 8 -16 18 -16 9 0 23 -9 29 -20 19 -29 -16 -51
-65 -39 -20 5 -58 9 -83 9 -30 0 -51 6 -60 16 -11 14 -10 20 14 40 16 13 24
24 20 24 -4 0 -1 5 7 10 8 5 22 7 32 4 9 -2 31 4 50 16 37 22 54 21 52 -4z
m-526 -40 c9 4 37 8 62 9 25 2 53 6 63 10 20 8 23 -5 5 -23 -7 -7 -8 -12 -2
-13 5 0 -12 -9 -38 -19 -64 -26 -130 -69 -123 -79 3 -5 -9 -14 -27 -20 -26 -9
-35 -8 -51 6 -19 18 -20 17 -8 -5 11 -21 10 -23 -5 -20 -27 5 -42 36 -24 48 8
5 21 8 28 5 16 -6 44 19 34 30 -4 5 -1 5 6 1 7 -4 10 -12 7 -17 -9 -14 11 -11
23 4 12 14 4 31 -18 39 -10 4 -6 8 13 13 15 4 27 12 27 17 0 6 -9 8 -21 5 -18
-5 -18 -3 -7 11 23 29 33 32 36 11 3 -15 8 -19 20 -13z m-1338 -314 c23 -5 23
-6 -9 -11 -19 -3 -36 -12 -39 -18 -5 -18 16 -16 68 8 48 22 114 33 104 18 -3
-5 -18 -9 -35 -9 -29 0 -41 -17 -16 -24 54 -17 69 -16 74 4 3 13 11 19 19 16
8 -3 14 -1 14 3 0 5 9 7 20 4 11 -3 30 2 43 10 21 13 24 13 24 1 0 -18 -43
-50 -79 -59 -15 -4 -34 -15 -43 -25 -15 -16 -14 -18 17 -24 25 -5 36 -2 45 11
12 15 15 15 38 -7 32 -30 32 -48 0 -60 -14 -5 -25 -14 -25 -19 0 -14 -54 -20
-69 -8 -12 10 -14 9 -8 -5 10 -28 -8 -29 -31 -3 -12 14 -25 25 -29 26 -5 1
-24 3 -43 5 -85 8 -108 11 -119 18 -16 10 -81 -2 -81 -15 0 -15 33 -24 38 -11
2 7 10 12 19 12 8 0 13 -6 11 -12 -6 -18 -119 -28 -125 -11 -4 9 -10 10 -24 2
-15 -7 -27 -6 -49 8 -24 14 -36 15 -58 7 -25 -10 -32 -8 -57 18 -16 15 -26 29
-24 31 2 2 37 8 78 13 53 7 77 7 85 -1 10 -10 70 -35 85 -35 4 0 8 11 9 25 1
16 -3 25 -13 25 -8 0 -15 -5 -15 -10 0 -9 -46 -4 -58 5 -9 7 24 55 35 51 7 -3
25 -1 40 5 20 7 28 6 35 -3 5 -9 8 -7 9 7 1 11 2 25 4 30 1 6 3 15 3 21 2 10
51 5 132 -14z"/>
<path d="M4430 3504 c-25 -9 -49 -20 -54 -25 -6 -5 -15 -4 -22 2 -19 16 -57
-7 -49 -31 4 -13 -2 -20 -23 -28 -31 -10 -62 -38 -62 -53 0 -6 5 -7 12 -3 8 5
9 2 5 -10 -4 -10 -3 -15 3 -11 6 3 10 13 10 21 0 8 10 14 23 14 35 0 39 -10
14 -32 -16 -14 -18 -21 -9 -25 7 -2 19 -11 26 -19 17 -16 40 -19 31 -4 -3 6 1
10 10 10 9 0 14 -4 10 -9 -3 -6 4 -15 16 -22 17 -9 19 -13 8 -20 -12 -8 -12
-11 1 -19 10 -6 11 -10 3 -10 -7 0 -13 -4 -13 -10 0 -12 40 -13 59 -1 10 7 10
10 1 16 -7 4 -17 1 -22 -6 -8 -12 -9 -11 -5 1 2 8 13 14 23 12 60 -10 193 -12
199 -2 3 5 22 10 42 10 45 0 102 19 125 43 20 19 24 52 8 62 -8 5 -7 11 0 20
16 20 2 37 -22 29 -17 -5 -20 -3 -15 10 8 21 -2 20 -25 -1 -19 -17 -19 -16
-12 11 6 27 6 28 -15 16 -13 -6 -29 -9 -37 -6 -8 3 -17 -1 -21 -10 -5 -12 -8
-12 -20 5 -7 11 -20 18 -28 15 -8 -4 -15 -2 -15 4 0 5 7 12 15 16 17 6 9 39
-9 33 -6 -2 -24 2 -41 11 -27 14 -30 13 -43 -7 -18 -27 -35 -27 -27 -1 7 24 4
24 -55 4z"/>
<path d="M2655 5740 c-11 -5 -32 -9 -47 -9 -32 -1 -68 -33 -68 -60 0 -39 65
-35 81 5 14 39 54 32 83 -14 25 -39 49 -59 101 -80 27 -11 25 -8 -17 33 -29
28 -48 55 -48 68 0 30 -27 67 -48 66 -9 0 -26 -4 -37 -9z"/>
<path d="M5460 5126 c0 -8 98 -71 115 -74 11 -1 36 -11 55 -21 34 -18 114 -31
217 -36 28 -2 70 -6 92 -10 33 -5 46 -3 67 14 20 16 35 19 63 15 58 -9 113 10
138 50 l22 35 -37 -5 c-20 -3 -76 -12 -125 -20 -169 -27 -292 -18 -549 41 -32
7 -58 12 -58 11z"/>
<path d="M2728 5113 c-15 -4 -15 -6 3 -24 37 -37 25 -46 -56 -41 -41 2 -75 2
-75 -2 0 -3 18 -24 41 -47 26 -26 46 -38 56 -35 9 4 25 -4 39 -19 30 -33 73
-36 126 -10 15 7 40 16 55 19 24 6 30 2 41 -24 21 -46 12 -61 -44 -80 -62 -21
-87 -13 -55 19 24 24 22 26 -16 9 -51 -23 -96 -57 -82 -62 29 -10 160 -26 206
-26 46 1 94 22 80 36 -4 4 5 20 19 37 l26 31 -24 18 c-19 15 -70 37 -145 63
-7 2 -13 13 -13 23 0 12 -26 39 -66 71 -64 49 -78 54 -116 44z"/>
<path d="M6507 4453 c3 -7 11 -13 18 -13 15 0 25 -22 25 -56 0 -13 5 -25 10
-25 6 -1 15 -2 21 -3 6 0 16 -8 22 -17 7 -8 19 -18 28 -21 9 -4 19 -16 22 -28
5 -18 3 -19 -10 -9 -12 10 -16 10 -24 -2 -5 -8 -9 -20 -9 -26 0 -7 -4 -13 -9
-13 -18 0 -16 -55 3 -82 16 -22 17 -31 7 -59 -18 -51 -14 -75 14 -87 21 -10
25 -9 25 3 0 8 -4 15 -10 15 -5 0 -10 8 -10 18 0 33 40 142 59 163 18 20 20
20 46 3 18 -12 29 -14 37 -6 6 6 18 8 27 5 12 -4 11 -2 -3 9 -16 13 -17 18 -6
38 l13 24 13 -27 c10 -17 20 -24 30 -20 11 4 12 9 5 16 -6 6 -11 22 -11 35 0
21 2 22 15 12 13 -10 14 -6 13 32 -2 42 -3 44 -20 29 -9 -9 -21 -28 -26 -41
l-10 -25 -7 29 c-5 18 -3 36 5 49 10 17 10 19 -4 14 -9 -4 -16 -2 -16 3 0 6
-9 10 -21 10 -16 0 -19 -4 -14 -17 15 -37 17 -53 6 -53 -6 0 -11 8 -11 18 0
21 -43 66 -53 55 -4 -3 -7 -19 -7 -35 l0 -30 -29 24 c-16 13 -28 30 -26 38 3
8 -4 26 -15 40 -19 25 -20 25 -20 3 0 -12 5 -25 10 -28 24 -15 7 -22 -20 -9
-28 15 -34 24 -31 50 1 6 -12 11 -28 10 -18 -1 -27 -5 -24 -13z"/>
<path d="M7950 3443 c-25 -14 -147 -83 -271 -154 -214 -122 -259 -144 -243
-118 3 6 -8 3 -26 -6 -17 -9 -34 -14 -38 -11 -3 3 -11 1 -19 -5 -10 -9 -10
-15 -2 -25 11 -13 -18 -35 -177 -133 -28 -17 -58 -39 -67 -49 -20 -22 -33 -72
-18 -72 6 0 11 -6 11 -14 0 -7 9 -16 21 -19 12 -3 19 -12 17 -19 -6 -16 16
-39 34 -36 7 2 12 -5 12 -14 -1 -14 6 -17 35 -16 20 0 69 -11 110 -26 78 -28
128 -31 298 -22 53 4 92 11 108 22 39 26 40 10 1 -19 -38 -30 -86 -117 -86
-158 0 -14 3 -41 6 -58 l7 -31 19 22 20 23 -7 -24 c-5 -17 -4 -22 6 -19 8 3
15 10 15 16 3 25 5 27 13 14 7 -11 11 -11 22 0 22 19 101 59 107 53 3 -3 -3
-12 -14 -19 -10 -8 -16 -18 -12 -22 14 -13 38 18 38 48 0 28 2 29 33 24 19 -4
25 -3 14 2 -17 7 -17 9 4 27 15 14 23 16 26 8 3 -9 10 -9 29 -1 l24 11 0 424
c0 232 -2 423 -3 422 -1 -1 -22 -12 -47 -26z"/>
<path d="M180 890 c0 -11 -7 -23 -15 -26 -9 -4 -12 -15 -9 -32 4 -24 0 -29
-36 -45 -36 -17 -57 -50 -27 -45 6 2 11 -3 9 -10 -1 -6 3 -11 9 -10 25 6 16
-18 -14 -38 -18 -11 -31 -27 -31 -36 1 -15 -1 -15 -22 -2 -13 9 -28 13 -34 9
-11 -7 -14 -105 -4 -142 8 -31 75 -80 119 -89 l38 -7 -7 37 c-5 26 -3 36 6 36
10 0 9 3 -1 9 -12 8 -13 12 -2 25 11 12 17 14 27 5 11 -9 18 -8 28 0 10 8 16
9 21 1 3 -5 10 -10 14 -10 13 0 43 70 37 85 -2 7 1 18 8 24 8 6 16 30 20 53 4
22 16 52 26 66 22 27 25 53 10 68 -6 6 -6 21 -1 41 9 30 8 31 -25 38 -19 3
-38 3 -43 0 -6 -3 -12 -1 -16 5 -3 5 -24 10 -46 10 -33 0 -39 -3 -39 -20z"/>
<path d="M5465 613 c-11 -2 -28 -20 -37 -38 -17 -33 -17 -35 3 -45 11 -6 17
-15 13 -21 -3 -5 -1 -16 5 -22 7 -9 6 -21 -4 -41 -19 -36 -20 -31 16 -47 30
-12 31 -13 10 -21 -20 -7 -21 -10 -7 -23 8 -8 21 -12 29 -9 8 3 18 1 22 -5 3
-6 1 -11 -5 -11 -6 0 -8 -5 -5 -10 4 -6 11 -8 16 -5 5 4 9 -1 9 -10 0 -12 -5
-15 -17 -10 -36 14 -46 10 -55 -24 -7 -25 -6 -36 4 -42 7 -5 9 -9 3 -9 -5 0
-3 -5 5 -10 12 -8 13 -12 1 -19 -10 -7 -9 -11 8 -23 21 -15 20 -15 -18 -46
-42 -34 -74 -42 -65 -17 4 10 0 15 -14 15 -10 0 -32 10 -47 22 -22 17 -31 19
-45 10 -15 -9 -25 -4 -59 33 -42 46 -50 61 -28 52 7 -3 13 5 13 19 1 16 -4 24
-14 24 -12 0 -12 4 4 22 l19 21 -27 -17 c-26 -17 -26 -17 -21 4 5 20 4 21 -16
11 -23 -13 -28 -31 -9 -31 6 0 9 -3 5 -6 -3 -4 1 -14 10 -22 9 -9 11 -18 6
-19 -19 -7 -1 -60 33 -97 38 -41 35 -62 -12 -92 -14 -9 -29 -25 -35 -35 -9
-18 -2 -19 191 -19 171 0 200 2 200 15 0 11 -11 15 -42 15 l-41 0 21 23 c12
13 22 31 22 39 0 23 30 52 42 40 16 -16 5 -57 -15 -56 -25 2 -21 -25 6 -31 32
-8 83 9 78 26 -2 8 -3 29 -3 47 1 17 -3 33 -8 33 -6 1 -15 2 -22 3 -18 2 -22
26 -4 26 9 0 16 -4 16 -10 0 -5 6 -10 14 -10 21 0 12 54 -13 79 -13 13 -25 20
-28 17 -8 -8 -33 14 -33 29 0 7 12 16 26 19 37 10 64 38 59 64 -2 13 3 26 13
32 9 5 12 10 5 10 -6 0 -24 -12 -40 -28 -26 -25 -73 -34 -73 -12 0 12 29 20
35 9 7 -11 25 -2 25 12 0 6 -4 8 -9 4 -18 -10 -23 16 -7 34 14 15 14 18 -3 33
-11 9 -23 13 -27 10 -4 -4 -4 1 -1 11 5 13 1 17 -18 17 -27 0 -26 19 4 54 15
18 15 18 -7 7 -13 -7 -26 -10 -30 -7 -3 3 -1 6 5 6 12 0 34 46 26 54 -7 6 -25
6 -58 -1z"/>
</g>
</svg>
